<?xml version="1.0" standalone="no"?>
<!DOCTYPE svg PUBLIC "-//W3C//DTD SVG 1.1//EN" "http://www.w3.org/Graphics/SVG/1.1/DTD/svg11.dtd" >
<svg xmlns="http://www.w3.org/2000/svg" xmlns:xlink="http://www.w3.org/1999/xlink" version="1.1">
<metadata></metadata>
<defs>
<font id="brayden_scriptregular" horiz-adv-x="868" >
<font-face units-per-em="2048" ascent="1638" descent="-410" />
<missing-glyph horiz-adv-x="708" />
<glyph horiz-adv-x="0" />
<glyph horiz-adv-x="682" />
<glyph unicode=" "  horiz-adv-x="708" />
<glyph unicode="&#x09;" horiz-adv-x="708" />
<glyph unicode="&#xa0;" horiz-adv-x="708" />
<glyph unicode="!" horiz-adv-x="806" d="M23 14l34 84q8 15 23.5 22t30.5 1q17 -6 23.5 -22t-1.5 -31l-35 -84q-6 -15 -22 -22t-31 -1t-21.5 22t-0.5 31zM162 352l545 1319q6 15 22 22t31 1t21.5 -22.5t0.5 -31.5l-544 -1318q-6 -17 -22.5 -24t-31.5 1q-15 6 -21.5 22t-0.5 31z" />
<glyph unicode="&#x22;" horiz-adv-x="342" d="M43 965l10 102q3 18 16 28t31 9q17 -1 27 -14t8 -31q0 -5 -29 -107q-3 -13 -14.5 -20t-23.5 -4q-28 11 -25 37zM207 965l10 102q3 18 16 28t31 9q17 -1 27 -14t8 -31q0 -5 -29 -107q-3 -13 -15 -20t-24 -4q-27 10 -24 37z" />
<glyph unicode="#" horiz-adv-x="1370" d="M20 475q0 17 12.5 28t28.5 11h275q11 0 14 10l103 248q3 7 -2 15t-13 8h-217q-17 0 -29 12t-12 31q2 16 14 27.5t29 11.5h262q12 0 15 10l162 391q6 15 22 21.5t31 0.5t21.5 -22t0.5 -31l-143 -348q-3 -7 1.5 -14.5t12.5 -7.5h355q11 0 14 10l162 391q6 15 22 21.5 t31 0.5t21.5 -22t0.5 -31l-143 -348q-3 -8 1 -15t13 -7h222q17 0 29 -12t12 -27q1 -19 -10.5 -31t-30.5 -12h-269q-10 0 -14 -11l-102 -247q-3 -7 1.5 -15t12.5 -8h211q17 0 29 -12t12 -31q0 -15 -13 -27t-28 -12h-258q-12 0 -15 -10l-137 -332q-10 -27 -39 -27q-4 0 -14 5 q-17 6 -23 22t1 31l118 289q3 7 -1.5 14.5t-12.5 7.5h-354q-12 0 -15 -10l-137 -332q-10 -27 -39 -27q-4 0 -14 5q-15 6 -22 22t-1 31l119 289q3 7 -1.5 14.5t-12.5 7.5h-228q-17 0 -29 12t-12 31zM444 537q-3 -7 2 -15t13 -8h354q11 0 14 10l103 248q3 7 -2 15t-13 8h-354 q-10 0 -14 -11z" />
<glyph unicode="$" horiz-adv-x="1318" d="M20 223q0 87 28.5 167.5t80.5 144.5t133.5 102.5t179.5 38.5q76 0 154 -31q4 -3 10.5 -1.5t9.5 7.5l138 271q2 4 2 14q-68 171 -68 307q0 101 58 181t146 117.5t179 25.5q11 0 16 8l15 29q7 15 23.5 20.5t31.5 -2.5q15 -7 20 -23.5t-3 -31.5l-7 -15q-7 -13 7 -20 q60 -39 92 -105t32 -141q0 -113 -81 -188q-12 -12 -30 -11t-30 13q-10 12 -9 29.5t13 29.5q56 50 56 127q0 49 -20.5 95.5t-57.5 74.5q-13 10 -25 -6l-262 -518q-4 -8 -2 -14q12 -27 59 -128.5t65.5 -147.5t39 -126t20.5 -147q0 -155 -76.5 -288.5t-210.5 -213.5t-292 -80 q-79 0 -158 27q-13 3 -21 -9l-100 -196q-8 -15 -24 -20.5t-31 1.5q-14 8 -19 24.5t2 31.5l99 194q7 14 -4 21q-86 61 -132.5 156t-46.5 206zM102 223q0 -86 33 -161t96 -123q6 -5 14 -3t11 9l307 604q4 6 2 12.5t-10 9.5q-54 23 -113 23q-107 0 -186 -55t-116.5 -138 t-37.5 -178zM330 -92q-3 -6 0 -14t10 -9q56 -16 115 -16q136 0 251 69t180.5 183.5t65.5 247.5q0 50 -9.5 100.5t-36 117t-40.5 98.5t-53 116q-3 9 -14 9t-15 -9l-102 -201q-6 -10 2 -18q90 -90 90 -234q0 -130 -69 -217q-79 -102 -207 -102q-28 0 -38.5 24.5t13.5 52.5 q5 5 12 5q94 -5 154 69q53 68 53 168q0 77 -39 141q-4 8 -14 7.5t-14 -9.5zM770 1243q0 -80 27 -176q3 -11 13.5 -11.5t16.5 9.5l203 397q3 9 -2 17t-14 8q-100 -8 -172 -76.5t-72 -167.5z" />
<glyph unicode="%" horiz-adv-x="1144" d="M20 874q0 64 25.5 136t63.5 120q9 12 25 15t28 -6q19 59 67.5 91t106.5 32q64 0 106.5 -46t42.5 -126q0 -82 -43 -171.5t-118 -153t-156 -63.5q-71 0 -109.5 47t-38.5 125zM98.5 147q-2.5 17 7.5 31l840 1069q10 13 27.5 15t30.5 -9q13 -10 15 -27t-9 -30l-838 -1069 q-10 -13 -28 -15t-31 9q-12 9 -14.5 26zM102 874q0 -31 7 -51.5t20 -27.5t20.5 -9t18.5 -2q84 0 159.5 104t75.5 202q0 43 -17.5 66.5t-49.5 23.5q-42 0 -72.5 -28t-30.5 -83q0 -17 -11.5 -29t-28.5 -12q-12 0 -23 8t-14 19q-23 -37 -38.5 -88t-15.5 -93zM664 298.5 q6 57.5 28.5 113.5t55.5 96q11 12 27 14.5t28 -6.5q20 59 68 92t106 33q63 0 105 -46t42 -126q0 -83 -42.5 -172.5t-117 -153t-155.5 -63.5q-58 0 -94.5 31.5t-46.5 80.5t-4 106.5zM742.5 265q-3.5 -43 13 -73t53.5 -30q56 0 111.5 50t88.5 122t33 135q0 42 -17 66t-48 24 q-42 0 -72.5 -29t-30.5 -84q0 -17 -11.5 -28.5t-28.5 -11.5q-28 0 -39 26q-20 -33 -34.5 -78.5t-18 -88.5z" />
<glyph unicode="&#x26;" horiz-adv-x="1441" d="M20 403q0 90 22 170.5t60.5 141.5t78.5 105t87 81q136 107 320 152q8 2 11.5 8.5t0.5 13.5q-24 68 -27 121q-5 91 29 172.5t101 137t153 67.5q133 19 236 -54t122 -202q3 -17 -7 -30.5t-27 -14.5q-17 -3 -30.5 7.5t-16.5 27.5q-12 95 -88.5 146.5t-176.5 37.5 q-100 -13 -159.5 -98.5t-53.5 -192.5q3 -55 33 -121q3 -8 14 -8q58 3 99 -6q15 -5 24 -19.5t6 -31.5q-5 -16 -19.5 -24.5t-31.5 -4.5q-24 4 -60.5 5.5t-82 -10t-96 -26t-102.5 -42.5t-101 -61t-92 -80.5t-75 -100.5t-50.5 -122t-18.5 -145q0 -83 21 -161.5t64 -146.5 t103.5 -119t144.5 -80t181 -29q125 0 226.5 35t165.5 95t98.5 138t34.5 166q0 79 -38 145.5t-97.5 108t-129 64t-137.5 22.5q-65 0 -120 -24.5t-89 -62.5t-52.5 -80.5t-18.5 -80.5q0 -92 48 -153.5t134 -61.5q106 0 159.5 38t88.5 118q6 15 22 20.5t31 -0.5t22 -22t1 -31 q-45 -104 -119.5 -154.5t-204.5 -50.5q-122 0 -193 86t-71 211q0 142 113 236t270 94q185 0 330 -131h2q44 -32 92 -33t84.5 31t57.5 74t10.5 95.5t-54.5 96.5q-12 12 -12 28.5t12 28.5t28.5 12.5t28.5 -10.5q62 -60 77 -135.5t-11 -138.5t-80.5 -109t-120.5 -53 q-8 -1 -11.5 -9t-0.5 -15q31 -73 31 -154q0 -105 -41 -198.5t-116 -164t-191.5 -112t-258.5 -41.5q-138 0 -252.5 51t-188.5 137t-114.5 197t-40.5 233z" />
<glyph unicode="'" horiz-adv-x="141" d="M29 965l10 102q3 18 16 28t31 9q17 -1 27 -14t8 -31q0 -5 -29 -107q-3 -13 -15 -20t-24 -4q-27 10 -24 37z" />
<glyph unicode="(" horiz-adv-x="507" d="M23 181q-9 148 16 283t74 271t111.5 250.5t134 217.5t137.5 177.5t125 124.5q14 10 30 9t27 -13q12 -14 11 -30t-15 -27q-54 -46 -116 -116t-129.5 -167t-128 -206t-107.5 -237.5t-71.5 -256.5t-17 -268t53.5 -267q10 -40 -27 -53q-15 -5 -30 2.5t-21 22.5 q-48 135 -57 283z" />
<glyph unicode=")" horiz-adv-x="710" d="M22 -84.5q1 16.5 13 27.5q54 46 115.5 115.5t129.5 166.5t128 205.5t107.5 237t72.5 256.5t17.5 268t-52.5 268q-6 15 1 31t24 22q16 5 31.5 -2t19.5 -24q47 -133 56 -279t-15 -280t-71.5 -268.5t-109.5 -250t-133 -219t-138.5 -180t-129.5 -129.5q-12 -10 -29 -9t-28 13 q-10 14 -9 30.5z" />
<glyph unicode="*" horiz-adv-x="391" d="M18 1143q-4 12 1.5 24.5t17.5 20.5q3 3 88 31q3 1 3.5 4t-1.5 4l-41 20q-17 9 -21 28t7 34q9 13 25.5 16.5t29.5 -4.5q2 -1 3.5 -2.5l5 -5t7.5 -8t13.5 -14l21.5 -21.5q4 -2 6 2l21 86q5 19 22.5 27t36.5 -1q14 -6 20 -20t1 -29q0 -2 -1.5 -4.5t-6.5 -11.5t-11 -21 q-2 -3 0.5 -5.5t5.5 -0.5l37 25q14 9 31.5 5.5t26.5 -17.5t5 -31.5t-18 -26.5q-3 -2 -90 -30q-3 -1 -3 -4t3 -5l39 -20q17 -9 21.5 -28t-7.5 -34q-9 -12 -24.5 -15t-28.5 3q-7 4 -51 51q-1 2 -4 1.5t-4 -3.5l-21 -86q-5 -19 -22.5 -27t-36.5 1q-12 6 -18.5 20t-2.5 29 q1 1 2.5 4t6.5 11.5t12 21.5q1 3 -1 5t-5 1l-39 -25q-17 -11 -36.5 -3.5t-25.5 28.5z" />
<glyph unicode="+" horiz-adv-x="972" d="M20 455q0 17 12.5 29t28.5 12h396q11 0 16 8l150 366q6 15 22 22t31 1q35 -18 22 -55l-133 -320q-3 -9 2.5 -15.5t14.5 -6.5h329q17 0 29 -12t12 -29q2 -17 -10 -29t-31 -12h-376q-10 0 -17 -11l-168 -409q-6 -15 -22 -22t-31 -1q-15 8 -22 23.5t-1 30.5l152 364 q3 9 -2 17t-14 8h-349q-17 0 -29 12t-12 29z" />
<glyph unicode="," horiz-adv-x="563" d="M113 -57q-7 20 8 32q7 6 13 13t10.5 14.5t8.5 15.5t7 15t5.5 14t4 13l2.5 10t2 6v2q4 17 19 25t32 3q17 -6 25 -22t2 -31q-17 -39 -44.5 -74t-57.5 -49q-11 -4 -21.5 0t-15.5 13z" />
<glyph unicode="-" horiz-adv-x="643" d="M43 455q5 17 19.5 29t31.5 12h477q17 0 25.5 -12t3.5 -29q-4 -18 -18.5 -29.5t-32.5 -11.5h-477q-17 0 -25 11t-4 30z" />
<glyph unicode="." horiz-adv-x="589" d="M186 26.5q-5 16.5 2 30.5l17 29q8 15 24 20t31 -4q15 -7 19.5 -23.5t-3.5 -31.5l-14 -29q-9 -14 -25.5 -18.5t-31.5 2.5q-14 8 -19 24.5z" />
<glyph unicode="/" horiz-adv-x="1079" d="M21.5 -81q-3.5 16 5.5 30l954 1526q9 14 26 17.5t31 -5.5t18 -25t-5 -30l-955 -1526q-9 -14 -25.5 -17.5t-31.5 5.5q-14 9 -17.5 25z" />
<glyph unicode="0" horiz-adv-x="1153" d="M-57 113.5q-5 28.5 20 40.5q46 28 96 65q11 7 7 19q-39 116 -39 278q0 136 30 280t90 277t141 238.5t191 169t232 63.5q107 0 190 -51t131.5 -137.5t73 -191t24.5 -220.5q0 -170 -45.5 -338t-142.5 -318.5t-231 -234.5q-57 -37 -138.5 -68.5t-146.5 -31.5 q-206 0 -313 182q-3 6 -11 7.5t-12 -3.5q-87 -56 -96 -61q-8 -4 -14 -2q-32 9 -37 37.5zM109 516q0 -120 24 -215q1 -9 10 -12t15 2q88 65 161 100t150 35q129 0 197 -64.5t63 -158.5q0 -11 9.5 -15.5t17.5 2.5q140 130 216.5 337t76.5 417q0 98 -18.5 186.5t-57 165 t-106 121.5t-156.5 45q-104 0 -200 -58t-168 -155.5t-125.5 -219.5t-81 -255t-27.5 -258zM178 186q39 -71 96 -108t113 -37q147 0 205 53q35 33 48 76t2.5 82t-55.5 65.5t-118 26.5q-65 0 -129.5 -34t-157.5 -103q-11 -7 -4 -21z" />
<glyph unicode="1" horiz-adv-x="923" d="M20 2q0 15 13 27t28 12h166q12 0 15 12q74 258 225 639q128 318 289 676q3 9 -5 17t-18 4q-45 -16 -105 -25.5t-89 -23t-50 -50.5q-22 -40 -18 -73q0 -7 2 -9q16 -20 2 -45q-8 -14 -24.5 -18.5t-30.5 4.5q-45 27 -29 115q13 61 58 106q28 30 65.5 47t76.5 24t78.5 14.5 t83.5 26.5t81 52q25 21 51 2q11 -8 14.5 -21.5t-2.5 -27.5q-437 -979 -567 -1426q-2 -8 2.5 -14t13.5 -6h135q19 0 31 -13t10 -30q0 -17 -12 -28t-29 -11h-420q-17 0 -29 12t-12 31z" />
<glyph unicode="2" horiz-adv-x="1292" d="M20 109q0 77 61 136.5t159 59.5q32 0 74.5 -15t72.5 -30.5t90 -48.5q141 130 276 313t227.5 382.5t92.5 340.5q0 215 -248 215q-181 -9 -291 -113.5t-110 -240.5q0 -77 44.5 -122.5t129.5 -45.5q98 0 178 69.5t80 166.5q0 18 -4 33t-4 20q0 17 12 29t29 12q49 0 49 -94 q0 -87 -49 -161t-127 -115.5t-164 -41.5q-117 0 -186.5 68t-69.5 182q0 123 70.5 224.5t182.5 156.5t236 55h7q157 -3 237 -81t80 -216q0 -117 -55.5 -268.5t-144 -297t-194 -279.5t-210.5 -234q105 -59 191 -92t169 -33q160 0 287 147q12 15 31 15q17 0 29 -12t12 -29 q0 -15 -28 -47.5t-73.5 -67.5t-115.5 -61.5t-142 -26.5t-154.5 25.5t-137.5 52.5t-134 72q-179 -152 -305 -152q-73 0 -116.5 42.5t-43.5 107.5zM102 109q0 -10 2.5 -19.5t10 -21.5t24 -19.5t41.5 -7.5q86 0 230 113q-120 69 -170 69q-63 0 -100.5 -35t-37.5 -79z" />
<glyph unicode="3" horiz-adv-x="1075" d="M23 362q20 185 138 296.5t279 111.5q50 0 101.5 -20.5t94.5 -56.5t67.5 -94t17.5 -124q-1 -17 -14.5 -28t-30.5 -9q-18 3 -28 15.5t-9 29.5q7 63 -26.5 112t-80.5 71t-92 22q-129 0 -224 -90t-112 -244q-15 -138 79.5 -225.5t240.5 -87.5q195 0 342.5 130.5t183.5 346.5 q16 97 -6.5 184t-82.5 157t-167.5 113.5t-251.5 49.5q-29 1 -37.5 29t13.5 45l434 338q9 6 5.5 17t-15.5 11h-377q-17 0 -29 11.5t-14 27.5q0 19 12 31t29 12h545q26 0 39 -22q14 -32 -13 -52l-454 -352q-7 -8 -5 -18t11 -13q167 -32 277 -120.5t151 -207.5t18 -255 q-41 -244 -211.5 -394.5t-396.5 -150.5q-188 0 -304 116.5t-97 286.5z" />
<glyph unicode="4" horiz-adv-x="1392" d="M20 625q0 65 51 113t128 48q65 0 178 -67q7 -3 12 2q170 159 309 392.5t142 391.5q1 17 13.5 28t29.5 11t28.5 -12t10.5 -29q-3 -175 -142.5 -413t-312.5 -408q-7 -7 2 -16q130 -67 209 -80q145 -23 260 104v2q144 362 354 828q8 15 24.5 21t31.5 -1q15 -6 20.5 -22 t-0.5 -31q-282 -631 -409.5 -964.5t-178.5 -532.5q-4 -17 -19 -25.5t-32 -3.5q-15 3 -24 17.5t-5 31.5q55 208 168 506q3 4 -1.5 9t-10.5 3q-85 -38 -192 -22q-104 16 -265 106q-7 4 -10 -2q-139 -112 -235 -112q-59 0 -96.5 36t-37.5 91zM102 625q0 -45 52 -45q55 0 151 69 q4 3 3.5 9t-5.5 8q-70 39 -104 39q-46 0 -71.5 -25t-25.5 -55z" />
<glyph unicode="5" horiz-adv-x="1112" d="M23 362q20 185 138 296.5t279 111.5q50 0 101.5 -20.5t94.5 -56.5t67.5 -94t17.5 -124q-1 -17 -14.5 -28t-30.5 -9q-18 3 -28 15.5t-9 29.5q9 77 -41 133q-32 35 -76 53.5t-82 18.5q-129 0 -224 -90t-112 -244q-15 -138 79.5 -225.5t240.5 -87.5q195 0 342.5 130.5 t183.5 346.5q16 97 -6.5 184t-82.5 157t-167.5 113.5t-251.5 49.5q-22 1 -33.5 17.5t-5.5 35.5l148 441q9 28 39 28h457q17 0 29.5 -11t13.5 -28q0 -19 -12 -31t-29 -12h-418q-12 0 -15 -10l-110 -332q-3 -7 0.5 -13.5t11.5 -8.5q142 -16 250.5 -70.5t171 -134.5t86.5 -180 t6 -209q-41 -244 -211.5 -394.5t-396.5 -150.5q-122 0 -218.5 52.5t-145.5 145.5t-37 205z" />
<glyph unicode="6" horiz-adv-x="1001" d="M20 440q0 115 32.5 242.5t90 249.5t142.5 233.5t184 195.5t222 133.5t249 49.5q17 0 29 -12t12 -29t-12 -29t-29 -12q-135 0 -265.5 -65t-232 -172.5t-179.5 -240t-119.5 -275t-41.5 -269.5q0 -187 91.5 -292t271.5 -105q90 0 167.5 50.5t127.5 130t78 175t28 189.5 q0 135 -58 223t-175 88q-137 0 -221.5 -99.5t-106.5 -252.5q-19 -131 12 -242q4 -17 -3.5 -31.5t-22.5 -19.5q-17 -4 -31.5 4t-19.5 23q-39 130 -17 278q26 183 133.5 302.5t276.5 119.5q102 0 174.5 -54t106.5 -141.5t34 -197.5q0 -88 -21 -177t-63 -169.5t-99 -143.5 t-135 -100t-165 -37q-213 0 -329 128.5t-116 350.5z" />
<glyph unicode="7" horiz-adv-x="1056" d="M20 6q8 51 36.5 116.5t63.5 126t95 149t107 153t126 172t127 174.5q6 9 1.5 18t-13.5 9h-170q-19 0 -30.5 12t-10.5 31q0 17 12 28t29 11h250q11 0 14 8q154 224 246 399q4 9 -1.5 18t-14.5 7q-180 -24 -363 18q-83 17 -141.5 1.5t-95.5 -52t-54 -69.5t-16 -52 q14 -31 -10 -51q-12 -9 -27.5 -9t-25.5 9q-22 20 -17.5 64t32.5 92.5t80 91t125.5 59t168.5 -3.5q96 -22 190.5 -24.5t152 7t91.5 23.5q26 9 45 -10.5t8 -44.5q-88 -198 -260 -455q-6 -9 -1.5 -17.5t13.5 -8.5h140q17 0 29 -12t12 -31q-2 -16 -14 -27.5t-29 -11.5h-215 q-9 0 -15 -6q-65 -93 -191.5 -265.5t-193.5 -267t-130 -208t-73 -183.5q-3 -15 -14.5 -25t-26.5 -10h-6q-17 3 -27 16.5t-8 30.5z" />
<glyph unicode="8" horiz-adv-x="1028" d="M20 322q0 119 53 221t150 164.5t217 62.5q47 0 96 -18t91 -50.5t69 -84t27 -111.5q0 -5 -1 -15.5t-1 -15.5q-1 -15 -13.5 -26t-27.5 -11q-17 0 -29 12t-12 29q0 1 0.5 5.5t1 11t0.5 10.5q0 56 -34.5 99t-79 63t-87.5 20q-147 0 -242.5 -109t-95.5 -260q0 -124 93 -201 t229 -77q115 0 211 35.5t159 96.5t97.5 141.5t34.5 170.5q0 37 -10 70.5t-33 65.5t-44.5 56.5t-62 56t-66 50t-76 53t-73.5 50.5h-2q-59 42 -98.5 75t-81 79.5t-62 100t-20.5 113.5q0 124 86 207.5t227 83.5q108 0 174 -67t66 -181q0 -97 -47 -198.5t-127 -167.5 q-6 -4 -5.5 -13.5t7.5 -13.5q48 -32 70 -47.5t64.5 -48t64 -54t51 -56t44 -65t25.5 -69.5t11 -80q0 -107 -41 -202.5t-115 -167.5t-185 -114t-243 -42q-171 0 -287.5 101.5t-116.5 261.5zM379 1255q0 -81 51.5 -146t147.5 -134q7 -7 18 0q76 51 124 142t48 181 q0 92 -44.5 128t-133.5 36q-82 0 -146.5 -56.5t-64.5 -150.5z" />
<glyph unicode="9" horiz-adv-x="1001" d="M20 2q0 17 12 29t29 12q114 0 225 46.5t201.5 124.5t168 181t130.5 216.5t83 231t30 222.5q0 187 -91 292t-271 105q-89 0 -166.5 -50t-127 -130t-78 -175.5t-28.5 -188.5q0 -64 13.5 -119.5t40 -99.5t72.5 -69.5t106 -25.5q85 0 151.5 40.5t105 105.5t59 144.5t19.5 159 t-20 146.5q-5 17 3.5 32t25.5 19q15 5 30 -3t19 -25q20 -68 23 -146.5t-10 -156.5t-46.5 -149.5t-81.5 -127t-120 -88.5t-158 -33q-102 0 -174.5 54.5t-106 142.5t-33.5 199q0 88 21 177t63.5 169.5t99.5 143t134.5 99.5t163.5 37q214 0 329 -129t115 -350 q0 -116 -32.5 -243.5t-90 -249.5t-143 -233t-184.5 -195t-221.5 -133.5t-248.5 -49.5q-18 0 -29.5 11.5t-11.5 29.5z" />
<glyph unicode=":" horiz-adv-x="712" d="M145 26.5q-5 16.5 2 30.5l17 29q8 15 24 20t31 -4q15 -7 20 -23.5t-3 -31.5l-15 -29q-9 -14 -25.5 -18.5t-31.5 2.5q-14 8 -19 24.5zM309 534q-5 16 2 31l17 29q7 15 23.5 19.5t31.5 -3.5q15 -7 19.5 -23.5t-3.5 -31.5l-14 -29q-9 -15 -25.5 -19.5t-31.5 3.5 q-14 8 -19 24z" />
<glyph unicode=";" horiz-adv-x="737" d="M115 -57q-7 20 8 32q7 6 13 13t10.5 14.5t8.5 15.5t7 15t5.5 14t4 13l2.5 10t2 6v2q4 17 19 25t32 3q17 -6 25 -22t2 -31q-15 -37 -42.5 -72t-59.5 -51q-11 -4 -21.5 0t-15.5 13zM333.5 534q-4.5 16 2.5 31l16 29q7 15 24 19.5t32 -3.5q15 -7 19.5 -23.5t-3.5 -31.5 l-14 -29q-9 -15 -26 -19.5t-32 3.5q-14 8 -18.5 24z" />
<glyph unicode="&#x3c;" horiz-adv-x="815" d="M20 346q4 22 19 31l690 448q13 9 29.5 6t25.5 -16q9 -15 6 -31.5t-16 -25.5l-629 -410q-7 -4 -7.5 -12t5.5 -12l316 -295q12 -12 12 -29t-12 -29q-8 -14 -29 -14q-17 0 -29 12l-368 344q-16 16 -13 33z" />
<glyph unicode="=" horiz-adv-x="1015" d="M20 238q0 17 12 29t29 12h570q17 0 29 -12t12 -29t-12 -29t-29 -12h-570q-17 0 -29 12t-12 29zM262 598q0 17 12 29t29 12h569q17 0 29 -12t12 -29t-12 -29t-29 -12h-569q-17 0 -29 12t-12 29z" />
<glyph unicode="&#x3e;" horiz-adv-x="813" d="M21.5 7q3.5 17 17.5 26l629 409q6 5 7 12.5t-5 12.5l-316 295q-12 12 -12.5 28.5t10.5 28.5q12 12 29 13t29 -11l368 -344q15 -12 15 -33q-3 -21 -19 -30l-690 -449q-11 -8 -23 -8q-20 0 -34 18q-9 15 -5.5 32z" />
<glyph unicode="?" horiz-adv-x="1267" d="M143 1147q0 82 24 164t72 157.5t115 133.5t160 92.5t199 34.5q201 0 306 -116t105 -319q0 -62 -13.5 -122.5t-29 -104t-52 -105.5t-58 -94t-70.5 -102q-60 -83 -95.5 -136t-85.5 -145t-83 -184q-5 -15 -20.5 -23t-30.5 -2q-17 6 -24 22.5t-1 31.5q35 96 88 194t86.5 148 t98.5 143q56 79 84 121.5t62 106.5t48 124t14 127q0 169 -81.5 261t-247.5 92q-111 0 -205.5 -44.5t-155 -117t-94 -160.5t-33.5 -178q0 -66 18.5 -121t65.5 -94t117 -39q65 0 121 20t95 53t69 76.5t43 91.5t17.5 97t-7.5 92q-4 15 5 29.5t24 19.5q18 3 32 -5.5t17 -25.5 q10 -50 11.5 -101.5t-13 -103.5t-37.5 -99.5t-61.5 -89t-84 -71.5t-105 -47.5t-126.5 -17.5q-133 0 -208 96t-75 240zM449 14l34 84q6 15 22.5 22t31.5 1q17 -6 23 -22t-1 -31l-35 -84q-6 -15 -22 -22t-31 -1t-21.5 22t-0.5 31z" />
<glyph unicode="@" horiz-adv-x="1062" d="M20 141q0 106 36 226.5t103 231.5t151.5 202t191 145.5t213.5 54.5q153 0 239 -85t86 -232q0 -125 -31.5 -232t-77.5 -175t-100 -117t-97 -69.5t-70 -20.5q-35 0 -60 22t-31 62q-2 9 -10 12.5t-16 -2.5q-89 -66 -158 -66q-85 0 -119.5 70.5t-12.5 172t89 189.5 q112 146 266 146q91 0 146 -61t20 -144q-4 -11 -34 -66q-99 -185 -98 -230q1 -20 16 -21q0 -4 4 0q22 4 67 33.5t90 82.5q135 164 135 414q0 114 -62.5 175t-180.5 61q-113 0 -227.5 -77t-197.5 -192.5t-135.5 -253.5t-52.5 -256q0 -119 55.5 -194.5t159.5 -75.5 q70 0 133 30.5t105 86.5q9 12 26 14.5t29 -6.5q14 -11 17 -27t-6 -30q-54 -72 -135 -111t-169 -39q-128 0 -212.5 92.5t-84.5 259.5zM333.5 231.5q9.5 -51.5 55.5 -51.5q67 0 165 101t148 219q3 4 3 8q9 28 -3 47q-12 17 -37 28t-53 11q-115 0 -200 -113q-42 -56 -65 -127 t-13.5 -122.5z" />
<glyph unicode="A" horiz-adv-x="2459" d="M-20 324q0 198 120 362t306 213q15 8 12 21q-10 44 -10 106q0 157 86.5 284.5t230.5 197t313 69.5q78 0 168 -22.5t172.5 -55.5t162 -67.5t162 -63.5t146.5 -37q29 -4 56 -4q82 0 143 39q0 2 2 2q184 172 340 172h14q17 -3 26.5 -16.5t6.5 -30.5q-10 -53 -59.5 -272 t-85 -422.5t-45.5 -376.5q-4 -67 -5 -128q0 -392 173 -542q14 -11 15 -27t-11 -30q-11 -12 -27.5 -13t-30.5 9q-200 174 -200 615q0 59 4 122q6 119 24 238q0 18 -16 18h-514q-11 0 -14 -8q-46 -80 -79 -135t-87.5 -142.5t-99 -150t-106.5 -142.5t-116.5 -136t-122 -114 t-130.5 -94t-135 -58.5t-142 -22.5q-187 0 -334 80.5t-230 227.5t-83 335zM61 324q0 -252 158.5 -407t407.5 -155q82 0 170.5 40.5t158.5 91.5t157 151.5t137 163t130 188.5t103.5 165.5t88.5 152.5q3 5 5 8q174 308 330 496q7 7 2.5 16.5t-15.5 9.5q-72 2 -161.5 28 t-175 62.5t-172 73t-178.5 61.5t-169 25q-109 0 -208.5 -34.5t-175 -95t-120.5 -149t-45 -190.5q0 -53 11 -96q0 -6 5 -10t11 -2h21q125 0 245 -56q130 -61 201 -170q8 -12 21 -6q89 39 137.5 112t48.5 163q0 34 -14.5 73.5t-40.5 77t-69.5 62t-94.5 24.5q-18 0 -30 12.5 t-11 30.5q0 17 12 28t29 11q56 0 106 -20.5t84.5 -54t60 -75.5t38 -85.5t12.5 -83.5q0 -114 -63 -208t-173 -143q-12 -4 -8 -18q15 -55 16 -111q0 -44 -10 -88q-21 -101 -82 -184q-107 -147 -303 -191q-17 -4 -31.5 5t-17.5 26q-5 15 4.5 30t26.5 19q168 38 256 160 q47 65 65 146q9 38 9 77q0 42 -11 84q-4 16 -18 13q-54 -11 -105 -11q-101 -1 -185 43q-128 66 -189 203q-5 10 -21 10q-161 -41 -266 -184t-105 -315zM546 826.5q-5 -8.5 1 -17.5q51 -87 137 -129q66 -33 146 -32q25 0 51 3q9 2 12.5 11.5t-2.5 17.5q-57 68 -146.5 108.5 t-183.5 45.5q-10 1 -15 -7.5zM1710 793q-4 -9 0.5 -18t13.5 -9h465q6 0 11.5 4t5.5 10q14 87 34 187.5t33.5 161.5t37.5 166.5t30 131.5q1 9 -6.5 16t-16.5 5q-74 -24 -164 -96v-2q-42 -37 -55 -45v-2q-181 -169 -389 -510z" />
<glyph unicode="B" horiz-adv-x="2736" d="M-20 324q0 198 120 362t306 213q15 8 12 21q-10 44 -10 106q0 157 86.5 284.5t230.5 197t313 69.5q85 0 185.5 -26.5t186.5 -64t179.5 -75t170.5 -62.5q71 -23 142 -23h12q76 2 134 40q0 2 2 2q184 172 340 172q79 0 153 -37.5t123.5 -111t49.5 -164.5 q0 -154 -79.5 -273.5t-219.5 -203.5q-8 -4 -7.5 -14.5t9.5 -14.5q110 -54 173.5 -148.5t63.5 -216.5q0 -123 -57.5 -242.5t-157.5 -214t-250.5 -152.5t-322.5 -58q-90 0 -160.5 26.5t-113.5 71t-65 99.5t-22 116q0 126 80 230t185 104q20 0 33 -16.5t7 -36.5 q-10 -29 -40 -29q-67 0 -125 -80t-58 -172q0 -100 72.5 -165.5t206.5 -65.5q156 0 291 51.5t224 135t140 187.5t51 211q0 124 -80.5 209.5t-205.5 118.5q-7 0 -11 -2q-89 -34 -169 -51q-72 -15 -114 -15h-9q-1 0 -3.5 1t-3.5 1q-22 12 -25 34.5t13 35.5q101 89 230 89 q35 0 73 -7q6 0 10 2q162 71 258.5 185t96.5 270q0 103 -77 167t-167 64q-103 0 -236 -106v-2q-42 -37 -55 -45v-2q-206 -192 -452 -621q-45 -78 -78 -134t-87 -142.5t-99 -150.5t-106.5 -144t-116.5 -137t-123 -116t-131.5 -95t-136 -59t-142.5 -23q-187 0 -334 80.5 t-230 227.5t-83 335zM61 324q0 -252 158.5 -407t407.5 -155q64 0 131.5 23.5t127.5 61t124.5 96t117 116.5t111 135.5t100.5 139.5t92 142.5t78.5 130.5t67 116.5t51.5 89.5q132 225 279 406q7 7 2.5 16.5t-15.5 9.5q-72 2 -161 28t-174.5 62.5t-172 73t-179 61.5t-169.5 25 q-107 0 -206.5 -34t-175.5 -94.5t-121.5 -149.5t-45.5 -191q0 -53 11 -96q0 -6 5 -10t11 -2h21q125 0 245 -56q130 -61 201 -170q8 -12 21 -6q89 39 137.5 112t48.5 163q0 34 -14.5 73.5t-40.5 77t-69.5 62t-94.5 24.5q-28 0 -39 25t12 51q6 6 12 6h17q63 0 117 -26 q62 -30 100.5 -79.5t60 -106t21.5 -107.5q0 -114 -63 -208t-173 -143q-12 -4 -8 -18q14 -49 14 -109q0 -102 -42 -195t-133 -167.5t-218 -102.5q-17 -4 -31.5 5t-17.5 26q-5 15 4.5 30t26.5 19q156 34 243 142.5t87 242.5q0 36 -11 82q-4 16 -18 13q-54 -11 -105 -11 q-101 -1 -185 43q-128 66 -189 203q-5 10 -21 10q-161 -41 -266 -184t-105 -315zM546 826.5q-5 -8.5 1 -17.5q51 -87 137 -129q66 -33 146 -32q25 0 51 3q9 2 12.5 11.5t-2.5 17.5q-57 68 -146.5 108.5t-183.5 45.5q-10 1 -15 -7.5z" />
<glyph unicode="C" horiz-adv-x="2267" d="M-20 834q0 82 27.5 163.5t80.5 145.5q135 168 385 168q90 0 199.5 -26t193 -57t203.5 -80q9 -4 14.5 -6.5t13.5 -5.5t15 -6q11 -4 18 7q163 202 395 318t441 116h2q159 0 260 -88t101 -236q0 -100 -38 -190t-114 -149.5t-172 -59.5q-122 0 -203 78q-4 4 -14 4 q-80 -21 -172 -21q-170 0 -453 113q-14 3 -20 -6q-193 -280 -193 -635q0 -226 106.5 -371.5t299.5 -202.5q99 -30 207 -30q94 0 175 26.5t136.5 70.5t95 101.5t58 119.5t18.5 124q0 98 -47.5 162.5t-136.5 64.5q-34 0 -74 -19t-79 -54.5t-65 -97t-26 -136.5q0 -18 2 -36.5 t4.5 -31.5t5 -23.5t4.5 -16.5l2 -6q5 -15 -2 -30.5t-22 -21.5q-17 -6 -32 1.5t-21 23.5l-3 8q-2 7 -5 20t-6.5 29.5t-6 39t-2.5 44.5q0 81 24 149t61 111t82 73t85.5 43t73.5 13q124 0 195 -88.5t71 -220.5q0 -94 -37 -186t-105 -168t-178.5 -123t-244.5 -47q-120 0 -230 35 q-218 63 -341.5 229.5t-123.5 421.5q0 363 193 661q4 6 2 14t-8 11q-131 53 -204.5 80.5t-183 54.5t-194.5 27q-209 0 -321 -137q-91 -112 -91 -258q0 -132 96.5 -229t235.5 -97q122 0 202.5 82t80.5 184q0 46 -19.5 84t-49.5 60.5t-63.5 34.5t-64.5 12q-17 0 -29 12t-12 29 t13 29t30 12q105 0 191 -76.5t86 -196.5q0 -87 -45.5 -166t-130.5 -130.5t-189 -51.5q-175 0 -294 121t-119 287zM1214 1097q2 -9 9 -12q247 -94 393 -94q61 0 108 8q8 2 12 9t1 14q-21 46 -21 96q0 92 52.5 148.5t119.5 56.5q56 0 93.5 -41.5t37.5 -112.5q0 -69 -39 -122 q-39 -52 -96 -80v-2q56 -35 121 -35q74 0 131 50t84 121t27 146q0 113 -77.5 177.5t-201.5 64.5h-2q-181 0 -388 -100t-361 -277q-5 -6 -3 -15zM1810 1178q-11 -27 -12 -56q0 -38 19 -80q8 -15 22 -8q98 52 98 135q0 72 -49 72q-52 -1 -78 -63z" />
<glyph unicode="D" horiz-adv-x="2877" d="M-20 324q0 200 123 366t313 213q4 0 4 6q-12 59 -12 117q0 157 86.5 284.5t230.5 197t313 69.5q78 0 168 -22.5t172.5 -55.5t162 -67.5t162 -63.5t146.5 -37q29 -4 56 -5q82 0 143 42q184 172 342 172q101 0 189 -51t153 -146q125 -188 125 -479q0 -150 -37.5 -298.5 t-103 -277.5t-158.5 -240t-201.5 -190t-234.5 -124t-254 -45q-90 0 -160.5 26.5t-113.5 71t-65 99.5t-22 116q0 126 80 230t185 104q20 0 33 -16.5t7 -36.5q-10 -29 -40 -29q-67 0 -125 -80t-58 -172q0 -100 72.5 -165.5t206.5 -65.5q173 0 340.5 92t291 241.5t199.5 350.5 t76 409q0 268 -113 434q-108 160 -272 160q-103 0 -236 -106q-35 -35 -55 -49q-192 -179 -401 -533q-7 -13 -24.5 -42.5t-26.5 -45.5q-63 -110 -110 -188t-122 -191.5t-141 -196.5t-151 -168t-167 -141q-168 -116 -329 -116q-187 0 -334.5 81t-230 228t-82.5 334zM61 324 q0 -252 158.5 -407t407.5 -155q81 0 167 37.5t160 95.5t153.5 144.5t139.5 166.5t126.5 182t107 169.5t87.5 149.5q6 11 9 16q15 30 51 90q146 245 293 422q3 3 1.5 6.5t-5.5 3.5q-10 -1 -21 -1q-26 0 -57 5q-68 9 -153 38.5t-164.5 63.5t-160.5 67t-166 55t-157 22 q-108 0 -207.5 -34.5t-175.5 -95t-121 -149t-45 -190.5q0 -50 13 -104q0 -7 6 -7q16 1 32 1q124 0 244 -55q134 -62 203 -177q5 -5 8 -2q92 38 143.5 113t51.5 166q0 34 -14.5 73.5t-40.5 77t-69.5 62t-94.5 24.5q-28 0 -38.5 27t15.5 53q0 2 4 2h16q50 0 96 -16 q52 -19 89.5 -52.5t65 -76.5t40.5 -88t13 -86q0 -117 -65 -211.5t-179 -141.5q-5 -5 -2 -8q16 -59 16 -117q0 -100 -41 -193t-132.5 -168.5t-219.5 -103.5q-17 -4 -31.5 5t-17.5 26q-5 15 4.5 30t26.5 19q156 34 243 142.5t87 242.5q0 45 -13 92q-5 5 -8 5q-60 -13 -119 -13 q-123 0 -221.5 68.5t-150.5 185.5q-4 4 -7 4q-165 -38 -273 -182t-108 -319zM537 825q44 -83 119.5 -129.5t164.5 -46.5q41 0 78 6q3 0 4.5 3.5t-0.5 5.5q-58 80 -157 125t-203 47q-3 0 -5 -4t-1 -7z" />
<glyph unicode="E" horiz-adv-x="1705" d="M-20 1163q0 82 32.5 164t91 150t152.5 110.5t207 42.5q78 0 165 -21.5t186.5 -66.5t170.5 -81.5t180 -98.5q10 -7 21 4q71 78 168.5 119t206.5 41q105 0 177 -66t72 -168q0 -86 -61 -147.5t-147 -61.5q-67 0 -157.5 39.5t-232.5 118.5q-11 5 -22 -6q-54 -97 -54 -196 q0 -56 17 -113q3 -9 14 -13q64 -3 133 -32q15 -6 21.5 -22.5t-0.5 -33.5q-7 -13 -23.5 -18.5t-29.5 0.5q-69 27 -123 27q-150 0 -286 -77.5t-219 -209t-83 -279.5q0 -101 33 -191t93.5 -158t154 -108t206.5 -40q82 0 159.5 25.5t136.5 68t104 94.5t68.5 107.5t23.5 105.5 q0 111 -71.5 176.5t-170.5 65.5q-88 0 -144 -54t-56 -151q0 -17 -12 -29t-29 -12q-17 2 -29 14t-12 29q1 132 82 208.5t200 76.5q81 0 153.5 -36t121.5 -111.5t49 -176.5q0 -80 -45 -166t-120 -156t-183.5 -115.5t-225.5 -45.5q-175 0 -306.5 81.5t-197 211.5t-65.5 286 q0 116 47 226.5t125.5 195t185 142.5t222.5 75q6 1 10 8t2 13q-13 56 -13 110q0 122 66 236q7 14 -6 22q-100 57 -169.5 93t-160.5 77t-171 61.5t-150 20.5q-98 0 -178 -37t-127 -96t-72 -124t-25 -128q0 -141 83.5 -232t213.5 -91q122 0 204.5 73.5t82.5 169.5 q0 84 -56.5 142.5t-125.5 58.5q-17 0 -29 12t-12 31q0 17 12 28t29 11q104 0 184 -82t80 -201q0 -129 -106.5 -227t-262.5 -98q-164 0 -271 114t-107 291zM1249 1315q262 -150 353 -150q52 0 89.5 37.5t37.5 89.5q0 67 -48.5 109.5t-119.5 42.5q-193 0 -312 -129z" />
<glyph unicode="F" horiz-adv-x="2189" d="M-20 326q0 197 120 360.5t306 214.5q6 2 9.5 7.5t2.5 11.5q-10 44 -10 108q0 156 86.5 282.5t230.5 196.5t313 70q77 0 177.5 -31t184 -70.5t207 -97t205.5 -90.5q12 -4 19 6q87 108 182 171.5t211 70.5q11 1 21 0q95 0 163 -49q76 -55 76 -150q0 -71 -45 -121 t-111.5 -71t-146.5 -21q-139 0 -317 60q-12 4 -19 -6q-101 -141 -227 -387q-3 -8 1 -15.5t13 -7.5h258q19 0 31 -13t10 -30q0 -17 -12 -28t-29 -11h-315q-11 0 -14 -10q-48 -95 -89.5 -173t-104.5 -183t-121.5 -186.5t-134 -167t-149 -143t-160.5 -96.5t-173 -44 q-22 -1 -44 -1q-158 0 -289 70q-149 80 -232.5 232t-83.5 342zM61 326q-1 -255 159 -415q148 -148 369 -148q18 0 36 1q74 4 150.5 39t142 88t134 131t122 153t110.5 169t95.5 164.5t80.5 153.5q5 8 0 16t-14 8h-94q-28 0 -38.5 25t13.5 51q3 6 12 6h166q10 0 15 8 q136 269 241 424q5 6 2 14t-10 11q-81 33 -247 112t-275 118.5t-193 39.5q-146 0 -271 -58.5t-201.5 -166.5t-76.5 -242q0 -55 11 -98q0 -12 16 -12h21q125 0 245 -56q130 -61 201 -170q8 -12 21 -6q89 41 137.5 114t48.5 161q0 34 -14.5 73.5t-40.5 77t-69.5 62t-94.5 24.5 q-28 0 -39 26t12 52q8 4 12 4h17q62 0 117 -26q62 -30 100.5 -79t60 -105.5t21.5 -108.5q0 -114 -63 -206.5t-173 -142.5q-11 -7 -8 -20q14 -49 14 -109q0 -100 -41 -193t-132.5 -168.5t-219.5 -103.5q-17 -4 -31.5 5t-17.5 26q-4 17 4.5 30.5t26.5 18.5q156 35 243 143 t87 242q0 36 -11 82q-3 17 -18 13q-64 -11 -111 -11q-122 0 -219 66t-149 180q-7 14 -21 10q-105 -26 -190.5 -101t-133 -179.5t-47.5 -216.5zM547 811q44 -75 115.5 -118.5t158.5 -43.5q24 0 60 4q9 0 12.5 9.5t-2.5 17.5q-56 69 -146.5 110t-183.5 46q-4 -7 -7 -12.5 t-7 -12.5zM1919 1259q3 -9 10 -12q138 -41 250 -41q18 0 38.5 1.5t56 9t62 20t46.5 39t20 61.5q0 59 -52 89q-47 28 -110 28h-12q-156 -7 -307 -180q-5 -6 -2 -15z" />
<glyph unicode="G" horiz-adv-x="2267" d="M-20 815q0 81 28 162.5t80 144.5q133 170 385 170q46 0 92.5 -5t103 -19.5t91 -23t104 -34.5t91 -34.5t103.5 -41.5t93 -38q11 -4 18 6q151 194 366.5 321t432.5 127q160 0 260.5 -87.5t100.5 -235.5q0 -99 -38 -188.5t-114 -149.5t-172 -60q-122 0 -203 78q-9 5 -14 2 q-73 -18 -147 -20h-19q-64 0 -130 12q-75 14 -141 34t-147 52q-11 3 -20 -6q-185 -278 -185 -594q0 -281 197 -401q48 -29 103 -46t85 -20l31 -2q2 0 20 -1t32.5 -1t41.5 3t52 9t60 18.5t69 30.5q209 113 395 404q10 16 35.5 59.5t40.5 67.5q9 13 25.5 17.5t29.5 -3.5 q15 -9 19.5 -25.5t-3.5 -29.5q-16 -29 -71 -121.5t-99.5 -173t-143 -281t-222.5 -473.5q-72 -158 -107.5 -233.5t-94 -191.5t-109.5 -196.5t-105 -146.5q-123 -151 -268 -218q-124 -58 -277 -58q-27 0 -55 2q-122 9 -231.5 58.5t-194.5 132.5t-132 207q-44 114 -44 247v23 q4 124 40.5 237.5t103.5 205t156 158t204 99.5q90 25 187 25q27 0 54 -2q180 -13 314 -97.5t186 -236.5q25 -74 25 -148v-16q-9 -196 -129 -303q-61 -53 -145 -74q-51 -13 -101 -13q-31 0 -62 5q-17 3 -27 16.5t-7 30.5q1 17 15 27t32 8q26 -4 51 -4l77 9q64 15 111 56 q46 40 73 104t30 142v15q0 67 -24 129q-26 69 -80 126.5t-143 95.5t-202 46q-24 2 -48 2q-113 0 -214 -39q-122 -48 -206.5 -136.5t-134.5 -211t-54 -261.5v-22q0 -114 38 -213q41 -108 114 -180t169 -115t205 -51q24 -1 47 -1q135 0 243 49q128 59 241 196q67 83 142 215 t122.5 232.5t140.5 303.5q140 312 233 498q5 11 -5 19t-19 1q-63 -45 -102 -65q-39 -21 -79.5 -35.5t-69.5 -21.5t-60.5 -10.5t-47.5 -4t-36 0.5l-21 1q-42 0 -116.5 18.5t-143.5 61.5q-237 144 -237 471q0 330 186 619q3 6 1 13.5t-9 10.5q-12 5 -68.5 27.5t-73.5 29.5 t-67.5 26.5t-73.5 26.5t-67.5 22t-72.5 20.5t-65.5 13.5t-70 11t-64.5 3q-210 0 -321 -139q-43 -52 -67 -120t-24 -136q0 -132 96.5 -229t235.5 -97q122 0 202.5 82t80.5 183q0 61 -33.5 106.5t-77 64.5t-86.5 19q-17 0 -29 13t-12 30t13 29t30 10q104 0 190.5 -75.5 t86.5 -196.5q0 -87 -45.5 -165.5t-130.5 -129.5t-189 -51q-175 0 -294 120.5t-119 286.5zM1253.5 1063.5q2.5 -7.5 10.5 -10.5q137 -52 244 -72q53 -10 107 -10t109 10q8 2 12 9t1 14q-21 47 -21 94q0 67 30 117.5t72 71.5q34 17 71 17h16q46 -5 77 -40q37 -43 37 -115 q0 -119 -112 -188q-7 -6 -6.5 -15t8.5 -14q47 -21 96 -21q73 0 130 50t84.5 121t27.5 145q0 115 -77 178t-202 63q-189 0 -381 -111t-330 -280q-6 -6 -3.5 -13.5zM1800 1118q-1 -7 -1 -15q0 -37 18 -79q8 -15 22 -8q98 48 98 133q0 74 -49 74q-34 0 -59 -30.5t-29 -74.5z " />
<glyph unicode="H" horiz-adv-x="2320" d="M-20 324q0 198 120 362t306 213q6 1 10 8t2 13q-10 44 -10 106q0 157 86.5 284.5t230.5 197t313 69.5q79 0 183.5 -33.5t194 -76t215 -100.5t216.5 -91v-2q22 -4 29.5 -25.5t-6.5 -38.5q-112 -149 -252 -419q-4 -9 0.5 -17t13.5 -8h594q11 0 15 8q51 95 100.5 177 t113 172t126.5 163.5t139.5 143t155 119t170 83.5t186.5 43q17 2 30.5 -9t14.5 -30q1 -15 -10.5 -28t-26.5 -15q-94 -9 -185.5 -47t-168 -87.5t-158 -135.5t-142 -158.5t-133.5 -191.5t-119.5 -199.5t-114 -217.5t-101.5 -210t-97 -211q-16 -33 -61 -130t-70 -146 q-7 -15 -23 -21t-30 0q-15 8 -21 24.5t1 31.5q61 129 129 276q179 382 235 489q3 9 -1 17t-13 8h-592q-10 0 -14 -8q-187 -370 -340 -576q-296 -402 -592 -419q-20 -1 -40 -1q-160 0 -293 72q-149 81 -232.5 232t-83.5 340zM61 324q0 -166 72 -298q71 -131 201 -202 q115 -63 255 -63q18 0 36 1q256 15 530 385q92 125 178 275.5t142.5 268t134 259.5t151.5 248q4 8 2 15t-10 10q-80 33 -246 112.5t-275.5 119.5t-193.5 40q-108 0 -207.5 -34.5t-175.5 -95t-121 -149t-45 -190.5q0 -53 11 -96q0 -6 5 -10.5t11 -4.5q12 1 25 1 q123 0 241 -55q130 -60 201 -169q7 -13 21 -6q89 39 137.5 113t48.5 162q0 34 -14.5 73.5t-40.5 77t-69.5 62t-94.5 24.5q-18 0 -30 12.5t-11 30.5q0 17 12 28t29 11q69 0 128 -31t95.5 -79t57 -103t20.5 -106q0 -115 -63 -208t-173 -143q-12 -4 -8 -18q14 -49 14 -111 q0 -159 -103.5 -290.5t-289.5 -172.5q-17 -4 -31.5 5t-17.5 26q-5 15 4.5 30t26.5 19q168 38 256 160q74 99 74 223q0 38 -11 84q-4 16 -18 13q-48 -11 -111 -11q-122 0 -219 66t-149 180q-6 12 -21 8q-105 -26 -190.5 -101t-133 -179.5t-47.5 -216.5zM546 826.5 q-5 -8.5 1 -17.5q44 -74 115.5 -117t158.5 -43q42 0 60 2q9 1 12.5 11t-2.5 16q-56 69 -146.5 110t-183.5 46q-10 1 -15 -7.5z" />
<glyph unicode="I" horiz-adv-x="1615" d="M-20 324q0 153 72.5 289t202 220.5t282.5 84.5q72 0 144.5 -18.5t137 -56t114.5 -89t79.5 -122.5t29.5 -151q0 -159 -103.5 -290.5t-289.5 -172.5q-17 -4 -31.5 5t-17.5 26q-5 15 4.5 30t26.5 19q156 34 243 142t87 241q0 106 -64 189t-159.5 124.5t-200.5 41.5 q-130 0 -241 -73t-173 -190.5t-62 -248.5q0 -252 158.5 -407t407.5 -155q81 0 157.5 30t136 69.5t126 121t109 141.5t105 176.5t94 180t94.5 195.5q1 1 1 2q85 179 149 301t132 221q3 6 0.5 14t-9.5 11q-54 24 -130.5 68.5t-130.5 76t-123 56t-128 24.5q-161 0 -249.5 -80.5 t-88.5 -202.5q0 -50 19.5 -99t66 -86.5t109.5 -37.5q94 0 153.5 53t59.5 123q0 53 -23.5 87t-72.5 40q-17 1 -28 14.5t-9 30.5t15 27.5t30 7.5q81 -9 125.5 -66.5t44.5 -140.5q0 -127 -105 -200q-79 -57 -178 -57q-16 0 -33 2q-127 12 -197 106q-58 79 -58 196 q0 156 112.5 260.5t306.5 104.5q76 0 160 -31.5t157 -75t146 -85.5t153 -68q63 -20 122 -20q16 0 32 1q17 2 30.5 -8.5t14.5 -27.5q2 -18 -8.5 -31.5t-27.5 -14.5t-34 -1q-60 0 -124 16q-11 0 -16 -8q-48 -67 -102 -164t-90.5 -170.5t-98.5 -202.5q-146 -304 -217 -428 q-192 -334 -399 -454q-132 -78 -281 -78q-139 0 -258.5 46.5t-205 130t-134.5 204t-49 262.5z" />
<glyph unicode="J" horiz-adv-x="1785" d="M-20 154q0 168 83.5 319t230 243.5t316.5 92.5q102 0 196 -32t167.5 -91t117.5 -150.5t44 -201.5q0 -146 -80 -281q-8 -12 6 -22q107 -60 170 -99q15 -7 22 7q87 131 178.5 317.5t156 343.5t143.5 330t143 276q4 6 2 13t-8 10q-13 7 -66.5 34.5t-76 39t-72.5 34.5t-83 35 t-78.5 26t-86.5 21q-46 8 -88 8q-86 0 -154 -33q-101 -50 -123 -173q-4 -23 -4 -44q0 -65 36 -114q49 -65 124 -78q17 -3 34 -3q56 0 97 36q49 43 49 108v7q0 17 12 30.5t29 14.5q17 0 29 -12t12 -29v-12q0 -100 -76 -169q-63 -56 -147 -56q-25 0 -51 5q-112 19 -178 112 q-50 71 -50 158q0 28 5 58q25 144 145 221q85 54 206 54q50 0 107 -9q56 -9 111 -26t112 -42t94.5 -43t98.5 -50t84 -44q13 -6 20 4q117 145 243 145q19 0 38 -3q63 -11 100 -46q29 -29 29 -70q0 -10 -2 -21q-13 -72 -98 -119q-60 -33 -133 -33q-30 0 -62 6q-34 5 -82 25 q-14 4 -20 -8q-93 -143 -260 -537q-68 -160 -112 -258t-115 -237.5t-138 -241.5q-5 -6 -3 -13t9 -10q9 -5 28 -15.5t28 -15.5q15 -7 20.5 -23.5t-2.5 -31.5q-8 -14 -24 -18.5t-31 2.5t-40 20.5t-30 16.5q-12 6 -20 -5q-266 -348 -588 -348q-315 0 -506 197 q-188 191 -188 498zM61 154q0 -274 164 -441q169 -172 449 -172q279 0 512 303q5 4 3.5 12t-7.5 11q-13 7 -77.5 44.5t-96.5 55.5q-10 7 -21 -4q-75 -79 -172 -129.5t-194 -50.5q-103 0 -163.5 56t-60.5 138q0 83 59.5 148t155.5 65q146 0 349 -104q14 -7 20 6 q72 110 72 242q0 93 -37 169t-99.5 124t-141.5 74t-165 26q-112 0 -215 -48.5t-175.5 -128t-115.5 -183.5t-43 -213zM479 -23q0 -55 40 -83.5t102 -28.5q72 0 148 37t136 96q6 6 5 14t-9 13q-171 84 -289 84q-61 0 -97 -40.5t-36 -91.5zM2021.5 1257.5q2.5 -8.5 10.5 -10.5 q46 -14 83 -14q21 0 39 5q51 11 79.5 34t31.5 45q3 18 -15.5 28.5t-43.5 14.5q-12 2 -23 2q-79 0 -158 -88q-6 -8 -3.5 -16.5z" />
<glyph unicode="K" horiz-adv-x="2336" d="M-20 324q0 131 55 252t155.5 208t225.5 117q4 4 4 6q-13 63 -13 123q-1 46 7 88q16 100 73.5 184t139 145t188.5 95.5t223 34.5q81 0 201 -35t228 -80.5t256.5 -104.5t254.5 -91q23 -7 29.5 -29t-8.5 -39q-36 -41 -70 -84.5t-68 -92.5t-58 -84.5t-57.5 -90t-47.5 -78 t-46.5 -79.5t-37.5 -64q-2 -3 0.5 -6.5t5.5 -2.5q65 21 184 37q47 7 68.5 10.5t64.5 13t67.5 20t62.5 29.5t65.5 43t60.5 60t62 80q87 132 163 231t173.5 198t196.5 164.5t223.5 112t263.5 60.5q17 2 30.5 -9t14.5 -28q2 -17 -9 -30.5t-28 -14.5q-128 -13 -242.5 -55.5 t-207.5 -104t-185 -154.5t-166 -189t-160 -226q-33 -50 -70 -90.5t-70 -68t-74 -49.5t-71 -34.5t-74 -23t-69.5 -15t-70.5 -10.5q0 -2 -2 -8q49 -43 81.5 -116.5t47.5 -173t20.5 -191t5.5 -209.5q0 -115 47 -165t144 -50q46 0 94 24t68 58q13 27 45 20q20 -6 27.5 -25 t-3.5 -36q-31 -52 -97 -87.5t-134 -35.5q-136 0 -204.5 78t-68.5 219q0 92 -3 159t-13.5 172.5t-38.5 182.5t-72 115q-40 35 -95 35q-12 0 -25 -2q-6 -3 -9 0q-2 0 -2 -2q-56 -17 -110 -62l-2 -2q-144 -236 -283 -405q-323 -385 -614 -385q-284 0 -465 178 q-182 182 -182 465zM61 324q0 -250 158 -408q80 -76 185.5 -115t222.5 -39q255 0 551 355q103 125 201 277t164 271.5t160.5 268t190.5 266.5q3 3 -2 8q-107 37 -302.5 117.5t-329 125t-222.5 44.5q-125 0 -237 -45.5t-188 -121.5t-108 -184q-17 -57 -17 -116q0 -53 14 -108 q0 -5 4 -5q16 1 32 1q126 0 246 -56q134 -63 203 -178q3 -3 6 0q93 38 145 112t52 167q0 46 -23.5 99t-76 95.5t-119.5 42.5q-18 0 -30 12t-11 29q0 17 12 29t29 12q70 -1 129 -32.5t95.5 -79.5t56.5 -102.5t20 -104.5q0 -117 -65 -212.5t-179 -142.5q-2 0 -2.5 -2t0.5 -4 q16 -59 16 -119q0 -160 -104.5 -292t-288.5 -173q-17 -3 -31.5 6.5t-17.5 24.5q-4 17 5 31.5t26 17.5q156 35 243 143.5t87 241.5q0 51 -15 94q0 5 -4 5q-73 -15 -121 -15q-124 0 -223 69.5t-149 186.5q-5 5 -7 2q-108 -24 -196 -99t-136.5 -180.5t-48.5 -219.5zM537 827 q43 -85 118 -132.5t166 -47.5q44 0 80 8q5 1 2 7q-57 80 -157.5 126t-204.5 46q-7 0 -4 -7z" />
<glyph unicode="L" horiz-adv-x="2220" d="M-20 324q0 198 120 362t306 213q15 4 12 21q-10 44 -10 106q0 119 51.5 222.5t137.5 175t201 112.5t240 41q100 0 244.5 -48t345.5 -131t314 -120q10 -4 18 4q223 258 430 258q104 0 162.5 -54t58.5 -151q0 -55 -25.5 -97t-69.5 -66t-96.5 -36t-111.5 -12q-134 0 -317 52 q-9 3 -17 -5q-114 -144 -329.5 -495.5t-319.5 -495.5q-10 -13 4 -24q56 -38 164 -116.5t176.5 -124t165.5 -98.5t194 -78.5t199 -25.5q138 0 275 47q17 6 32 -1.5t21 -24.5q5 -17 -3.5 -32t-25.5 -19q-152 -52 -299 -52q-93 0 -186 22t-166.5 53t-161 83.5t-146.5 95 t-147.5 107t-142.5 100.5q-13 6 -23 -4q-68 -85 -132 -151.5t-144 -127.5t-169.5 -94.5t-182.5 -33.5q-283 0 -465 179t-182 464zM61 324q0 -252 158.5 -407t407.5 -155q266 0 557 367q5 6 3.5 14t-7.5 11q-93 55 -183 88q-14 3 -20 -6q-60 -105 -162.5 -166.5t-216.5 -61.5 q-79 0 -128.5 49t-49.5 113q0 49 19.5 85t50 57.5t75.5 34.5t89 17.5t98 4.5q86 0 172 -21q12 -3 20 12q17 66 17 121q0 38 -11 84q-3 13 -18 13q-57 -13 -111 -13q-121 0 -218.5 67t-149.5 181q-8 11 -21 8q-105 -26 -190.5 -101t-133 -179.5t-47.5 -216.5zM489 1026 q0 -53 11 -98q0 -5 5 -9t11 -4q12 1 25 1q122 0 241 -55q131 -60 201 -169q6 -12 21 -8q89 41 137.5 114.5t48.5 162.5q0 33 -14 72.5t-40 77t-69.5 62.5t-95.5 25q-14 0 -26 9t-15 22q-4 20 8.5 35.5t32.5 15.5q56 0 106 -20.5t84.5 -54t60 -75.5t38 -85.5t12.5 -83.5 q0 -115 -63 -208t-173 -143q-11 -7 -8 -20q14 -49 14 -109q0 -78 -20 -145q-4 -14 10 -21q89 -32 201 -98q12 -8 20 4q105 145 313.5 484.5t317.5 482.5q5 6 2 14.5t-10 9.5q-103 36 -296 116t-323.5 123.5t-218.5 43.5q-146 0 -271.5 -59.5t-201.5 -168t-76 -241.5z M502 170q0 -29 24.5 -54.5t71.5 -25.5q85 0 162.5 42.5t128.5 117.5q6 6 2.5 14t-12.5 10q-67 13 -127 13q-78 0 -130.5 -9.5t-77 -28t-33.5 -36.5t-9 -43zM546 825q-5 -9 1 -16q44 -75 116 -118.5t158 -43.5q24 0 60 4q9 2 12.5 10.5t-2.5 16.5q-56 69 -146.5 110 t-183.5 46q-10 0 -15 -9zM2052.5 1253q2.5 -9 11.5 -12q131 -35 244 -35q24 0 51.5 3.5t71 14.5t71 39.5t27.5 71.5q0 123 -139 123q-156 0 -334 -190q-6 -6 -3.5 -15z" />
<glyph unicode="M" horiz-adv-x="2592" d="M-20 326q0 129 54 249t151.5 207t220.5 119q6 2 9.5 7.5t2.5 11.5q-10 44 -10 108q0 156 86.5 282.5t230.5 196.5t313 70q79 0 184 -33t193.5 -75.5t215 -101t216.5 -91.5q22 -6 29 -26.5t-6 -39.5q-82 -105 -141 -239q-117 -258 -117 -537q0 -200 14 -336q1 -9 7.5 -13 t13.5 -1.5t10 10.5q157 451 347 784t357 511q241 256 506 286q17 3 30.5 -7t16.5 -26q2 -18 -6.5 -31t-25.5 -16l-4 -1q-3 -1 -7.5 -3t-11.5 -5.5t-15.5 -8.5t-18.5 -11t-21.5 -15t-23.5 -19t-26 -24t-28 -29q-186 -209 -301 -637q-69 -249 -72 -514v-6q0 -350 111 -610 q112 -262 258 -304q17 -4 25 -19t3 -32q-3 -12 -14 -20.5t-24 -8.5q-9 0 -13 2q-120 35 -218 175q-99 139 -155 357q-56 214 -55 457v9q3 271 74 534q101 369 252 584q8 11 -2.5 20t-22.5 2q-77 -58 -151 -135q-152 -163 -305.5 -429t-265 -532.5t-181.5 -506.5 q-3 -11 -13 -19.5t-22 -9.5q-24 -3 -39 19q-21 42 -34 118q-31 172 -31 461q0 60 6 125q0 12 -12.5 16t-18.5 -8q-165 -307 -284 -467q-297 -400 -592 -417q-20 -1 -40 -1q-161 0 -293 72q-148 81 -232 231.5t-84 340.5zM61 326q-1 -255 159 -415q148 -148 369 -148 q18 0 36 1q253 12 530 386q92 124 178 274.5t143 268t134.5 259.5t150.5 248q5 6 2 14t-10 11q-78 32 -245.5 112t-276.5 119t-193 39q-108 0 -207.5 -34t-175.5 -94t-121 -148.5t-45 -190.5q0 -53 11 -98q0 -12 16 -12h21q126 0 246 -56q130 -60 200 -170q6 -10 21 -6 q89 41 137.5 114.5t48.5 162.5q0 46 -23.5 99t-76 95.5t-119.5 42.5q-18 0 -30 12t-11 29q0 17 12 29t29 12q56 -1 105.5 -21.5t84.5 -54t60.5 -75t38 -85t12.5 -83.5q0 -115 -63 -208t-173 -143q-11 -7 -8 -20q14 -49 14 -109q0 -150 -90 -272q-109 -149 -303 -193 q-18 -3 -32 5.5t-17 25.5q-4 17 5 31.5t26 17.5q165 37 256 160q74 104 74 225q0 35 -11 84q-4 15 -18 11q-64 -11 -111 -11q-121 0 -218.5 67t-149.5 181q-8 11 -21 8q-105 -26 -190.5 -101t-133 -179.5t-47.5 -216.5zM547 811q44 -75 115.5 -118.5t158.5 -43.5q24 0 60 4 q9 2 12.5 10.5t-2.5 16.5q-56 69 -146.5 110t-183.5 46q-4 -7 -7 -12.5t-7 -12.5z" />
<glyph unicode="N" horiz-adv-x="2136" d="M-20 326q0 129 54 249t151.5 207t220.5 119q6 2 9.5 7.5t2.5 11.5q-10 44 -10 108q0 156 86.5 282.5t230.5 196.5t313 70q79 0 184 -33t193.5 -75.5t215 -101t216.5 -91.5q24 -7 31 -31q3 -21 -8 -35q-24 -31 -68 -103.5t-73 -135.5q-115 -254 -115 -537q0 -232 22 -377 q2 -12 14 -14t17 10q182 444 395 764q62 94 118 171.5t127 164.5t139 155.5t150.5 134.5t164.5 112.5t178.5 79t195.5 42.5q17 2 31 -9t15 -28q2 -17 -9 -30.5t-28 -14.5q-108 -11 -211 -49.5t-195 -101.5t-173.5 -135.5t-161 -167.5t-142 -180t-131.5 -189 q-77 -118 -152 -256t-125 -244.5t-92.5 -207.5t-59 -144.5t-20.5 -56.5q-10 -27 -39 -27q-18 0 -32 17q-25 38 -43 120q-35 169 -35 461q0 41 4 127q1 13 -12 17t-19 -7q-147 -284 -284 -471q-297 -400 -592 -417q-20 -1 -40 -1q-161 0 -293 72q-148 81 -232 231.5 t-84 340.5zM61 326q-1 -255 159 -415q148 -148 369 -148q18 0 36 1q253 12 530 386q92 124 178 274.5t143 268t134.5 259.5t150.5 248q5 6 2 14t-10 11q-78 32 -245.5 112t-276.5 119t-193 39q-144 0 -269 -57.5t-202.5 -166t-77.5 -243.5q0 -53 11 -98q0 -12 16 -12h21 q125 0 245 -56q130 -60 201 -170q6 -10 21 -6q89 41 137.5 114.5t48.5 162.5q0 46 -23.5 99t-76 95.5t-119.5 42.5q-17 0 -29 12t-12 29t12 29t29 12q136 0 225 -115q35 -44 55.5 -99t20.5 -105q0 -115 -63 -208t-173 -143q-11 -7 -8 -20q14 -49 14 -109q0 -103 -43 -196.5 t-134 -167t-216 -101.5q-18 -3 -32 5.5t-17 25.5q-4 17 5 31.5t26 17.5q156 35 243 143.5t87 241.5q0 35 -11 84q-4 15 -18 11q-64 -11 -111 -11q-121 0 -218.5 67t-149.5 181q-8 11 -21 8q-105 -26 -190.5 -101t-133 -179.5t-47.5 -216.5zM547 811q44 -75 116 -118.5 t158 -43.5q24 0 60 4q9 2 12.5 10.5t-2.5 16.5q-56 69 -146.5 110t-183.5 46q-4 -7 -7 -12.5t-7 -12.5z" />
<glyph unicode="O" horiz-adv-x="1542" d="M-401 47q4 15 19 23.5t30 5.5q103 -29 202 -29q88 0 173 23q6 2 9.5 8t0.5 12q-49 134 -49 301q0 136 34.5 277.5t97.5 274.5t159 250.5t212 205.5t263.5 139t306.5 51q17 0 29 -11.5t14 -27.5q0 -19 -12 -31t-29 -12q-148 0 -284.5 -48t-243.5 -130.5t-196 -192 t-147 -234t-90 -255.5t-32 -256q0 -148 45 -272q3 -17 22 -10q90 42 166 90q12 8 6 20q-26 79 -26 187q0 115 33.5 236.5t98 232.5t149.5 199.5t197.5 141t233.5 52.5q127 0 229 -51t166.5 -140t99 -204t34.5 -246q0 -172 -56 -338.5t-159 -296.5q-118 -149 -283 -229 t-363 -80q-335 0 -514 211q-27 31 -65 94q-7 11 -19 8q-104 -32 -212.5 -32t-221.5 32q-17 4 -25 19t-3 32zM160 25q-2 -7 2 -13q22 -37 45 -65q158 -183 452 -183q358 0 582 279q95 122 146 276t51 308q0 114 -28 213.5t-81.5 177.5t-140.5 123t-197 45q-106 0 -205.5 -48 t-175 -129t-133 -181.5t-87.5 -210t-30 -211.5q0 -70 15 -132q2 -8 10 -11t14 1q113 73 197 110.5t174 37.5q79 0 143 -22t106 -71t42 -118q0 -102 -94 -182t-244 -80q-256 0 -369 180q-11 11 -22 4q-77 -47 -164 -88q-6 -3 -8 -10zM422 162q95 -142 301 -142 q116 0 186 56.5t70 124.5q0 45 -33.5 75.5t-78.5 42t-97 11.5q-54 0 -116.5 -23t-104.5 -47.5t-121 -75.5q-14 -7 -6 -22z" />
<glyph unicode="P" horiz-adv-x="2648" d="M-20 326q0 178 93.5 332.5t250.5 220.5q11 7 8 20q-21 82 -21 150q0 143 76.5 264t210 192.5t293.5 71.5q84 0 184.5 -25.5t193 -62.5t182 -74t178.5 -62.5t155 -25.5q82 0 135 39q2 0 2 2q174 174 326 174q71 0 144.5 -27t142.5 -80.5t119 -146.5t63 -211q3 -24 3 -49 q1 -59 -15 -122q-22 -89 -71 -170.5t-117.5 -153.5t-159.5 -120q-90 -48 -190 -70q-53 -12 -113 -12q-51 0 -105 8q-118 18 -234 81q-15 7 -19.5 23.5t3.5 31.5q7 15 23.5 20t31.5 -3q105 -55 209 -71q47 -7 91 -8q53 0 101 11q88 20 167.5 63t139 106.5t101.5 134.5t60 147 q13 55 14 105q0 19 -2 38q-9 86 -40.5 155.5t-73 112.5t-92 72.5t-95.5 41t-86 11.5q-71 0 -149.5 -51t-143 -124.5t-131 -173.5t-109.5 -178t-82 -159q-148 -308 -225 -443q-282 -500 -570 -613q-88 -35 -178 -35q-188 0 -342.5 79.5t-245.5 227.5t-91 336zM61 326 q0 -166 81 -295.5t216.5 -198t300.5 -68.5q84 0 168.5 39t156.5 102.5t143 151t127.5 176.5t110.5 187.5t92 176t72 148.5q21 46 30 64q123 249 239 410q6 7 1 16.5t-15 9.5q-73 0 -165.5 25.5t-183 62.5t-182 74t-188 62.5t-174.5 25.5q-209 0 -353.5 -131t-144.5 -315 q0 -62 19 -127q3 -13 18 -13q46 8 92 9q96 0 194 -38q146 -54 226 -171q3 -6 10 -8t13 1q66 41 104.5 104t38.5 138q0 99 -75 176.5t-179 77.5q-27 0 -37.5 26t12.5 52q4 4 13 4h15q86 0 160 -44q81 -48 127 -126.5t46 -165.5q0 -99 -52 -181.5t-141 -133.5q-12 -8 -6 -21 q19 -62 19 -125q0 -152 -84 -274q-101 -147 -293 -191q-17 -5 -31.5 4.5t-17.5 28.5q-3 15 6 28.5t24 18.5q164 38 244 158q70 103 70 227q0 46 -13 90q-2 6 -8 10t-12 3q-65 -19 -131 -19q-124 0 -226.5 61t-162.5 169q-8 12 -21 6q-133 -56 -213 -189.5t-80 -287.5z M462 825q-4 -9 1 -16q52 -77 130.5 -118.5t170.5 -41.5q48 0 84 8q9 1 12 10.5t-2 16.5q-66 79 -172 119q-87 33 -172 33q-19 0 -39 -2q-9 0 -13 -9z" />
<glyph unicode="Q" horiz-adv-x="1505" d="M-20 315q0 132 38 269.5t108.5 258.5t162.5 217t209 152t239 56q139 0 241.5 -67.5t153 -180t50.5 -254.5q0 -147 -51.5 -301.5t-143.5 -278.5q-8 -8 0 -20q62 -68 111 -131q4 -6 12 -6.5t12 4.5q125 141 193.5 331.5t68.5 387.5q0 120 -26 229.5t-79 202.5t-127.5 161.5 t-177 107t-222.5 38.5q-17 0 -29 11t-12 28q-1 19 10.5 31t30.5 12q134 0 250 -43t200 -119.5t144 -180t90 -225t30 -253.5q0 -217 -78 -426t-219 -363q-5 -3 -5 -9t5 -11q55 -71 96 -118.5t99.5 -104t110 -90t117 -56.5t132.5 -23q63 0 121 17q18 3 32.5 -5.5t18.5 -25.5 q3 -17 -6 -31.5t-24 -17.5q-74 -18 -142 -18q-77 0 -151 24.5t-132 60t-121 94.5t-107 110t-101 124q-10 13 -25 2q-237 -202 -561 -202q-166 0 -292.5 90.5t-190 232.5t-63.5 309zM61 315q0 -145 53.5 -269t161.5 -203t250 -79q295 0 512 187q12 12 2 22q-65 83 -104 127 q-10 13 -25 2q-160 -163 -354 -163q-109 0 -173.5 59.5t-64.5 144.5q0 95 79.5 166.5t217.5 71.5q144 0 291 -133q5 -4 12.5 -3.5t12.5 5.5q78 111 123 248t45 268q0 184 -94.5 302t-268.5 118q-133 0 -259.5 -79t-216.5 -203t-145 -281t-55 -308zM401 143q0 -50 40.5 -86.5 t115.5 -36.5q157 0 299 142q11 11 0 22q-125 115 -240 115q-99 0 -157 -46t-58 -110z" />
<glyph unicode="R" horiz-adv-x="2502" d="M-20 326q0 178 93.5 332.5t250.5 220.5q11 7 8 20q-21 82 -21 150q0 143 76.5 264t210 192.5t293.5 71.5q84 0 187 -26.5t193 -63.5t187.5 -74.5t177.5 -62.5q74 -23 144 -23h11q76 2 128 39q2 0 2 2q168 171 324 174h2q198 -2 318 -125.5t120 -357.5q0 -108 -54.5 -213 t-144.5 -185q-92 -80 -222 -124q-101 -34 -207 -34q-32 0 -64 3q-10 1 -15.5 -8t0.5 -17q55 -86 75 -191t20 -237q0 -36 -1 -86q-2 -50 -2 -81v-34v-38q0 -41 3 -66t8.5 -55.5t14.5 -48.5t23.5 -37t34 -28.5t46 -16t59.5 -6.5q44 0 89 14t77 33t58 39.5t39 34t13 14.5 q11 12 28.5 13t29.5 -9q14 -11 15 -28t-11 -29q-44 -44 -72 -66q-129 -98 -266 -98q-48 0 -86.5 10t-66 25.5t-48.5 42t-33.5 53t-21 65t-11.5 70.5t-4 77v42v37q1 34 2 80.5t1 76.5q0 85 -7.5 150.5t-28 133t-62 122t-103.5 94.5q-2 0 -2 2q-67 24 -131 61q-6 3 -6 11 q-11 29 7.5 48t43.5 11q73 -26 123 -57l2 -2q117 -43 224 -43q38 0 75 6q141 20 247 89.5t168 172t62 207.5q0 197 -95.5 298t-260.5 103q-54 0 -113 -30.5t-111 -78t-106.5 -116t-97.5 -134t-88.5 -144.5t-74 -134t-57.5 -116q-37 -78 -67.5 -140.5t-76 -148.5t-86.5 -154 t-95 -147t-105 -138.5t-113.5 -117.5t-123.5 -95t-131.5 -60t-141.5 -23q-189 0 -343.5 80t-245 228t-90.5 335zM61 326q0 -167 81 -296.5t216.5 -197.5t300.5 -68q63 0 127.5 22.5t120.5 59t114 94t105.5 115t98.5 135t89 141t81 146t70 137.5t61 127q149 309 272 478 q6 7 1 16.5t-15 9.5q-73 0 -165.5 25.5t-183 62.5t-182 74t-188 62.5t-174.5 25.5q-209 0 -353.5 -131t-144.5 -315q0 -62 19 -127q3 -13 18 -13q46 8 92 9q96 0 194 -38q146 -54 226 -171q3 -6 10 -8t13 1q66 41 104.5 104.5t38.5 137.5q0 97 -76 176q-75 78 -178 78 q-17 0 -29 13t-12 30q1 17 13.5 28t29.5 11q139 0 236 -102q46 -47 72 -109t26 -125q0 -99 -52 -181.5t-141 -133.5q-12 -8 -6 -21q19 -62 19 -125q0 -166 -98.5 -295t-278.5 -170q-17 -5 -31.5 4.5t-17.5 28.5q-3 15 6 29t26 18q150 35 231 142t81 243q0 46 -13 90 q-2 6 -8 10t-12 3q-65 -19 -131 -19q-124 0 -226.5 61t-162.5 169q-8 12 -21 6q-133 -56 -213 -189.5t-80 -287.5zM462 825q-4 -9 1 -16q52 -77 130.5 -118.5t170.5 -41.5q48 0 84 8q9 1 12 10.5t-2 16.5q-66 79 -172 119q-87 33 -172 33q-19 0 -39 -2q-9 0 -13 -9z" />
<glyph unicode="S" horiz-adv-x="1806" d="M-20 1016q0 82 32 163.5t90.5 150.5t153 112t207.5 43q78 0 160 -19.5t165.5 -57t152 -73.5t161.5 -87.5t151 -80.5q8 -5 16 1.5t7 15.5v43q0 158 119 266.5t280 108.5q96 0 167 -48.5t104.5 -121t33.5 -156.5q0 -58 -22.5 -111.5t-64.5 -96t-109 -68t-150 -25.5 q-101 0 -217 37q-9 2 -16 -5.5t-4 -17.5q26 -82 77.5 -196t91.5 -198.5t71.5 -193t31.5 -202.5q0 -181 -90 -336.5t-245.5 -247.5t-338.5 -92q-119 0 -216 41t-159 111.5t-95 161t-33 192.5q0 101 33.5 194.5t94 167t154 117t205.5 43.5q179 0 282 -108t103 -269 q0 -155 -94 -265q-89 -104 -225 -104h-15q-6 0 -10 7q-23 26 -13.5 50.5t37.5 24.5q108 0 173 86t65 201q0 127 -79.5 211t-223.5 84q-123 0 -217.5 -63t-141.5 -162t-47 -215q0 -184 113 -304t309 -120q161 0 297.5 81t215.5 217.5t79 295.5q0 77 -23 162.5t-59.5 169 t-75 164.5t-76.5 176.5t-57 177.5q-3 10 -10 12q-81 36 -205.5 104.5t-211.5 115.5t-199 84.5t-207 37.5q-98 0 -178 -37.5t-127 -96.5t-72 -124.5t-25 -128.5q0 -141 83.5 -231.5t213.5 -90.5q123 0 205 73.5t82 168.5q0 85 -55.5 143t-126.5 60q-18 0 -29.5 11.5 t-11.5 29.5q0 17 12 29t29 12q103 0 183.5 -82.5t80.5 -202.5q0 -129 -106.5 -226.5t-262.5 -97.5q-164 0 -271 114.5t-107 289.5zM1358 1227q0 -57 8 -101q0 -11 10 -14q140 -55 258 -55q74 0 128.5 22t82.5 57.5t40.5 70.5t12.5 69q0 100 -58.5 172t-164.5 72 q-128 0 -222.5 -84t-94.5 -209z" />
<glyph unicode="T" horiz-adv-x="1994" d="M-20 324q0 153 72.5 289t202 220.5t282.5 84.5q68 0 139 -19q9 -2 13.5 7t-1.5 16q-1 0 -2 1t-2 1q-78 94 -78 221q0 160 125.5 266.5t300.5 106.5q67 0 169 -34.5t214.5 -80.5t240 -89t285.5 -63q79 -10 157 -10t155 10q59 7 113 22.5t112 42.5t105.5 72.5t76.5 104.5 q8 14 23.5 20t30.5 0t21 -23t-1 -32q-57 -119 -176.5 -192.5t-294.5 -96.5q-73 -9 -152 -9q-134 0 -282 26q-8 4 -12 -4q-70 -98 -136 -223.5t-157 -317.5q-70 -147 -114.5 -236t-113.5 -208t-133 -203q-243 -313 -536 -313q-284 0 -465 178q-182 182 -182 465zM61 324 q0 -252 158 -406q160 -156 408 -156q250 0 462 271q126 160 290 496q23 46 71 147q59 124 92 192t84.5 162t97.5 162q3 4 0.5 10.5t-8.5 7.5q-113 29 -259 88t-253.5 98.5t-171.5 39.5q-140 0 -242 -82t-102 -209q0 -100 57.5 -166t145.5 -66q96 0 160.5 52t64.5 137 q0 46 -35.5 93.5t-93.5 47.5q-28 0 -37.5 25t13.5 51q2 4 8 4q10 1 19 1q88 0 145 -66q63 -74 63 -156q0 -117 -87.5 -194t-219.5 -77h-8q-10 0 -13.5 -9t4.5 -15q80 -60 124 -143.5t44 -182.5q0 -102 -43 -195.5t-134 -167.5t-216 -102q-17 -3 -31.5 6.5t-17.5 26.5 q-5 15 4.5 29.5t26.5 17.5q156 35 243 143.5t87 241.5q0 155 -136 260q-59 44 -135.5 69.5t-152.5 25.5q-130 0 -241 -73t-173 -190.5t-62 -248.5z" />
<glyph unicode="U" horiz-adv-x="2258" d="M-20 1042q0 117 51 217.5t137.5 169t201.5 107.5t242 39q105 0 210.5 -31.5t192 -76.5t170.5 -90.5t176.5 -77t178.5 -31.5q22 0 35 -19.5t4 -40.5q-31 -74 -116 -257t-152.5 -343t-110.5 -293q-62 -199 -63 -326q0 -93 34 -147q53 -80 195 -80q60 0 117 24.5t102 58 t96.5 102.5t85 121.5t84 154t78 162t80.5 180.5q151 342 240 502q212 381 460 533q28 17 56 32q13 8 29.5 2.5t23.5 -20.5q8 -13 3.5 -29.5t-19.5 -25.5q-246 -126 -456 -487q-97 -169 -250 -515v-1l-1 -1v-1l-1 -1v-1l-1 -1v-1v-1l-1 -1v-1l-1 -1v-1l-1 -1v-1l-1 -1v-2 l-1 -1v-1l-1 -1v-1l-1 -1v-1v-1l-1 -1q-139 -313 -209 -438q-154 -276 -319 -365q-91 -48 -191 -48q-190 0 -262 118q-48 73 -48 194q0 141 66 347q31 97 82.5 224t80 192t106 232t82.5 179q3 8 -1.5 15.5t-13.5 7.5q-82 12 -170.5 48t-165.5 78t-156.5 82.5t-171 67.5 t-182.5 27q-145 0 -269.5 -53t-203 -157.5t-78.5 -240.5q0 -160 95 -277.5t239 -117.5q154 0 261.5 88t107.5 226q0 57 -24.5 113.5t-76.5 97t-120 40.5q-17 0 -29 12t-12 31q0 17 12.5 28t30.5 11q89 0 159.5 -51t106 -126.5t35.5 -155.5q0 -168 -128 -282t-323 -114 q-118 0 -214 66t-148.5 175t-52.5 236z" />
<glyph unicode="V" horiz-adv-x="1826" d="M-20 752q0 230 154 375t398 145q131 0 245 -49t200.5 -141t132.5 -240q38 -123 38 -271q0 -29 -1 -59q-15 -300 -176 -698q-4 -10 3.5 -18t16.5 -3q40 17 83.5 50t81.5 70t82.5 93.5t78 102.5t77.5 116.5t71 116t68.5 121t60.5 111.5t55.5 107t46.5 89q187 354 267 481 q154 245 275 297q15 6 31.5 -0.5t22.5 -21.5t-1 -31t-22 -22q-30 -13 -65.5 -45t-66.5 -69t-71 -97.5t-67.5 -105t-68 -118t-60.5 -111t-57 -108.5t-46 -88q-56 -108 -84.5 -161.5t-83 -153.5t-89.5 -157t-87 -138.5t-93.5 -134t-91.5 -106.5t-97 -91q-124 -100 -250 -100 q-23 0 -35.5 18.5t-3.5 38.5q198 443 213 770q1 25 1 49q0 135 -33 245q-39 130 -113.5 212.5t-173.5 125t-214 42.5q-212 0 -341.5 -121t-129.5 -317q0 -152 92 -263t230 -120q14 -1 27 -1q125 0 209 68q92 74 92 207q0 46 -23 99t-74 96t-116 47q-17 0 -28 13t-9 30 q0 17 12.5 28t30.5 11q54 -3 101.5 -26t81 -57.5t58 -76t36.5 -84t12 -80.5q0 -163 -115 -265q-105 -92 -268 -92q-16 0 -33 1q-171 10 -284 145t-113 320z" />
<glyph unicode="W" horiz-adv-x="2416" d="M-20 750q0 230 154 375t398 145q95 0 183 -30t164 -93t132 -152t87 -214q28 -114 28 -247v-26q-9 -312 -157 -690q-3 -11 5 -19t17 -2q72 38 139 129t121 210t99.5 235.5t94 241t83.5 190.5q17 32 32.5 55t37.5 47t47.5 36t54.5 11q25 -2 35.5 -24t-6.5 -41 q-47 -59 -51 -191q0 -18 -1 -36q-1 -114 19 -226q22 -130 49 -289.5t29 -238.5q0 -11 9 -15t17 3q53 49 114 157.5t121.5 244t127.5 292t142.5 313t156 295.5t178.5 251.5t199 168.5q13 8 29.5 3t25.5 -20q8 -15 3 -31.5t-20 -23.5q-94 -53 -186 -160.5t-168.5 -242 t-149 -287.5t-139 -308t-127 -290.5t-124.5 -247.5t-121 -168q-69 -69 -140 -69q-21 0 -33 17t-6 36q8 27 8 71q0 53 -12 135q-22 148 -54 338q-30 179 -30 297v15q0 12 -13 15t-19 -9q-27 -60 -66.5 -162.5t-72.5 -187.5t-77 -186.5t-90.5 -178.5t-102 -143.5 t-122.5 -102.5t-141 -36q-19 0 -31 12q-18 19 -8 43q183 437 192 766v29q0 148 -38 268q-42 132 -114 213.5t-164.5 124.5t-195.5 43q-215 0 -343 -123t-128 -315q0 -152 91.5 -263t228.5 -118q16 -1 31 -1q125 0 206 67q91 75 91 208q0 32 -13.5 71t-38.5 76.5t-67 63.5 t-92 29q-17 1 -28 13.5t-11 29.5q2 17 15 28.5t30 10.5q66 -4 122 -37t91 -81t54.5 -102t19.5 -102q0 -164 -114 -265q-104 -92 -267 -92q-16 0 -33 1q-113 7 -204.5 71.5t-142 168t-50.5 223.5z" />
<glyph unicode="X" horiz-adv-x="1857" d="M-20 -35q-3 18 6 32t26 17q15 5 29.5 -4t17.5 -26q22 -94 126 -158t243 -64q97 0 195 29.5t198 95.5t187.5 162.5t163.5 239t126 315.5v2q13 62 13 126q1 23 -1 46q-6 87 -27.5 168t-64.5 152t-98.5 123.5t-131 83t-161.5 30.5q-216 0 -333 -107.5t-117 -266.5 q0 -123 70.5 -211t187.5 -88q113 0 181 58t85 136q5 24 5 47q0 34 -12 66q-20 53 -71 78q-15 6 -20.5 23t2.5 32q6 14 23 19.5t32 -1.5q74 -36 108 -114q21 -49 20 -102q0 -32 -7 -66q-26 -112 -119 -185t-227 -73q-150 0 -245 111.5t-95 269.5q0 93 35.5 175t101 145 t168 99.5t227.5 36.5q215 0 367.5 -153.5t189.5 -397.5q1 -12 12 -14.5t17 6.5q143 224 372 342q167 86 342 86q65 0 132 -12q16 -3 26 -15.5t7 -29.5q-1 -18 -15 -28t-32 -7q-56 10 -111 10q-84 0 -168 -22q-140 -38 -254.5 -122t-203 -207.5t-130.5 -266.5v-2 q0 -1 -6 -25.5t-10.5 -46.5t-10.5 -62t-9 -77q-3 -32 -3 -72q1 -7 1 -13q0 -48 6 -92.5t19 -94.5t34 -95q37 -80 94 -135.5t120 -76.5q50 -17 100 -16h25q62 6 118.5 47.5t91.5 111.5q7 15 24.5 20.5t30.5 -2.5q15 -7 20.5 -23.5t-2.5 -31.5q-44 -87 -115 -140t-151 -62 q-22 -2 -44 -2l-116 17q-80 24 -152 91.5t-118 166.5q-48 101 -63 234q0 12 -11.5 14.5t-17.5 -6.5q-90 -151 -210 -268.5t-276 -190.5t-319 -73q-167 0 -293.5 80.5t-154.5 203.5z" />
<glyph unicode="Y" horiz-adv-x="2213" d="M-18 -897q8 111 44 215t101 193t151.5 154t201.5 98q91 26 190 26q27 0 55 -2q130 -9 234 -55.5t169 -117.5t97 -160q27 -74 27 -155q0 -15 -1 -30q-6 -79 -37.5 -148t-83.5 -120t-128 -78q-61 -22 -131 -22q-15 0 -31 1q-18 2 -29 14t-10 29q0 17 13 29t30 10 q15 -1 29 -1q118 0 198 75q89 85 98 217q1 14 1 28q0 150 -109 263q-119 122 -342 139q-25 2 -49 2q-112 0 -211 -38q-121 -46 -204 -131t-133 -199.5t-59 -241.5q-2 -27 -2 -54q0 -90 23 -172q30 -107 94 -191.5t169.5 -138t240.5 -63.5q26 -2 52 -2q74 0 142 15 q93 20 172 61.5t153.5 109.5t137 147t125 184t115 211t109 238.5t105.5 255.5t107 271q1 2 1.5 3.5t0.5 2.5q15 35 17 41q4 13 -7 20.5t-20 -1.5q-191 -201 -430 -201q-130 0 -202 77t-72 228q0 120 64.5 355t162.5 428q3 6 0 13.5t-10 8.5q-16 5 -136 43t-171.5 52 t-149.5 31t-178 17q-184 0 -301 -85.5t-117 -247.5q0 -119 74.5 -193t177.5 -74q104 0 162 72q45 55 45 121q0 20 -4 41q-4 17 4.5 30.5t25.5 18.5q17 3 31 -6.5t19 -26.5q7 -31 7 -61q0 -91 -62 -168q-83 -102 -228 -102q-136 0 -235 98t-99 250q0 86 31.5 160.5t92.5 132 t157.5 90t218.5 32.5q90 0 193.5 -18t168 -36t175.5 -53.5t145 -45.5q11 -3 18 8q147 242 305 242q75 0 124.5 -33.5t49.5 -97.5q0 -85 -92 -159.5t-227 -74.5q-58 0 -113 14q-13 0 -18 -8q-97 -186 -163 -420.5t-66 -347.5q0 -110 45.5 -166.5t146.5 -56.5q123 0 228.5 61 t207.5 189q105 134 250 418h2q166 387 336 663q7 13 24.5 18t30.5 -3q14 -9 19 -25.5t-4 -30.5q-56 -101 -112.5 -212.5t-123 -247.5t-96.5 -197q-85 -192 -244 -602q-186 -477 -280 -678q-206 -443 -422 -647q-239 -226 -543 -226q-29 0 -59 2q-152 11 -272.5 72.5 t-194 158t-107.5 217.5q-28 97 -28 202q0 27 2 55zM1465.5 997.5q4.5 -9.5 13.5 -10.5q40 -4 57 -4q101 0 169.5 51.5t68.5 100.5t-93 49q-101 0 -215 -170q-5 -7 -0.5 -16.5z" />
<glyph unicode="Z" horiz-adv-x="1562" d="M-20 -133q0 79 55 137.5t151 58.5q44 0 106.5 -24t110 -50t142.5 -81q11 -4 16 2q252 181 545 534q251 301 536 732q5 7 2 15t-12 9q-122 25 -280 74q-160 48 -268 76q-92 24 -154 25q-11 0 -21 -1q-114 -9 -208.5 -62t-148.5 -143q-47 -78 -47 -169q0 -13 1 -27 q9 -123 89 -203q72 -72 171 -73q11 0 22 1q122 8 199 84q71 69 71 164q0 9 -1 17q-5 59 -56 117q-47 53 -115 53h-12q-18 -1 -30.5 9.5t-14.5 28.5q-1 17 10 29t29 14q10 1 20 0q99 0 168 -72q76 -80 83 -173q1 -13 1 -25q0 -123 -90 -215q-98 -101 -255 -113q-13 -1 -26 -1 q-131 0 -227 93q-106 102 -118 259q-1 18 -1 35q0 108 54 202q63 109 175.5 175t250.5 77q12 1 25 1q76 1 184 -29q128 -34 302 -87t315 -75q23 -3 32.5 -24t-4.5 -40q-4 -6 -42.5 -64.5t-53.5 -81.5t-58.5 -87t-71.5 -103.5t-75.5 -106t-88 -119.5t-93.5 -119.5 t-105 -129.5q-277 -331 -516 -516q-7 -6 -6.5 -15t8.5 -14q205 -111 381 -155q124 -30 246 -30q217 0 426 97q15 7 31 1t22 -21q7 -15 2 -30t-20 -23q-226 -106 -462 -106q-130 0 -263 32q-212 54 -453 192q-7 4 -16 -2q-190 -120 -342 -120q-97 0 -162 51.5t-65 134.5z M61 -133q0 -51 43.5 -78t102.5 -27q103 0 246 76v29q-102 58 -164 86.5t-103 28.5q-46 0 -85.5 -27.5t-39.5 -87.5z" />
<glyph unicode="[" horiz-adv-x="886" d="M23 -209l466 1591q3 12 14.5 20.5t24.5 8.5h293q17 0 29.5 -11t13.5 -28q0 -19 -12 -31t-29 -12h-252q-13 0 -16 -12l-432 -1475q-3 -9 1.5 -15.5t12.5 -6.5h217q17 0 29.5 -11t13.5 -28q0 -17 -12 -30t-29 -13h-295q-13 0 -26 10q-21 18 -12 43z" />
<glyph unicode="\" horiz-adv-x="356" d="M20 1446q-3 17 7.5 30.5t27.5 16.5t30.5 -7.5t16.5 -27.5l230 -1524q3 -17 -7 -30.5t-26 -16.5q-17 -3 -31.5 7.5t-15.5 27.5z" />
<glyph unicode="]" horiz-adv-x="884" d="M20 -221q-1 17 11 29t30 12h252q13 0 17 12l432 1477q3 7 -2.5 13.5t-14.5 6.5h-217q-17 0 -29 11t-12 28q-1 18 11 30.5t30 12.5h293q19 0 27 -8q21 -18 14 -45l-467 -1589q-3 -13 -14 -22t-25 -9h-295q-16 0 -28.5 12t-12.5 29z" />
<glyph unicode="^" horiz-adv-x="509" d="M20.5 859q-0.5 18 10.5 30l325 354q9 10 23.5 13t26.5 -3q19 -9 22 -30l59 -355q3 -18 -6 -32t-26 -15q-17 -3 -30.5 6.5t-16.5 26.5l-41 240q-1 10 -11.5 13t-17.5 -5l-246 -268q-12 -12 -29.5 -13.5t-29.5 10.5q-12 10 -12.5 28z" />
<glyph unicode="_" horiz-adv-x="770" d="M20 -2q3 17 17 29t31 12h649q17 0 26.5 -12t6.5 -29q-1 -17 -15.5 -29t-32.5 -12h-647q-17 0 -27.5 12t-7.5 29z" />
<glyph unicode="`" horiz-adv-x="155" d="M24 1078q6 16 21 22q17 8 34 0t23 -27l25 -110q3 -12 -4 -23t-19 -14q-10 -3 -19.5 2t-12.5 14l-47 105q-7 15 -1 31z" />
<glyph unicode="a" horiz-adv-x="833" d="M-41 166q0 62 16 134t45 145t73.5 140t98 118.5t122 82.5t141.5 31q81 0 148 -38q67 -39 94 -103q12 -30 13 -63q0 -40 -18 -85q-39 -95 -106 -198q-2 -2 -2 -6q-1 -2 -3 -7.5t-3 -7.5q-58 -87 -86 -159q-19 -53 -19 -80q0 -13 4 -19q7 -10 27 -10q37 0 121 84 q71 68 188 219q11 14 28 16t29 -8q14 -11 16.5 -28t-7.5 -29q-138 -179 -226 -257.5t-149 -78.5q-73 0 -98 53q-15 26 -15 56q0 10 -9.5 14t-16.5 -2q-143 -121 -263 -121q-73 0 -108 59.5t-35 147.5zM41 166q0 -125 61 -125q77 0 179 76.5t193 196t140 241.5q9 31 9 56 q1 15 -3 29q-8 34 -37.5 55t-62 30.5t-65.5 9.5q-71 0 -137 -38.5t-115 -100.5t-86.5 -137.5t-56.5 -152t-19 -140.5z" />
<glyph unicode="b" horiz-adv-x="919" d="M-121 16q2 0 2 4q49 237 279 739.5t428 788.5q162 238 268 238q61 0 93 -52t32 -124q0 -68 -58.5 -153.5t-152 -176t-192.5 -181t-198.5 -196.5t-152.5 -194q-7 -17 -20.5 -46t-16.5 -36q-6 -12 6 -19.5t21 2.5q190 224 344 224q95 0 157 -76.5t62 -177.5 q0 -153 -66 -281t-186 -217q-8 -4 -6.5 -14.5t10.5 -14.5q46 -12 74 -12q36 0 74.5 25t81.5 77.5t70.5 91.5t72.5 109q9 14 26.5 17.5t31.5 -5.5t17.5 -26t-5.5 -31q-32 -49 -47.5 -72t-47 -67t-51 -66t-50 -52.5t-55.5 -45.5t-56 -26t-62 -11q-94 0 -174 55q-6 6 -16 2 q-116 -55 -226 -55q-61 0 -97 35.5t-36 81.5q0 62 55 96.5t130 34.5q36 0 70.5 -14t55.5 -29t54 -43q10 -7 20 0q121 75 188.5 192.5t67.5 264.5q0 66 -38.5 119t-98.5 53q-62 0 -143.5 -61t-167.5 -173q-174 -221 -289 -520q-2 -2 -3 -4q-3 -20 -19.5 -28.5t-34.5 -2.5 q-16 6 -23.5 21t-1.5 32zM139 78q0 -14 13.5 -24.5t37.5 -10.5q67 0 158 33h2q-34 26 -57 38.5t-51 12.5q-41 0 -72 -13.5t-31 -35.5zM422 1106q-7 -12 4 -21t20 2q33 31 90 84.5t92 86.5t83 80t77 80t57 70t41 67t13 55q0 38 -11.5 66t-31.5 28q-5 0 -12 -2t-25 -13.5 t-39 -31.5t-54.5 -60.5t-70.5 -95.5q-103 -146 -233 -395z" />
<glyph unicode="c" horiz-adv-x="727" d="M-41 195q0 75 26.5 163.5t75 171.5t109.5 152t138 110.5t153 41.5q65 0 116 -35.5t65 -92.5q4 -15 3 -32q0 -44 -27 -96q-9 -14 -25.5 -18t-31.5 3q-13 9 -17.5 26t3.5 32q18 30 18 54q-1 23 -17 41q-34 36 -87 36q-75 0 -153.5 -57t-135.5 -141t-94 -181.5t-37 -177.5 q0 -154 135 -154q154 0 284.5 82t250.5 225q10 13 27.5 15t29.5 -9q13 -10 15 -27.5t-9 -29.5q-88 -103 -172.5 -173.5t-195.5 -117.5t-230 -47q-100 0 -158.5 61.5t-58.5 174.5z" />
<glyph unicode="d" horiz-adv-x="1011" d="M-41 188q0 75 23 160.5t68 168t104 150t138.5 109t164.5 41.5q55 0 108.5 -20t91.5 -56q6 -6 15 -4.5t12 8.5q86 221 203.5 447.5t232.5 382.5q155 207 258 207q60 0 91.5 -51.5t31.5 -126.5q0 -62 -31.5 -135t-78 -140.5t-129.5 -162t-155.5 -170t-188 -196 t-197.5 -210.5h-2q-30 -55 -68.5 -200.5t-38.5 -239.5q0 -109 52 -109q34 0 82.5 34.5t99.5 90.5t85 97t64 81q10 13 27.5 16t30.5 -6q14 -11 16 -28t-8 -31q-255 -336 -397 -336q-70 0 -102 54t-32 137q0 6 5 79q2 12 -10 16.5t-19 -5.5q-200 -281 -367 -281 q-89 0 -134.5 64t-45.5 165zM41 188q0 -147 98 -147q181 0 488 549v2q2 2 2 6q0 2 2 4v8q-1 54 -51 88q-54 37 -123 37q-86 0 -165.5 -55.5t-133 -139t-85.5 -178t-32 -174.5zM821 864q-6 -13 6 -21t21 3q24 25 86.5 89.5t91.5 94.5t84.5 89.5t84 93.5t71 85.5t64.5 87 t45.5 77t33.5 76t10 65.5q0 38 -11 67t-30 29q-6 0 -14 -2.5t-25 -13t-37 -28t-50 -51.5t-64 -79q-186 -245 -367 -662z" />
<glyph unicode="e" horiz-adv-x="727" d="M-41 195q0 75 26.5 163t75 171t109.5 152t138 111t153 42q82 0 132 -45t50 -117q0 -132 -104 -234q-151 -151 -476 -159q-13 0 -16 -13q-6 -38 -6 -71q0 -154 135 -154q154 0 284.5 82t248.5 225q11 12 28 13t31 -9q12 -11 13 -28t-9 -29q-134 -158 -278.5 -247 t-317.5 -89q-100 0 -158.5 61.5t-58.5 174.5zM82 385q-3 -8 2 -15.5t14 -7.5q265 16 383 134q80 80 80 176q0 33 -20 52.5t-39.5 23.5t-40.5 4q-75 0 -152.5 -56.5t-134 -138t-92.5 -172.5z" />
<glyph unicode="f" horiz-adv-x="518" d="M-123 -96q0 144 93 415t230.5 548.5t264.5 453.5q150 213 256 213q62 0 93.5 -52t31.5 -126q0 -37 -11 -76.5t-28 -75.5t-48 -78.5t-59 -76t-74.5 -79t-81 -77t-92 -80t-94.5 -78.5t-101 -81.5t-99 -80.5q-4 0 -4 -6q-36 -86 -52 -127q-4 -8 2 -14q26 -44 82 -92 q72 -59 142 -66h12q83 0 152 80q11 12 28 13t29 -9q14 -11 15 -28t-11 -29q-93 -108 -206 -108q-12 0 -25 1q-68 6 -138 48q-9 6 -17.5 0t-6.5 -15q11 -82 11 -161q0 -63 -7 -123q-7 -57 -21 -103t-46.5 -83.5t-78.5 -37.5q-73 0 -107 53t-34 138zM-41 -96q0 -38 6 -62.5 t17.5 -33.5t18.5 -11t17 -2q19 0 36.5 37.5t27.5 113.5q6 48 6 104q0 33 -2 69q-3 70 -16 141q-3 12 -15.5 13t-17.5 -11q-78 -242 -78 -358zM260 803q-6 -12 4 -20.5t21 -0.5q87 71 146 121.5t127.5 117t109.5 119t68.5 110t27.5 106.5q0 39 -11.5 67.5t-31.5 28.5 q-12 0 -29.5 -8t-62.5 -51.5t-99 -118.5q-133 -185 -270 -471z" />
<glyph unicode="g" horiz-adv-x="804" d="M-227 -633q0 108 100 205q56 57 227 178t252 184q4 4 4 7q29 57 47 96q4 12 -5.5 20t-18.5 0q-129 -98 -236 -98q-94 0 -144 65.5t-50 170.5q0 96 39.5 203.5t107.5 197.5q80 106 184 163.5t216 57.5q81 0 148 -38t94 -103q12 -30 12 -64q0 -40 -17 -86q-32 -80 -80 -153 v-2q0 -2 -2 -2q-24 -53 -66 -141t-44 -93q-6 -12 5 -19.5t21 1.5q128 118 226 231q11 12 28 13t29 -9q12 -12 13 -28.5t-9 -30.5q-203 -227 -430 -408q-4 0 -4 -4q-196 -408 -264 -516q-57 -91 -104.5 -122t-114.5 -31q-66 0 -115 44.5t-49 110.5zM-145 -633 q0 -29 23.5 -51.5t58.5 -22.5q43 0 72.5 20t76.5 95q53 85 164 309q5 12 -5 20t-20 1q-23 -16 -71 -50t-70.5 -50t-55.5 -40.5t-56 -44t-42 -38.5q-75 -75 -75 -148zM31 195q0 -154 112 -154q58 0 131.5 43.5t149.5 124.5q148 151 231 348q14 31 14 56q0 24 -12 43 q-25 40 -69 59.5t-92 19.5q-98 0 -183.5 -50.5t-150.5 -137.5q-60 -80 -95.5 -174.5t-35.5 -177.5z" />
<glyph unicode="h" d="M-143 6q44 226 274.5 736.5t433.5 803.5q165 238 269 238q62 0 93 -51.5t31 -124.5q0 -62 -33 -136t-83.5 -143.5t-136 -165t-162 -173.5t-193 -197.5t-200.5 -210.5l-3 -4q-1 -3 -3 -8.5t-3 -8.5q-6 -12 6 -19t21 3q40 46 61 67q101 108 195 166t168 58q37 0 61.5 -12 t35.5 -34t15 -50q2 -11 1 -24q0 -19 -3 -41q-6 -37 -14.5 -71.5t-23.5 -77t-27.5 -74.5t-27.5 -70q-6 -15 -9 -22q-60 -141 -80 -210q-16 -58 -15 -85q0 -16 5 -21q4 -3 10 -3q57 0 136.5 73.5t193.5 231.5q11 14 27 16t30 -8q13 -9 16.5 -26.5t-5.5 -30.5 q-39 -54 -66.5 -89.5t-73.5 -87.5t-84 -83t-85 -54.5t-89 -23.5q-52 0 -80 37q-16 26 -18 60v9q0 33 14 82q16 56 33 104.5t53 139.5q64 155 86 230l8 32t6 30t2.5 28.5t-3 21.5t-10 16t-19.5 5q-55 0 -129 -47q-83 -53 -174 -150q-130 -138 -234 -319.5t-116 -245.5 q-3 -17 -18 -26.5t-32 -6.5t-26 17t-6 30zM295 899q-6 -12 6 -20t21 2q256 261 336 352q203 230 218 354q1 11 1 21q0 38 -11 66t-32 28q-5 0 -12 -2t-25 -13.5t-39 -31.5t-54.5 -60.5t-70.5 -95.5q-145 -208 -338 -600z" />
<glyph unicode="i" horiz-adv-x="331" d="M-116 70q0 34 13 80q14 48 34.5 98.5t55 120.5t66.5 131t77 149t79 158q7 15 23.5 20.5t31.5 -0.5q15 -8 20.5 -24t-1.5 -31q-23 -46 -53.5 -106.5t-57 -111.5t-57 -109.5t-53.5 -106.5t-44.5 -95.5t-33.5 -83t-17.5 -63.5t1 -42.5t24.5 -14.5q6 0 15.5 3.5t35.5 21 t59.5 47.5t89.5 92t123 145q11 12 28.5 14t29.5 -8q13 -10 15 -27.5t-9 -29.5q-110 -136 -199 -225q-121 -115 -188 -115t-92 47q-16 27 -16 66zM297 955.5q-3 16.5 6 29.5l8 12q9 14 25.5 17.5t30.5 -6.5q15 -9 18 -26t-6 -30l-8 -12q-9 -13 -26 -16t-32 6q-13 9 -16 25.5z " />
<glyph unicode="j" horiz-adv-x="452" d="M-635 -633q0 48 21.5 93.5t53 80t89.5 78t107 74t132 82.5t140 90q2 2 2 4q60 119 307 633q4 9 -4 14.5t-14 -2.5q-92 -118 -156 -215q-7 -13 -24.5 -17.5t-30.5 3.5q-15 9 -19 26t6 31q53 82 113 161.5t107 133.5t89.5 98t64 64t26.5 24q23 23 51 2q12 -7 15 -22t-3 -27 q-48 -102 -147 -309q-166 -347 -221 -459q-3 -7 3.5 -13t12.5 -1q204 162 352 362q9 13 27 16.5t31 -5.5q12 -11 14.5 -27.5t-6.5 -30.5q-195 -270 -529 -497q-1 -1 -2 -2.5t-2 -2.5q-76 -152 -130 -250.5t-111 -182t-106 -122t-95 -38.5q-66 0 -115 44t-49 109zM-553 -633 q0 -28 23.5 -50t58.5 -22q85 0 289 392q3 6 -3 11t-12 1q-187 -116 -242 -159q-114 -90 -114 -173zM445.5 959q-3.5 16 5.5 30l8 12q9 13 26.5 16.5t30.5 -5.5t16 -26t-6 -30l-6 -12q-11 -14 -27 -17t-30 7q-14 9 -17.5 25z" />
<glyph unicode="k" horiz-adv-x="800" d="M-123 8q28 145 143.5 432t274 601.5t291.5 506.5q165 238 268 238q61 0 93 -52t32 -126q0 -130 -148 -318q-47 -60 -123 -143t-121.5 -130t-166.5 -169q-9 -9 -1.5 -20.5t19.5 -6.5q41 13 70 13q79 0 134.5 -60.5t55.5 -167.5q0 -59 -36 -116.5t-93 -100.5t-125.5 -73.5 t-134.5 -41.5q-7 -1 -11.5 -7.5t-2.5 -12.5q23 -108 36 -138q32 -73 91 -73q71 0 165 77.5t201 223.5q11 14 27.5 16t30.5 -8q14 -11 16 -27t-8 -30q-42 -58 -86.5 -109.5t-102.5 -106t-121.5 -86.5t-121.5 -32q-43 0 -77 18t-54 43.5t-35.5 62.5t-22.5 65.5t-14 63.5 t-10 46q0 10 -12 10q-31 7 -50 15q-17 6 -23.5 24t1.5 33q13 24 47 30q7 1 15 2q28 0 57 -20q4 -4 12 -4q75 3 159.5 41.5t142.5 98t58 116.5q0 72 -32.5 109t-75.5 37q-51 0 -122.5 -50t-149.5 -141q-138 -161 -201 -313q-63 -177 -76 -254q-3 -17 -17.5 -26.5t-31.5 -6.5 t-26.5 16.5t-6.5 30.5zM319 907q-6 -12 6 -19.5t21 1.5q29 30 87 89q73 74 108.5 111t95 100.5t89 99.5t69 87t57.5 86t31.5 74t13.5 72q0 40 -11 68t-32 28q-5 0 -12 -2t-25 -14t-39 -32t-54 -60.5t-71 -94.5q-161 -235 -334 -594z" />
<glyph unicode="l" horiz-adv-x="428" d="M-47 150q0 113 59.5 308t125 351.5t132.5 292.5q146 294 271 465q150 213 256 213q61 0 93 -52t32 -126q0 -42 -15 -89.5t-35 -89t-63.5 -101t-76 -99.5t-99 -112.5t-105 -113t-120.5 -125.5q-203 -213 -263 -278q-4 0 -4 -4q-106 -293 -106 -440q0 -38 6 -62.5 t17.5 -33.5t18.5 -11t17 -2q7 0 18.5 4t38.5 22t59.5 48.5t86 90t115.5 138.5q10 13 27 15t30 -7q13 -10 15 -27.5t-9 -29.5q-253 -336 -381 -336q-73 0 -107 53t-34 138zM258 881q-5 -12 6.5 -20t20.5 1q12 12 33 34.5t32 33.5q239 248 323 351q167 203 167 321 q0 39 -11.5 67.5t-31.5 28.5q-11 0 -29 -8.5t-63 -52.5t-99 -119q-122 -169 -262 -451q-37 -74 -86 -186z" />
<glyph unicode="m" horiz-adv-x="1275" d="M-182.5 -13.5q-5.5 16.5 2.5 31.5q14 29 64.5 133t90.5 186.5t88 183t81 175t46 109.5q6 15 22.5 22.5t31.5 1.5q16 -6 22.5 -21.5t1.5 -31.5q-17 -47 -80 -180q-6 -14 7 -21t22 5q95 125 182 189.5t183 64.5q70 0 103 -40q30 -37 30 -99v-11q-1 -12 9.5 -16.5t18.5 4.5 q50 60 119 108q83 54 182 54q80 0 118 -40q36 -38 36 -96q0 -63 -33 -151q-30 -85 -118.5 -258t-102.5 -219q-3 -10 5.5 -17t17.5 -4q36 18 96 70q87 81 194 229q9 13 27 16t31 -6q14 -11 16 -27t-8 -30q-38 -52 -76 -99t-95 -108t-114.5 -98t-103.5 -37t-66 35 q-12 19 -12 45.5t12 60.5q24 68 103 224q86 161 119 249q26 73 27 113t-16.5 53t-56.5 13q-38 0 -73 -10t-72 -38t-66.5 -55t-71 -85.5t-72 -104t-81.5 -136t-86.5 -155.5t-101.5 -186q-8 -15 -24 -20.5t-31 1.5q-15 9 -20 24.5t1 30.5q16 33 98 203q111 222 140 293 q48 118 48 177q0 61 -50 61q-104 0 -226 -134q-80 -88 -256 -352q-105 -162 -198 -291q-11 -15 -33.5 -16.5t-30.5 4.5q-15 7 -20.5 23.5z" />
<glyph unicode="n" horiz-adv-x="817" d="M-182.5 -11.5q-5.5 16.5 2.5 31.5q1 1 94 184.5t189 374t102 205.5q7 15 23.5 21t31.5 0q15 -8 20.5 -24t-1.5 -31q-3 -7 -11 -24.5t-12 -25.5q-6 -12 5 -19.5t20 1.5q165 154 297 154q53 0 84.5 -21t40.5 -58q6 -23 6 -49q-1 -16 -3 -34q-6 -46 -24 -101 q-26 -73 -102 -226.5t-97 -211.5q-4 -8 -8.5 -22.5t-9 -31t-4 -28.5t7.5 -12q59 0 141 77.5t203 231.5q11 12 27 14t30 -8q12 -11 14.5 -27t-7.5 -30q-121 -154 -187 -218q-126 -122 -221 -122q-89 0 -89 85q0 27 9 63q21 81 120 284q73 151 95 211q15 41 20.5 70.5t4.5 45 t-9.5 24t-17.5 10.5t-24 2q-142 0 -345 -244q-162 -192 -339 -526q-7 -15 -25 -21t-31 2q-15 7 -20.5 23.5z" />
<glyph unicode="o" d="M-23 217v16q0 95 33 203q36 116 94 193q11 14 28.5 16t29.5 -8q14 -11 16 -27t-8 -30q-50 -67 -82 -170q-29 -94 -29 -176v-15q1 -81 35 -127q33 -45 104 -45h3q72 3 145.5 52.5t136.5 138.5q14 18 33 53q-7 -1 -22 -2t-23 -2h-9q-112 -1 -192 69q-84 72 -84 193 q0 132 78.5 214t192.5 85h8q91 0 153 -64q66 -67 68 -188v-14q0 -78 -29 -174q100 34 188.5 93t141.5 130q10 13 27 15t30 -7q13 -10 15.5 -27.5t-6.5 -29.5q-70 -93 -188.5 -166.5t-246.5 -106.5q-67 -142 -180 -243t-243 -101q-103 0 -159 69t-59 183zM268 549 q0 -85 60 -133q57 -47 135 -47h6q45 3 92 12q43 110 43 201v12q-2 79 -40 126q-38 46 -102 46h-3q-81 -2 -136 -60.5t-55 -156.5z" />
<glyph unicode="p" horiz-adv-x="835" d="M-604 -729q0 66 123 319q138 276 293 512q133 207 247 347v2q79 163 174 360q6 15 22.5 20.5t31.5 -2.5q15 -6 20.5 -22t-0.5 -31q-4 -7 -19 -37.5t-22 -46.5q-3 -6 2.5 -10.5t10.5 0.5q153 127 266 127q95 0 157 -64.5t62 -164.5q0 -165 -76.5 -301t-212.5 -222 q-5 -3 -3.5 -8.5t7.5 -5.5q3 0 10.5 -1t10.5 -1q66 0 159 90q85 82 160 213q7 15 23.5 19.5t31.5 -3.5q14 -8 19 -24.5t-2 -30.5q-76 -138 -183 -242t-208 -104q-68 0 -154 33q0 2 -2 2t-2 -2q-98 -31 -168 -31q-59 0 -111.5 32.5t-52.5 92.5q0 44 35 74t80 30t133 -57 q60 -36 86 -49h6q149 64 240.5 194.5t91.5 301.5q0 63 -37 105t-100 42q-49 0 -109.5 -33t-119.5 -88t-102.5 -102t-84.5 -98v-3q-126 -261 -214 -439.5t-159.5 -316.5t-117.5 -218t-83 -130.5t-61 -67.5t-47 -17q-21 0 -36 15t-15 42zM-432 -496q-3 -7 3 -10.5t11 2.5 q91 163 158 301q3 5 0.5 9t-7 3.5t-7.5 -4.5q-120 -218 -158 -301zM92 86q0 -21 30 -32t52 -11q13 0 41 4q6 0 7.5 5.5t-3.5 8.5q-77 48 -94 48q-11 0 -22 -7t-11 -16z" />
<glyph unicode="q" horiz-adv-x="796" d="M-41 197q0 76 22.5 160.5t67.5 166.5t105 148t142 106.5t171 40.5q74 0 136.5 -37.5t88.5 -101.5q13 -30 13 -64q0 -40 -17 -86q-20 -62 -67 -147q0 -1 -1.5 -2t-1.5 -2q-1 -4 -131 -262q-6 -10 3 -18.5t20 -2.5q122 69 270 252q10 13 28.5 15t31.5 -9q12 -9 14 -26 t-8 -31q-55 -69 -108.5 -122.5t-91.5 -84.5t-80.5 -56t-65 -35t-56.5 -22q-10 -3 -10 -16v-32q0 -715 -268 -715q-53 0 -80 41q-15 25 -15 67q0 62 33 160q56 164 234 520q4 12 -5 20.5t-20 2.5q-95 -66 -172 -66q-90 0 -136 67t-46 171zM41 197q0 -67 23 -111.5t77 -44.5 q69 0 164.5 79t181 202t129.5 247q9 24 9 45q0 42 -35 74q-51 49 -123 49q-90 0 -172 -53.5t-136 -135t-86 -175.5t-32 -176zM151.5 -669q-1.5 -16 2 -26t12.5 -10q47 0 82.5 46t55 123t30 149t14.5 151q0 13 -13 17t-18 -8q-51 -108 -75 -166q-63 -145 -80 -219 q-4 -13 -6.5 -27t-4 -30z" />
<glyph unicode="r" horiz-adv-x="704" d="M-34 314.5q-2 17.5 7 29.5q166 217 228 328q8 12 -4 20q-74 53 -74 123q0 55 33 90t75 35q43 0 76 -34t33 -93q0 -28 -16 -78q-6 -13 8 -20q97 -40 125 -59q55 -38 55 -89q0 -32 -17.5 -82t-33.5 -84.5t-53 -107.5q-80 -160 -91 -210q-10 -42 11 -42q46 0 140 74.5 t218 228.5q10 13 27.5 15t29.5 -7q13 -10 15.5 -28t-6.5 -31q-42 -52 -86 -100t-105 -106t-122.5 -93t-110.5 -35q-61 0 -84 41q-12 19 -13 46.5t4.5 53t23 69t32 73.5t43.5 88q37 72 58 119.5t31 72.5t7 40t-6.5 18t-15.5 10q-30 20 -113 51q-4 3 -11 1.5t-10 -7.5 q-54 -98 -235 -340q-11 -14 -28 -16t-31 8q-12 10 -14 27.5zM205 815q0 -21 20 -41q6 -6 16 -3.5t11 11.5q6 18 6 31q0 45 -27 45q-4 0 -9.5 -3.5t-11 -14t-5.5 -25.5z" />
<glyph unicode="s" horiz-adv-x="589" d="M-19 317.5q-1 16.5 9 30.5q43 49 348 445q16 27 35 41q12 10 28 8.5t27 -13.5q12 -12 11.5 -28t-11.5 -27q-2 -2 -3 -3.5t-2 -2.5l-3 -3t-6.5 -7.5t-10.5 -12.5v-2q-20 -33 -32 -71q-23 -72 -25 -142v-13q0 -65 13 -159q14 -102 16 -139q0 -9 8.5 -13t15.5 1 q114 62 185 141q12 12 28.5 13t30.5 -11q12 -10 12.5 -27.5t-10.5 -29.5q-101 -110 -262 -187q-5 -3 -10 -12q-6 -81 -49 -133q-42 -51 -121 -51q-43 0 -71 25.5t-28 66.5q0 27 12.5 49t37 38.5t50.5 29t61 27.5q4 1 5.5 2t4.5 2t5.5 2t4.5 2q10 3 10 14q-1 63 -17 172 q-15 102 -14 168v8q0 12 -11 15.5t-17 -5.5q-137 -174 -185 -231q-10 -13 -27.5 -15t-29.5 9q-12 12 -13 28.5zM186 2q0 -10 17 -10q37 0 59 22q1 2 3 5.5t3 5.5q8 9 -1 18.5t-19 3.5q-62 -28 -62 -45z" />
<glyph unicode="t" horiz-adv-x="489" d="M-53.5 318.5q-0.5 17.5 10.5 29.5q25 25 162 203q2 2 2 4q70 186 160 373q3 4 -1 9t-10 5h-276q-17 0 -29.5 13t-11.5 30q0 17 12 28t29 11h330q2 0 8 6q70 131 147 248q127 176 211 176q46 0 62 -37q4 -12 4 -28q0 -25 -10 -57q-16 -54 -87 -171q-8 -12 -34 -53t-43 -66 q-3 -6 -0.5 -12t8.5 -6h371q17 0 29.5 -11t13.5 -28q0 -17 -12 -30t-29 -13h-445q-6 0 -8 -4q-152 -215 -315 -424q-2 -2 -2 -4q-97 -264 -97 -389q0 -80 37 -80q39 0 143 100q104 101 197 217q10 13 27.5 15.5t29.5 -6.5q14 -11 16.5 -28.5t-9.5 -31.5q-105 -129 -203 -225 q-130 -123 -201 -123q-63 0 -94 51q-24 39 -24 110q0 67 22 163q1 9 -6.5 12.5t-12.5 -2.5q-12 -12 -28.5 -13t-30.5 11q-12 10 -12.5 27.5zM365 911q-5 -9 3.5 -14t14.5 4q3 4 9 12.5t9 12.5q3 6 0 11t-10 5h-4q-7 0 -10 -6q-2 -4 -6 -12.5t-6 -12.5zM430 1040 q-2 -5 1 -10.5t9 -5.5h25q5 0 8 6q143 207 184 297q3 9 -4.5 14t-13.5 0q-88 -81 -209 -301z" />
<glyph unicode="u" horiz-adv-x="806" d="M-57 33q-22 36 -22 91q0 87 56 222q42 103 144 286.5t104 188.5q8 15 24.5 20.5t31.5 -1.5t19.5 -25t-3.5 -31q-9 -17 -106.5 -194t-137.5 -275q-52 -125 -52 -192q0 -31 11 -49q20 -33 84 -33q63 0 123 37t105.5 91t96.5 140t86.5 160t85.5 176t83 164q7 15 24.5 19.5 t30.5 -3.5q15 -8 20.5 -24t-3.5 -31q-34 -64 -110 -221t-120 -236q0 -2 -2 -4q-29 -51 -48 -94.5t-26.5 -69t-9 -45.5t-0.5 -28t4 -13q12 -18 53 -18q21 0 46 14t55 45t52 55t55.5 70t45.5 63t41 58q10 13 28.5 16t31.5 -6q13 -10 15 -27t-7 -30q-107 -157 -176 -231 q-106 -109 -187 -109q-55 0 -89.5 23.5t-45.5 64.5q-3 9 -11.5 11.5t-14.5 -3.5q-108 -96 -232 -96q-109 0 -153 74z" />
<glyph unicode="v" horiz-adv-x="679" d="M-41 157q5 177 95 414q42 112 83 179q55 87 105 90q19 2 32 -10t13 -31q0 -15 -11 -27.5t-28 -13.5q-37 -23 -92.5 -152.5t-91.5 -286.5q-24 -107 -24 -179q0 -34 5 -60q8 -45 31 -45q53 0 201 171t251 347v4q-21 56 -21 114q1 62 33 108t81 46q39 0 55 -24 q18 -18 18 -53q0 -60 -69 -189q0 -4 2 -4q19 -19 47 -19q27 0 63 17q86 42 193 164q12 13 29.5 13.5t29.5 -11.5q12 -10 12.5 -27.5t-10.5 -29.5q-35 -40 -70.5 -74.5t-80.5 -67.5q-46 -32 -88 -50q-38 -16 -78 -17q-4 1 -8 1q-44 2 -80 27q-3 3 -6 0q-46 -75 -108 -160 t-134.5 -170.5t-143.5 -141.5t-118 -56q-117 0 -117 183v21zM596 707q-2 -3 1 -4t5 2q1 2 2 5t2 5q0 3 -3 4t-5 -2q0 -2 -1 -5t-1 -5z" />
<glyph unicode="w" horiz-adv-x="1097" d="M-40 172q4 62 16.5 116.5t29.5 114.5q71 232 172 408q8 14 24 18.5t31 -2.5t20 -24.5t-3 -32.5q-101 -171 -164 -389q-13 -42 -24.5 -92.5t-19.5 -110.5q-3 -25 -3 -46q0 -29 6 -52q11 -39 43 -39q8 0 18.5 3.5t31.5 19t45 42t58.5 79t71.5 122.5q38 70 67 134.5t41 98 t23.5 59.5t21 34.5t26.5 7.5q17 0 28.5 -12t11.5 -29q0 -5 -14 -41q-13 -40 -39 -94v-2q-73 -208 -73 -322q0 -35 6 -57.5t17.5 -30.5t19 -10t18.5 -2q69 0 185 150t194 335q4 9 -4 17q-36 39 -48 91q-7 30 -8 56q0 20 4 40q10 44 39.5 74t71.5 30q37 0 60.5 -26.5 t23.5 -76.5q0 -61 -33 -151q-3 -14 11 -21q25 -10 71 -10q76 0 141 46t136 128q10 13 27.5 15t29.5 -9q14 -12 15 -28.5t-11 -30.5q-80 -94 -160.5 -148.5t-177.5 -54.5q-61 0 -102 16q-16 4 -19 -8q-35 -78 -83 -161t-108 -166t-128 -136t-127 -53q-76 0 -115 59 q-23 38 -26 95q-2 11 -12.5 14t-16.5 -6q-106 -162 -209 -162q-52 0 -83 30t-40 75q-6 30 -6 68q-1 19 1 40zM868 698q-1 -9 6.5 -13.5t15.5 -1.5t9 11q4 28 4 37q0 19 -8 19q-13 -1 -22 -31q-4 -10 -5 -21z" />
<glyph unicode="x" horiz-adv-x="854" d="M-39 55q-6 22 6.5 39t34.5 17q21 0 33 -20q2 -4 4 -9q4 -15 14 -25q17 -17 36 -17q20 0 42 18q44 36 131 145q5 8 2 18q-48 98 -78 199q-3 9 -12.5 11t-15.5 -5q-71 -92 -105 -131q-10 -13 -27 -15t-30 9q-13 9 -15 26.5t9 30.5q107 132 160 205q5 5 2 12q-9 55 -9 103 q0 84 48.5 143t101.5 59q30 0 49.5 -20.5t19.5 -54.5q0 -79 -116 -250q-4 -4 -4 -13q26 -113 71 -221q5 -8 14 -8.5t15 6.5q38 50 91.5 122t85 113.5t72.5 94.5t67.5 82.5t55.5 58.5t52 42t43 14q17 2 30 -10t13 -29q2 -17 -10 -30t-29 -13q-28 -8 -97.5 -91.5t-192.5 -249 t-150 -200.5q-7 -11 -2 -18q28 -52 61 -93q46 -59 76 -59q33 0 82 35t100.5 91t85 97t64.5 82q10 13 27.5 15t29.5 -9q14 -9 16 -26t-8 -31q-125 -159 -200 -229q-113 -107 -197 -107q-87 0 -186 154q-3 7 -12 7.5t-15 -5.5q-33 -41 -58 -68t-58 -53t-61.5 -34t-61 1 t-62.5 41q-21 21 -33 53zM225 662q50 85 54 120q-20 -14 -37 -44t-17 -72v-4z" />
<glyph unicode="y" horiz-adv-x="772" d="M-266 -633q0 50 21 96.5t53.5 83.5t91 84t113 85t141 100.5t155.5 115.5q3 0 6 7q5 10 36.5 75t49.5 101q6 13 -5.5 21t-20.5 -3q-168 -174 -303 -174q-47 0 -81 17t-55 54q-16 30 -16 80q0 12 1 25q5 68 38 162q34 100 122.5 285t104.5 225q6 17 22.5 23.5t31.5 -1.5 q17 -6 23.5 -21t-1.5 -32q-19 -46 -106 -228.5t-121 -277.5q-17 -49 -25.5 -82t-10.5 -70.5t16 -57t57 -19.5q68 0 159 71.5t195 206.5q90 117 170 251t129 237q8 15 27 22t36 0q15 -8 20.5 -24t-1.5 -31q-95 -199 -305 -639q-6 -12 5 -19.5t21 1.5q120 110 226 233 q12 12 28.5 13t30.5 -11q12 -11 13 -28t-9 -29q-194 -219 -436 -412q-4 -4 -4 -6q-223 -446 -332 -575q-78 -90 -147 -90q-66 0 -115 44.5t-49 110.5zM-184 -633q0 -28 23.5 -51t58.5 -23q31 0 86 62q80 94 215 354q6 12 -4 20.5t-19 0.5q-188 -133 -223 -161 q-113 -91 -132 -163q-5 -19 -5 -39z" />
<glyph unicode="z" horiz-adv-x="808" d="M-117 -526q0 30 9 61t32 64.5t43 60t62 64.5t68 61t82.5 65t83.5 62t93 66.5t90 64.5q10 7 7 20q-19 35 -37 46q-28 20 -69 20q-29 0 -66 -10q-15 -6 -30.5 1.5t-21.5 22.5q-5 17 3.5 33t31.5 23q145 48 258 194q50 66 78.5 136.5t28.5 125.5q0 109 -94 109 q-39 0 -76 -11t-67 -27.5t-63 -47t-56.5 -57t-56.5 -72t-54 -77.5t-57 -87t-58 -88q-9 -14 -26 -17.5t-31 5.5q-13 10 -16 27t6 30q22 33 59.5 90.5t60 91.5t58.5 83t63 78.5t66 64t74.5 53t80.5 31t93 12.5q82 0 129 -52.5t47 -138.5q0 -69 -33 -151.5t-90 -159.5 q-68 -84 -135 -135q-6 -6 -5.5 -14.5t7.5 -12.5q39 -25 61 -65q3 -6 11 -7.5t14 3.5q194 149 250 233q10 13 27 16t30 -6q14 -11 17 -27t-7 -30q-77 -113 -303 -279q-9 -5 -6 -14q0 -7 1 -21.5t1 -21.5q0 -101 -51.5 -214.5t-128 -202.5t-167 -150t-165.5 -66q-6 -1 -12 -1 q-54 0 -97 40q-47 44 -47 105zM-35 -526q0 -26 21.5 -45t46.5 -17q74 5 170.5 82.5t172.5 197.5t89 230q1 10 -8 16.5t-17 0.5q-226 -160 -308 -231q-167 -144 -167 -234z" />
<glyph unicode="{" horiz-adv-x="716" d="M21.5 18.5q1.5 71.5 21 147.5t39 158t29 138t-10.5 87q-8 8 -28 8q-17 0 -29 12t-12 29t12 29t29 12q45 0 83 48.5t67 125.5t57.5 170.5t62.5 187t74.5 170.5t100 126t132.5 49q17 0 29 -12t12 -29q2 -17 -10 -29t-31 -12q-58 0 -106 -51.5t-84 -138.5t-65.5 -178 t-65 -195.5t-68.5 -165.5q-38 -69 -80 -105q-10 -10 -4 -20q24 -50 12 -144q-5 -38 -19.5 -100t-28.5 -114t-26.5 -111.5t-13 -92.5t10.5 -57q4 -5 15.5 -7.5t22.5 -4t20 -11t9 -26.5t-12 -29t-29 -12q-58 0 -90 41q-27 35 -25.5 106.5z" />
<glyph unicode="|" horiz-adv-x="602" d="M20 -537l478 1876q4 17 19 25.5t30 3.5q17 -3 25.5 -17t5.5 -32l-478 -1876q-3 -17 -17.5 -25.5t-31.5 -3.5q-17 3 -25.5 17t-5.5 32z" />
<glyph unicode="}" horiz-adv-x="710" d="M20 -82q3 15 14.5 25t26.5 10q69 1 122.5 54.5t91 137t71 171t79.5 170.5t99 120q10 7 6 19q-20 48 -14 141.5t27 188.5t40.5 197.5t26.5 169.5t-16 103q-4 9 -19 9q-33 0 -40 30q-4 20 7.5 36t30.5 16q56 0 84 -39q33 -40 33.5 -126t-17.5 -171.5t-43 -205.5t-32 -190 q-9 -108 12 -135q4 -6 21 -8.5t30 -11t13 -29.5q0 -19 -12 -31t-29 -12q-46 0 -84 -37.5t-67 -98t-57 -133.5t-61.5 -146.5t-73 -134t-98.5 -98.5t-131 -38q-19 0 -31.5 14t-9.5 33z" />
<glyph unicode="~" horiz-adv-x="600" d="M29 379q0 8 4 12q4 7 7.5 14t19 27.5t32 35t43 26.5t55.5 12q41 0 88 -24t88 -48t68 -24q19 0 36.5 9t28 19.5t23 19.5t21.5 9q11 0 19.5 -8.5t8.5 -20.5q0 -22 -45 -64t-102 -42q-42 0 -87 24t-85 48t-68 24q-29 0 -54.5 -19.5t-44 -39t-30.5 -19.5q-11 0 -18.5 8.5 t-7.5 20.5z" />
<glyph unicode="&#xa1;" horiz-adv-x="806" d="M23 16l544 1319q6 17 22.5 24t31.5 -1q15 -6 21.5 -22t0.5 -31l-545 -1319q-6 -15 -21 -22t-32 -1q-15 6 -21.5 22t-0.5 31zM672 1589l35 84q6 15 22 22t31 1t21.5 -22.5t0.5 -31.5l-34 -83q-6 -15 -22.5 -22t-31.5 -1t-21.5 22t-0.5 31z" />
<glyph unicode="&#xa2;" d="M20 393q0 117 59.5 254t163.5 245.5t218 133.5q9 0 12 10l16 64q3 17 18.5 26t33.5 4q15 -5 22.5 -19.5t3.5 -31.5l-8 -32q-2 -6 2 -13t10 -8q54 -13 91.5 -49.5t45 -88.5t-27.5 -112q-9 -13 -25.5 -17.5t-31.5 3.5q-14 9 -18 25.5t3 31.5q23 37 16 64t-26.5 42t-46.5 21 q-16 4 -19 -12l-163 -653q-1 -9 5.5 -15.5t14.5 -3.5q191 58 383 285q10 13 27.5 15t29.5 -9q14 -12 15.5 -28.5t-8.5 -30.5q-238 -280 -486 -326q-9 -3 -12 -12l-21 -86q-5 -14 -16.5 -22.5t-24.5 -8.5q-20 0 -31.5 15.5t-6.5 35.5l12 47q1 7 -4 14t-13 7q-105 3 -159 65.5 t-54 169.5zM102 393q0 -88 40 -122t120 -31q13 0 17 12l161 651q1 10 -7 17t-17 2q-124 -63 -219 -228t-95 -301z" />
<glyph unicode="&#xa3;" horiz-adv-x="1708" d="M20 111q0 81 69 124.5t167 43.5q81 0 166 -37q11 -4 18 6q124 156 308 461q6 9 1 16.5t-14 7.5h-192q-19 0 -31 13t-10 30q0 17 12 28t29 11h262q6 0 14 8q60 98 106 168.5t104.5 150.5t110 133.5t109.5 100.5t118.5 69.5t121.5 22.5q95 0 147 -49.5t52 -132.5 q0 -94 -89 -149q-15 -8 -31.5 -3.5t-25.5 19.5q-8 13 -3 29.5t20 25.5q47 27 47 78q0 100 -117 100q-58 0 -120 -32t-114.5 -79.5t-114.5 -125t-108 -145t-106 -162.5q-4 -9 0.5 -18t13.5 -9h156q17 0 29 -12t12 -29q-2 -17 -14 -29t-29 -12h-226q-8 0 -14 -6 q-211 -350 -336 -512q-4 -6 -2 -14t8 -11q25 -14 96.5 -58t111.5 -65t106.5 -50.5t133 -42.5t138.5 -13q163 0 344 76q15 6 31 -1t22 -22q7 -15 1 -31t-21 -22q-204 -84 -377 -84q-83 0 -161.5 17t-149 48.5t-122.5 60.5t-119.5 71t-102.5 61v-2q-147 -170 -281 -170 q-68 0 -111 44t-43 104zM102 109q0 -26 20 -44t54 -18q82 0 184 107q6 6 4.5 14.5t-10.5 11.5q-56 17 -98 17q-62 0 -108 -21.5t-46 -66.5z" />
<glyph unicode="&#xa4;" horiz-adv-x="819" d="M22 148.5q-4 16.5 5 31.5q39 71 120 111q8 3 9.5 11.5t-4.5 14.5q-74 77 -74 209q0 126 71 249.5t195 182.5q7 3 9 11t-3 14q-31 36 -43 78q-4 17 4 31.5t23 19.5q17 4 31.5 -4.5t19.5 -24.5q21 -73 113 -84q64 -9 129 17t96 78q9 14 25.5 17.5t31.5 -5.5q14 -9 18 -25.5 t-5 -31.5q-38 -55 -88 -86q-8 -5 -9.5 -13t4.5 -14q88 -74 88 -213q0 -133 -79.5 -263t-210.5 -186q-17 -7 -6 -26q29 -33 38 -80q5 -15 -4 -30t-26 -19q-17 -3 -31.5 6.5t-17.5 26.5q-5 30 -28 51t-43 27.5t-40 9.5q-70 11 -140.5 -16.5t-103.5 -84.5q-7 -15 -24.5 -19.5 t-30.5 3.5q-15 9 -19 25.5zM160 526q0 -93 46.5 -147.5t135.5 -54.5q78 0 148 37.5t116.5 96t73.5 129t27 136.5q0 90 -47.5 141t-137.5 51q-82 0 -152 -36t-115 -93.5t-70 -125.5t-25 -134z" />
<glyph unicode="&#xa5;" horiz-adv-x="1351" d="M20 338q0 17 12.5 28t28.5 11h263q13 0 16 12l102 322q3 7 -1.5 13.5t-12.5 6.5h-215q-17 0 -29 13t-12 30q1 17 13.5 28t29.5 11h223q9 0 14.5 7.5t2.5 15.5l-213 624q-5 18 2 32.5t24 20.5q16 5 31.5 -2t19.5 -24l205 -600q1 -9 10 -11t15 3l713 624q14 12 30 11 t27 -13q12 -12 11.5 -29.5t-13.5 -27.5l-686 -602q-8 -8 -4 -18.5t16 -10.5h119q19 0 30.5 -12t10.5 -31q0 -15 -12 -27t-29 -12h-215q-12 0 -15 -10l-104 -324q-2 -8 2.5 -14t13.5 -6h166q17 0 29 -12t12 -31q-1 -17 -13.5 -28t-29.5 -11h-200q-14 0 -17 -12l-160 -496 q-10 -29 -38 -29q-9 0 -13 2q-17 4 -24 19t-2 33l149 462q2 8 -3.5 14.5t-12.5 6.5h-226q-17 0 -29 12t-12 31z" />
<glyph unicode="&#xa6;" horiz-adv-x="602" d="M23 -537l172 682q4 17 19 25.5t30 3.5q17 -3 26 -17.5t4 -31.5l-174 -682q-3 -17 -17.5 -25.5t-31.5 -3.5q-17 3 -25 17t-3 32zM315 618l183 721q4 17 19 25.5t30 3.5q17 -3 25.5 -17t5.5 -32l-185 -721q-3 -13 -14 -22t-25 -9q-6 0 -10 2q-17 5 -25 18.5t-4 30.5z" />
<glyph unicode="&#xa7;" horiz-adv-x="1601" d="M20 -2q0 116 48 217.5t146.5 167.5t227.5 66q155 0 243.5 -94.5t88.5 -233.5q0 -131 -77 -225.5t-199 -94.5q-19 0 -31.5 13.5t-9.5 31.5q1 17 13 27t28 10q88 1 141 71.5t53 166.5q0 107 -65.5 176.5t-184.5 69.5q-107 0 -186 -55t-116.5 -137.5t-37.5 -176.5 q0 -153 94 -253.5t259 -100.5q136 0 251 68.5t180.5 182.5t65.5 246q0 76 -27 164t-66 171.5t-78 169t-66 184t-27 188.5q0 119 81 208t202 111q8 0 12 11q32 105 126 170t208 65q123 0 193.5 -85.5t70.5 -199.5q0 -109 -82 -188q-14 -10 -30.5 -9t-28.5 13q-11 12 -10 29.5 t14 27.5q55 52 55 127q0 84 -49 143.5t-133 59.5q-106 0 -186 -71t-80 -173q0 -83 27.5 -176.5t66.5 -178t78 -168.5t66.5 -177t27.5 -176q0 -176 -99.5 -323.5t-261.5 -213.5q-4 -2 -8 -6q-78 -126 -208.5 -201t-284.5 -75q-201 0 -318 126.5t-117 309.5zM770 1018 q0 -83 27 -176.5t66 -178l78 -169t66 -177.5t27 -176q0 -73 -14 -133q-3 -10 6.5 -17t17.5 1q90 71 140.5 173.5t50.5 215.5q0 74 -26 160t-63.5 167t-76 164t-67 178.5t-31.5 182.5q-2 8 -9 12.5t-14 1.5q-78 -26 -128 -88t-50 -141z" />
<glyph unicode="&#xa8;" horiz-adv-x="378" d="M57 1002q-12 19 0 45q7 15 25 19.5t31 -3.5q29 -15 19.5 -47.5t-40.5 -32.5q-23 0 -35 19zM250 1002q-12 19 0 45q7 15 24.5 19.5t30.5 -3.5q29 -15 20 -47.5t-40 -32.5q-23 0 -35 19z" />
<glyph unicode="&#xa9;" horiz-adv-x="790" d="M41 539q0 113 52.5 219.5t156 179t233.5 72.5q125 0 196 -74.5t71 -198.5q0 -82 -32.5 -167t-89 -155t-142 -114.5t-181.5 -44.5q-123 0 -193.5 78.5t-70.5 204.5zM123 539q0 -91 46.5 -146t135.5 -55q147 0 254 124q89 101 106 228q17 128 -52 193q-48 45 -130 45 t-151.5 -36t-114 -93.5t-69.5 -125.5t-25 -134zM197 547q0 92 67 188q75 107 170 107q58 0 87.5 -44t-1.5 -100q-7 -15 -24.5 -19t-30.5 5q-15 9 -19 25.5t5 29.5q9 16 -10 20q-33 6 -78 -36q-17 -16 -31 -35q-53 -72 -53 -141q0 -24 8 -32.5t26 -8.5q106 0 209 123 q11 12 28.5 13t29.5 -9q12 -11 13 -28.5t-9 -29.5q-126 -151 -271 -151q-52 0 -84 33t-32 90z" />
<glyph unicode="&#xab;" horiz-adv-x="1032" d="M20 340q9 89 86 141l533 346q14 9 30 5.5t25 -17.5q9 -13 6 -29.5t-18 -25.5l-532 -348q-41 -24 -48 -78q-3 -52 33 -88l232 -215q12 -12 13 -30t-11 -30q-10 -12 -28 -12.5t-30 10.5l-231 217q-32 29 -47.5 70t-12.5 84zM328 340q9 89 86 141l532 346q14 9 30 5.5 t25 -17.5q9 -13 6 -29.5t-18 -25.5l-532 -348q-40 -24 -47 -78q-3 -53 32 -88l232 -215q12 -12 13 -30t-11 -30q-10 -12 -28 -12.5t-30 10.5l-231 217q-66 60 -59 154z" />
<glyph unicode="&#xad;" horiz-adv-x="643" d="M43 455q5 17 19.5 29t31.5 12h477q17 0 25.5 -12t3.5 -29q-4 -18 -18.5 -29.5t-32.5 -11.5h-477q-17 0 -25 11t-4 30z" />
<glyph unicode="&#xae;" horiz-adv-x="749" d="M20 539q0 84 31.5 167t87 151t141 110.5t183.5 42.5q125 0 195.5 -74.5t70.5 -198.5q0 -82 -32.5 -167t-88.5 -155t-141.5 -114.5t-181.5 -44.5q-123 0 -194 78.5t-71 204.5zM102 539q0 -91 47 -146t136 -55q78 0 147.5 37.5t115.5 96t72.5 128.5t26.5 137 q0 90 -47 140.5t-137 50.5q-66 0 -124.5 -23.5t-101 -63t-73.5 -90t-46.5 -105t-15.5 -107.5zM188 492l121 339q6 20 33 27q88 15 155.5 -16t67.5 -107q0 -111 -176 -143l92 -84q12 -12 12.5 -29.5t-10.5 -29.5q-12 -12 -29.5 -13t-29.5 10l-123 117l-35 -100 q-6 -16 -21 -23.5t-32 -1.5q-16 6 -23.5 21.5t-1.5 32.5zM338 666q145 19 145 69q0 20 -18 31t-41 12t-45 0z" />
<glyph unicode="&#xb0;" horiz-adv-x="356" d="M21 1086.5q-9 55.5 30 125.5q35 59 99.5 77.5t121.5 -13.5q55 -30 70 -90t-27 -139q-25 -40 -63.5 -62t-81.5 -22q-55 0 -97.5 34t-51.5 89.5zM119 1105.5q6 -23.5 28 -36.5q21 -13 48 -5t45 38q14 23 8 48.5t-29 37.5q-23 13 -48.5 5.5t-39.5 -30.5q-18 -34 -12 -57.5z " />
<glyph unicode="&#xb1;" horiz-adv-x="944" d="M20 41q0 17 12 29t29 12h639q18 0 29.5 -11.5t11.5 -29.5t-11.5 -29.5t-29.5 -11.5h-639q-17 0 -29 12t-12 29zM178 610q2 17 14 29t29 12h299q11 0 15 11l112 274q16 36 55 22q15 -6 21.5 -22t-0.5 -31l-94 -231q-3 -8 1 -15.5t13 -7.5h238q17 0 29 -12t12 -29 q2 -17 -10 -29t-31 -12h-285q-11 0 -14 -10l-129 -309q-6 -17 -22.5 -24t-31.5 1q-15 6 -21.5 22.5t-0.5 31.5l110 266q3 8 -2 15t-14 7h-252q-17 0 -29 12t-12 29z" />
<glyph unicode="&#xb4;" horiz-adv-x="231" d="M31 932q-15 19 2 39l102 114q12 12 29.5 12.5t30.5 -10.5q12 -11 13 -28t-11 -29q-1 -2 -123 -102q-9 -9 -22 -8t-21 12z" />
<glyph unicode="&#xb7;" horiz-adv-x="589" d="M186 436.5q-5 16.5 2 30.5l17 29q8 15 24 20t31 -4q15 -7 19.5 -23.5t-3.5 -31.5l-14 -29q-9 -14 -25.5 -18.5t-31.5 2.5q-14 8 -19 24.5z" />
<glyph unicode="&#xb8;" horiz-adv-x="415" d="M23 -248q5 15 18.5 23.5t30.5 5.5q80 -21 135 -10q29 4 29 12q1 3 -12.5 7.5t-34 11.5t-31.5 14q-51 26 -45 75q3 40 35 67t67.5 36.5t76.5 18t50 12.5q11 5 23 0t16 -17q10 -21 -14 -39q-16 -9 -85.5 -33t-82.5 -40q-6 -6 1 -9t33 -10q61 -21 76 -47q26 -36 7 -78.5 t-82.5 -63t-184.5 12.5q-15 5 -22.5 19.5t-3.5 31.5zM342 25z" />
<glyph unicode="&#xbb;" horiz-adv-x="1030" d="M21.5 8.5q3.5 17.5 17.5 26.5l532 346q44 29 47 80q6 51 -32 86l-232 217q-12 10 -12.5 27.5t10.5 29.5q12 12 29 12.5t29 -10.5l231 -217q68 -62 59 -153q-6 -90 -84 -142l-532 -346q-14 -9 -31 -5.5t-26 17.5t-5.5 31.5zM328.5 8.5q3.5 17.5 17.5 26.5l533 346 q44 29 47 80q6 50 -33 86l-231 217q-12 10 -13 27.5t10 29.5q12 12 29 12.5t29 -10.5l231 -217q69 -63 60 -153q-6 -90 -84 -142l-533 -346q-14 -9 -31 -5.5t-26 17.5t-5.5 31.5z" />
<glyph unicode="&#xbf;" horiz-adv-x="1024" d="M20 389q0 76 16 145t54 140.5t66.5 116t87.5 127.5q63 89 96 138t84 143t84 185q4 15 20 22.5t31 2.5q17 -6 24 -22t1 -31q-35 -96 -87.5 -193.5t-87 -149t-98.5 -143.5q-46 -64 -68 -96.5t-54.5 -87.5t-47.5 -95t-27 -93.5t-12 -108.5q0 -167 82 -258.5t248 -91.5 q111 0 205.5 44.5t155 117t94 160.5t33.5 178q0 104 -49.5 178t-151.5 74q-65 0 -121 -19.5t-95 -53t-69 -77t-43 -91t-17.5 -96.5t7.5 -92q4 -17 -4.5 -30.5t-24.5 -18.5q-17 -4 -31.5 5t-17.5 26q-10 50 -11.5 101.5t13 103.5t37.5 99t61.5 88t84 71.5t105 47.5t126.5 17 q133 0 207.5 -94.5t74.5 -238.5q0 -81 -23.5 -162.5t-71 -157t-114 -134t-160 -93.5t-200.5 -35q-200 0 -306 115.5t-106 316.5zM571 1589l35 84q8 15 23 22t30 1q17 -6 24 -22.5t-1 -31.5l-35 -83q-6 -15 -22 -22t-31 -1t-22 22t-1 31z" />
<glyph unicode="&#xc0;" horiz-adv-x="2459" d="M-20 324q0 198 120 362t306 213q15 8 12 21q-10 44 -10 106q0 157 86.5 284.5t230.5 197t313 69.5q78 0 168 -22.5t172.5 -55.5t162 -67.5t162 -63.5t146.5 -37q117 -17 199 35q0 2 2 2q184 172 340 172h14q17 -3 26.5 -16.5t6.5 -30.5q-10 -53 -59.5 -272t-85 -422.5 t-45.5 -376.5q-31 -496 168 -670q14 -11 15 -27t-11 -30q-11 -12 -27.5 -13t-30.5 9q-226 197 -196 737q6 119 24 238q0 18 -16 18h-514q-11 0 -14 -8q-46 -80 -79 -135t-87.5 -142.5t-99 -150t-106.5 -142.5t-116.5 -136t-122 -114t-130.5 -94t-135 -58.5t-142 -22.5 q-187 0 -334 80.5t-230 227.5t-83 335zM61 324q0 -252 158.5 -407t407.5 -155q82 0 170.5 40.5t158.5 91.5t157 151.5t137 163t130 188.5t103.5 165.5t88.5 152.5q3 5 5 8q174 308 330 496q7 7 2.5 16.5t-15.5 9.5q-72 2 -161.5 28t-175 62.5t-172 73t-178.5 61.5t-169 25 q-109 0 -208.5 -34.5t-175 -95t-120.5 -149t-45 -190.5q0 -53 11 -96q0 -6 5 -10t11 -2q136 5 266.5 -56t200.5 -170q8 -12 21 -6q89 39 137.5 112t48.5 163q0 34 -14.5 73.5t-40.5 77t-69.5 62t-94.5 24.5q-18 0 -30 12.5t-11 30.5q0 17 12 28t29 11q56 0 106 -20.5 t84.5 -54t60 -75.5t38 -85.5t12.5 -83.5q0 -114 -63 -208t-173 -143q-12 -4 -8 -18q27 -98 6 -199t-82 -184q-107 -147 -303 -191q-17 -4 -31.5 5t-17.5 26q-5 15 4.5 30t26.5 19q168 38 256 160q47 65 65 146t-2 161q-4 16 -18 13q-162 -33 -289.5 32.5t-189.5 202.5 q-5 10 -21 10q-161 -41 -266 -184t-105 -315zM546 826.5q-5 -8.5 1 -17.5q51 -86 137 -128.5t197 -29.5q9 2 12.5 11.5t-2.5 17.5q-57 68 -146.5 108.5t-183.5 45.5q-10 1 -15 -7.5zM1710 793q-4 -9 0.5 -18t13.5 -9h465q6 0 11.5 4t5.5 10q14 87 34 187.5t33.5 161.5 t37.5 166.5t30 131.5q1 9 -6.5 16t-16.5 5q-74 -24 -164 -96v-2q-42 -37 -55 -45v-2q-181 -169 -389 -510zM2285 1798.5q6 16.5 21 22.5q17 8 34 0t23 -27l25 -111q3 -12 -4 -22.5t-19 -13.5q-10 -3 -19.5 2t-12.5 14l-47 104q-7 15 -1 31.5z" />
<glyph unicode="&#xc1;" horiz-adv-x="2459" d="M-20 324q0 198 120 362t306 213q15 8 12 21q-10 44 -10 106q0 157 86.5 284.5t230.5 197t313 69.5q78 0 168 -22.5t172.5 -55.5t162 -67.5t162 -63.5t146.5 -37q117 -17 199 35q0 2 2 2q184 172 340 172h14q17 -3 26.5 -16.5t6.5 -30.5q-10 -53 -59.5 -272t-85 -422.5 t-45.5 -376.5q-31 -496 168 -670q14 -11 15 -27t-11 -30q-11 -12 -27.5 -13t-30.5 9q-226 197 -196 737q6 119 24 238q0 18 -16 18h-514q-11 0 -14 -8q-46 -80 -79 -135t-87.5 -142.5t-99 -150t-106.5 -142.5t-116.5 -136t-122 -114t-130.5 -94t-135 -58.5t-142 -22.5 q-187 0 -334 80.5t-230 227.5t-83 335zM61 324q0 -252 158.5 -407t407.5 -155q82 0 170.5 40.5t158.5 91.5t157 151.5t137 163t130 188.5t103.5 165.5t88.5 152.5q3 5 5 8q174 308 330 496q7 7 2.5 16.5t-15.5 9.5q-72 2 -161.5 28t-175 62.5t-172 73t-178.5 61.5t-169 25 q-109 0 -208.5 -34.5t-175 -95t-120.5 -149t-45 -190.5q0 -53 11 -96q0 -6 5 -10t11 -2q136 5 266.5 -56t200.5 -170q8 -12 21 -6q89 39 137.5 112t48.5 163q0 34 -14.5 73.5t-40.5 77t-69.5 62t-94.5 24.5q-18 0 -30 12.5t-11 30.5q0 17 12 28t29 11q56 0 106 -20.5 t84.5 -54t60 -75.5t38 -85.5t12.5 -83.5q0 -114 -63 -208t-173 -143q-12 -4 -8 -18q27 -98 6 -199t-82 -184q-107 -147 -303 -191q-17 -4 -31.5 5t-17.5 26q-5 15 4.5 30t26.5 19q168 38 256 160q47 65 65 146t-2 161q-4 16 -18 13q-162 -33 -289.5 32.5t-189.5 202.5 q-5 10 -21 10q-161 -41 -266 -184t-105 -315zM546 826.5q-5 -8.5 1 -17.5q51 -86 137 -128.5t197 -29.5q9 2 12.5 11.5t-2.5 17.5q-57 68 -146.5 108.5t-183.5 45.5q-10 1 -15 -7.5zM1710 793q-4 -9 0.5 -18t13.5 -9h465q6 0 11.5 4t5.5 10q14 87 34 187.5t33.5 161.5 t37.5 166.5t30 131.5q1 9 -6.5 16t-16.5 5q-74 -24 -164 -96v-2q-42 -37 -55 -45v-2q-181 -169 -389 -510zM2261 1651q-15 19 2 39l102 114q12 12 29.5 12.5t30.5 -10.5q12 -11 13 -28t-11 -29q-1 -2 -123 -102q-9 -9 -22 -8t-21 12z" />
<glyph unicode="&#xc2;" horiz-adv-x="2459" d="M-20 324q0 198 120 362t306 213q15 8 12 21q-10 44 -10 106q0 157 86.5 284.5t230.5 197t313 69.5q78 0 168 -22.5t172.5 -55.5t162 -67.5t162 -63.5t146.5 -37q117 -17 199 35q0 2 2 2q184 172 340 172h14q17 -3 26.5 -16.5t6.5 -30.5q-10 -53 -59.5 -272t-85 -422.5 t-45.5 -376.5q-31 -496 168 -670q14 -11 15 -27t-11 -30q-11 -12 -27.5 -13t-30.5 9q-226 197 -196 737q6 119 24 238q0 18 -16 18h-514q-11 0 -14 -8q-46 -80 -79 -135t-87.5 -142.5t-99 -150t-106.5 -142.5t-116.5 -136t-122 -114t-130.5 -94t-135 -58.5t-142 -22.5 q-187 0 -334 80.5t-230 227.5t-83 335zM61 324q0 -252 158.5 -407t407.5 -155q82 0 170.5 40.5t158.5 91.5t157 151.5t137 163t130 188.5t103.5 165.5t88.5 152.5q3 5 5 8q174 308 330 496q7 7 2.5 16.5t-15.5 9.5q-72 2 -161.5 28t-175 62.5t-172 73t-178.5 61.5t-169 25 q-109 0 -208.5 -34.5t-175 -95t-120.5 -149t-45 -190.5q0 -53 11 -96q0 -6 5 -10t11 -2q136 5 266.5 -56t200.5 -170q8 -12 21 -6q89 39 137.5 112t48.5 163q0 34 -14.5 73.5t-40.5 77t-69.5 62t-94.5 24.5q-18 0 -30 12.5t-11 30.5q0 17 12 28t29 11q56 0 106 -20.5 t84.5 -54t60 -75.5t38 -85.5t12.5 -83.5q0 -114 -63 -208t-173 -143q-12 -4 -8 -18q27 -98 6 -199t-82 -184q-107 -147 -303 -191q-17 -4 -31.5 5t-17.5 26q-5 15 4.5 30t26.5 19q168 38 256 160q47 65 65 146t-2 161q-4 16 -18 13q-162 -33 -289.5 32.5t-189.5 202.5 q-5 10 -21 10q-161 -41 -266 -184t-105 -315zM546 826.5q-5 -8.5 1 -17.5q51 -86 137 -128.5t197 -29.5q9 2 12.5 11.5t-2.5 17.5q-57 68 -146.5 108.5t-183.5 45.5q-10 1 -15 -7.5zM1710 793q-4 -9 0.5 -18t13.5 -9h465q6 0 11.5 4t5.5 10q14 87 34 187.5t33.5 161.5 t37.5 166.5t30 131.5q1 9 -6.5 16t-16.5 5q-74 -24 -164 -96v-2q-42 -37 -55 -45v-2q-181 -169 -389 -510zM2124 1658q-1 18 10 30l164 178q16 19 41 12q25 -9 28 -33l31 -178q3 -19 -9 -33t-32 -14q-14 0 -26 10t-13 23l-12 63q-2 9 -11.5 12t-15.5 -4l-84 -90 q-11 -12 -28 -13t-29 9q-13 10 -14 28z" />
<glyph unicode="&#xc3;" horiz-adv-x="2459" d="M-20 324q0 198 120 362t306 213q15 8 12 21q-10 44 -10 106q0 157 86.5 284.5t230.5 197t313 69.5q78 0 168 -22.5t172.5 -55.5t162 -67.5t162 -63.5t146.5 -37q117 -17 199 35q0 2 2 2q184 172 340 172h14q17 -3 26.5 -16.5t6.5 -30.5q-10 -53 -59.5 -272t-85 -422.5 t-45.5 -376.5q-31 -496 168 -670q14 -11 15 -27t-11 -30q-11 -12 -27.5 -13t-30.5 9q-226 197 -196 737q6 119 24 238q0 18 -16 18h-514q-11 0 -14 -8q-46 -80 -79 -135t-87.5 -142.5t-99 -150t-106.5 -142.5t-116.5 -136t-122 -114t-130.5 -94t-135 -58.5t-142 -22.5 q-187 0 -334 80.5t-230 227.5t-83 335zM61 324q0 -252 158.5 -407t407.5 -155q82 0 170.5 40.5t158.5 91.5t157 151.5t137 163t130 188.5t103.5 165.5t88.5 152.5q3 5 5 8q174 308 330 496q7 7 2.5 16.5t-15.5 9.5q-72 2 -161.5 28t-175 62.5t-172 73t-178.5 61.5t-169 25 q-109 0 -208.5 -34.5t-175 -95t-120.5 -149t-45 -190.5q0 -53 11 -96q0 -6 5 -10t11 -2q136 5 266.5 -56t200.5 -170q8 -12 21 -6q89 39 137.5 112t48.5 163q0 34 -14.5 73.5t-40.5 77t-69.5 62t-94.5 24.5q-18 0 -30 12.5t-11 30.5q0 17 12 28t29 11q56 0 106 -20.5 t84.5 -54t60 -75.5t38 -85.5t12.5 -83.5q0 -114 -63 -208t-173 -143q-12 -4 -8 -18q27 -98 6 -199t-82 -184q-107 -147 -303 -191q-17 -4 -31.5 5t-17.5 26q-5 15 4.5 30t26.5 19q168 38 256 160q47 65 65 146t-2 161q-4 16 -18 13q-162 -33 -289.5 32.5t-189.5 202.5 q-5 10 -21 10q-161 -41 -266 -184t-105 -315zM546 826.5q-5 -8.5 1 -17.5q51 -86 137 -128.5t197 -29.5q9 2 12.5 11.5t-2.5 17.5q-57 68 -146.5 108.5t-183.5 45.5q-10 1 -15 -7.5zM1710 793q-4 -9 0.5 -18t13.5 -9h465q6 0 11.5 4t5.5 10q14 87 34 187.5t33.5 161.5 t37.5 166.5t30 131.5q1 9 -6.5 16t-16.5 5q-74 -24 -164 -96v-2q-42 -37 -55 -45v-2q-181 -169 -389 -510zM2183 1679l3 5q3 5 7 11t11 13.5t15 14t19 10.5t23 4q28 0 68.5 -24.5t54.5 -24.5q19 0 43 24q10 9 20 1t2 -19q-27 -45 -67 -45q-26 0 -67 24.5t-56 24.5 q-21 0 -53 -35q-9 -9 -19 -2t-4 18z" />
<glyph unicode="&#xc4;" horiz-adv-x="2459" d="M-20 324q0 198 120 362t306 213q15 8 12 21q-10 44 -10 106q0 157 86.5 284.5t230.5 197t313 69.5q78 0 168 -22.5t172.5 -55.5t162 -67.5t162 -63.5t146.5 -37q117 -17 199 35q0 2 2 2q184 172 340 172h14q17 -3 26.5 -16.5t6.5 -30.5q-10 -53 -59.5 -272t-85 -422.5 t-45.5 -376.5q-31 -496 168 -670q14 -11 15 -27t-11 -30q-11 -12 -27.5 -13t-30.5 9q-226 197 -196 737q6 119 24 238q0 18 -16 18h-514q-11 0 -14 -8q-46 -80 -79 -135t-87.5 -142.5t-99 -150t-106.5 -142.5t-116.5 -136t-122 -114t-130.5 -94t-135 -58.5t-142 -22.5 q-187 0 -334 80.5t-230 227.5t-83 335zM61 324q0 -252 158.5 -407t407.5 -155q82 0 170.5 40.5t158.5 91.5t157 151.5t137 163t130 188.5t103.5 165.5t88.5 152.5q3 5 5 8q174 308 330 496q7 7 2.5 16.5t-15.5 9.5q-72 2 -161.5 28t-175 62.5t-172 73t-178.5 61.5t-169 25 q-109 0 -208.5 -34.5t-175 -95t-120.5 -149t-45 -190.5q0 -53 11 -96q0 -6 5 -10t11 -2q136 5 266.5 -56t200.5 -170q8 -12 21 -6q89 39 137.5 112t48.5 163q0 34 -14.5 73.5t-40.5 77t-69.5 62t-94.5 24.5q-18 0 -30 12.5t-11 30.5q0 17 12 28t29 11q56 0 106 -20.5 t84.5 -54t60 -75.5t38 -85.5t12.5 -83.5q0 -114 -63 -208t-173 -143q-12 -4 -8 -18q27 -98 6 -199t-82 -184q-107 -147 -303 -191q-17 -4 -31.5 5t-17.5 26q-5 15 4.5 30t26.5 19q168 38 256 160q47 65 65 146t-2 161q-4 16 -18 13q-162 -33 -289.5 32.5t-189.5 202.5 q-5 10 -21 10q-161 -41 -266 -184t-105 -315zM546 826.5q-5 -8.5 1 -17.5q51 -86 137 -128.5t197 -29.5q9 2 12.5 11.5t-2.5 17.5q-57 68 -146.5 108.5t-183.5 45.5q-10 1 -15 -7.5zM1710 793q-4 -9 0.5 -18t13.5 -9h465q6 0 11.5 4t5.5 10q14 87 34 187.5t33.5 161.5 t37.5 166.5t30 131.5q1 9 -6.5 16t-16.5 5q-74 -24 -164 -96v-2q-42 -37 -55 -45v-2q-181 -169 -389 -510zM2195 1659q-12 19 0 45q7 15 25 19.5t31 -3.5q29 -15 19.5 -47.5t-40.5 -32.5q-23 0 -35 19zM2388 1659q-12 19 0 45q7 15 24.5 19.5t30.5 -3.5q29 -15 20 -47.5 t-40 -32.5q-23 0 -35 19z" />
<glyph unicode="&#xc5;" horiz-adv-x="2459" d="M-20 324q0 198 120 362t306 213q15 8 12 21q-10 44 -10 106q0 157 86.5 284.5t230.5 197t313 69.5q78 0 168 -22.5t172.5 -55.5t162 -67.5t162 -63.5t146.5 -37q117 -17 199 35q0 2 2 2q184 172 340 172h14q17 -3 26.5 -16.5t6.5 -30.5q-10 -53 -59.5 -272t-85 -422.5 t-45.5 -376.5q-31 -496 168 -670q14 -11 15 -27t-11 -30q-11 -12 -27.5 -13t-30.5 9q-226 197 -196 737q6 119 24 238q0 18 -16 18h-514q-11 0 -14 -8q-46 -80 -79 -135t-87.5 -142.5t-99 -150t-106.5 -142.5t-116.5 -136t-122 -114t-130.5 -94t-135 -58.5t-142 -22.5 q-187 0 -334 80.5t-230 227.5t-83 335zM61 324q0 -252 158.5 -407t407.5 -155q82 0 170.5 40.5t158.5 91.5t157 151.5t137 163t130 188.5t103.5 165.5t88.5 152.5q3 5 5 8q174 308 330 496q7 7 2.5 16.5t-15.5 9.5q-72 2 -161.5 28t-175 62.5t-172 73t-178.5 61.5t-169 25 q-109 0 -208.5 -34.5t-175 -95t-120.5 -149t-45 -190.5q0 -53 11 -96q0 -6 5 -10t11 -2q136 5 266.5 -56t200.5 -170q8 -12 21 -6q89 39 137.5 112t48.5 163q0 34 -14.5 73.5t-40.5 77t-69.5 62t-94.5 24.5q-18 0 -30 12.5t-11 30.5q0 17 12 28t29 11q56 0 106 -20.5 t84.5 -54t60 -75.5t38 -85.5t12.5 -83.5q0 -114 -63 -208t-173 -143q-12 -4 -8 -18q27 -98 6 -199t-82 -184q-107 -147 -303 -191q-17 -4 -31.5 5t-17.5 26q-5 15 4.5 30t26.5 19q168 38 256 160q47 65 65 146t-2 161q-4 16 -18 13q-162 -33 -289.5 32.5t-189.5 202.5 q-5 10 -21 10q-161 -41 -266 -184t-105 -315zM546 826.5q-5 -8.5 1 -17.5q51 -86 137 -128.5t197 -29.5q9 2 12.5 11.5t-2.5 17.5q-57 68 -146.5 108.5t-183.5 45.5q-10 1 -15 -7.5zM1710 793q-4 -9 0.5 -18t13.5 -9h465q6 0 11.5 4t5.5 10q14 87 34 187.5t33.5 161.5 t37.5 166.5t30 131.5q1 9 -6.5 16t-16.5 5q-74 -24 -164 -96v-2q-42 -37 -55 -45v-2q-181 -169 -389 -510zM2288 1729q0 44 33 81t77 37q36 0 66 -25.5t30 -66.5q0 -44 -33 -81.5t-77 -37.5q-35 0 -65.5 25.5t-30.5 67.5zM2349 1737q0 -17 13 -27t28 -10t29 15t14 32t-13 27 t-28 10q-18 0 -30.5 -14.5t-12.5 -32.5z" />
<glyph unicode="&#xc6;" horiz-adv-x="3244" d="M-20 328q0 197 120 360.5t306 214.5q12 3 12 19q-39 187 55 338q93 159 291 255.5t426 96.5q175 0 390.5 -52t504.5 -147q7 -2 16 2q156 129 289 129q27 0 39 -15.5t8 -33.5q-6 -27 -18.5 -86t-18.5 -86q-4 -15 10 -18q176 -58 203 -66q15 -4 19 8q65 132 184 206.5 t272 74.5q106 0 178 -66t72 -168q0 -126 -82 -184q-44 -32 -111.5 -42.5t-150.5 0t-150 25t-151 37.5q-17 4 -20 -12q-19 -97 8 -190q3 -10 14 -10q70 -6 131 -33q15 -6 23 -22.5t2 -31.5q-6 -17 -22 -23.5t-33 1.5q-69 27 -123 27q-148 0 -283.5 -77t-219 -208.5 t-83.5 -280.5q0 -136 55.5 -247.5t168 -180.5t263.5 -69q101 0 194.5 39.5t156.5 99t101 129.5t38 133q0 111 -71.5 176.5t-170.5 65.5q-87 0 -143 -53.5t-56 -149.5q0 -19 -12 -30.5t-31 -10.5q-17 0 -27.5 11.5t-10.5 29.5q0 132 80 208.5t200 76.5q128 0 226 -87.5 t98 -236.5q0 -80 -45 -166t-119.5 -156t-183 -115.5t-224.5 -45.5q-107 0 -199 30.5t-159.5 85t-115 127t-71.5 158.5t-24 178q0 216 143 392q6 8 2 17t-14 9h-479q-7 0 -15 -8q-110 -194 -203 -338.5t-200 -273.5q-321 -383 -612 -383q-285 0 -466 179t-181 464zM61 328 q0 -252 158.5 -406.5t407.5 -154.5q255 0 551 354q91 110 180 246t159.5 258t143.5 244.5t161 243t183 216.5q6 6 4 15t-10 12q-243 78 -444.5 126t-364.5 48q-207 0 -385.5 -85.5t-261.5 -225.5q-79 -132 -45 -287q3 -12 18 -12q136 5 266.5 -56t200.5 -170q8 -12 21 -6 q88 39 137 112.5t49 162.5q0 34 -14.5 73.5t-40.5 77t-69.5 62t-94.5 24.5q-19 0 -31 13t-10 30q0 17 12 28.5t29 10.5q56 0 106 -20.5t84.5 -54t60 -75.5t38 -85.5t12.5 -83.5q0 -114 -63 -206.5t-173 -142.5q-11 -7 -8 -20q14 -49 14 -109q0 -103 -43 -197t-134.5 -167.5 t-217.5 -100.5q-17 -4 -31.5 6t-17.5 27q-3 15 7.5 29.5t25.5 17.5q156 35 243 143.5t87 241.5q0 35 -11 84q-4 14 -20 11q-64 -11 -109 -11q-121 0 -218.5 66.5t-151.5 179.5q-3 14 -19 10q-106 -26 -191.5 -101.5t-132.5 -179.5t-47 -216zM545 813q46 -77 118 -119.5 t158 -42.5q24 0 60 4q9 2 12.5 10.5t-2.5 16.5q-57 69 -146.5 110t-183.5 46q-10 0 -15.5 -8.5t-0.5 -16.5zM1710 795q-4 -9 0.5 -17t13.5 -8h465q13 0 17 12q32 192 92 459q1 6 -2.5 11.5t-9.5 7.5q-27 9 -82 27.5t-82 27.5q-10 3 -17 -4q-187 -171 -395 -516z M2207.5 1382.5q1.5 -10.5 10.5 -14.5q15 -4 42.5 -13.5t41.5 -13.5q6 -3 12 1t8 12q2 9 6 25t6.5 28.5l4.5 22.5q3 10 -4.5 16.5t-16.5 3.5q-43 -13 -104 -51q-8 -6 -6.5 -16.5zM2296 829q-2 -11 7.5 -16.5t18.5 0.5q120 77 261 98q7 0 11.5 6.5t2.5 12.5q-26 106 -2 213 q4 16 -10 20l-189 60q-16 6 -20 -13q-45 -190 -80 -381zM2716 1231q-7 -18 10 -25q378 -105 483 -28q47 33 47 116q0 69 -48.5 110.5t-119.5 41.5q-120 0 -217.5 -55t-154.5 -160z" />
<glyph unicode="&#xc7;" horiz-adv-x="2267" d="M-20 834q0 82 27.5 163.5t80.5 145.5q135 168 385 168q90 0 199.5 -26t193 -57t203.5 -80q9 -4 14.5 -6.5t13.5 -5.5t15 -6q11 -4 18 7q163 202 395 318t441 116h2q159 0 260 -88t101 -236q0 -100 -38 -190t-114 -149.5t-172 -59.5q-122 0 -203 78q-4 4 -14 4 q-80 -21 -172 -21q-170 0 -453 113q-14 3 -20 -6q-193 -280 -193 -635q0 -226 106.5 -371.5t299.5 -202.5q99 -30 207 -30q94 0 175 26.5t136.5 70.5t95 101.5t58 119.5t18.5 124q0 98 -47.5 162.5t-136.5 64.5q-34 0 -74 -19t-79 -54.5t-65 -97t-26 -136.5q0 -18 2 -36.5 t4.5 -31.5t5 -23.5t4.5 -16.5l2 -6q5 -15 -2 -30.5t-22 -21.5q-17 -6 -32 1.5t-21 23.5l-3 8q-2 7 -5 20t-6.5 29.5t-6 39t-2.5 44.5q0 81 24 149t61 111t82 73t85.5 43t73.5 13q124 0 195 -88.5t71 -220.5q0 -94 -37 -186t-105 -168t-178.5 -123t-244.5 -47q-120 0 -230 35 q-218 63 -341.5 229.5t-123.5 421.5q0 363 193 661q4 6 2 14t-8 11q-131 53 -204.5 80.5t-183 54.5t-194.5 27q-209 0 -321 -137q-91 -112 -91 -258q0 -132 96.5 -229t235.5 -97q122 0 202.5 82t80.5 184q0 46 -19.5 84t-49.5 60.5t-63.5 34.5t-64.5 12q-17 0 -29 12t-12 29 t13 29t30 12q105 0 191 -76.5t86 -196.5q0 -87 -45.5 -166t-130.5 -130.5t-189 -51.5q-175 0 -294 121t-119 287zM1214 1097q2 -9 9 -12q247 -94 393 -94q61 0 108 8q8 2 12 9t1 14q-21 46 -21 96q0 92 52.5 148.5t119.5 56.5q56 0 93.5 -41.5t37.5 -112.5q0 -69 -39 -122 q-39 -52 -96 -80v-2q56 -35 121 -35q74 0 131 50t84 121t27 146q0 113 -77.5 177.5t-201.5 64.5h-2q-181 0 -388 -100t-361 -277q-5 -6 -3 -15zM1327 -496q5 15 18.5 23.5t30.5 5.5q80 -21 135 -10q29 4 29 12q1 3 -12.5 7.5t-34 11.5t-31.5 14q-51 26 -45 76q3 40 35.5 67 t68 36t76.5 17.5t50 12.5q11 5 23 0t16 -17q10 -20 -15 -39q-16 -9 -85.5 -33t-82.5 -40q-6 -6 3 -9q7 -3 32 -10q61 -21 76 -47q26 -36 7 -78.5t-82.5 -63t-184.5 12.5q-15 5 -23 19.5t-4 31.5zM1647 -223zM1809.5 1178.5q-25.5 -62.5 7.5 -136.5q8 -15 22 -8q98 52 98 135 q0 72 -49 72q-53 0 -78.5 -62.5z" />
<glyph unicode="&#xc8;" horiz-adv-x="1705" d="M-20 1163q0 82 32.5 164t91 150t152.5 110.5t207 42.5q78 0 165 -21.5t186.5 -66.5t170.5 -81.5t180 -98.5q10 -7 21 4q71 78 168.5 119t206.5 41q105 0 177 -66t72 -168q0 -86 -61 -147.5t-147 -61.5q-67 0 -157.5 39.5t-232.5 118.5q-11 5 -22 -6q-85 -151 -37 -309 q3 -9 14 -13q64 -3 133 -32q15 -6 21.5 -22.5t-0.5 -33.5q-7 -13 -23.5 -18.5t-29.5 0.5q-69 27 -123 27q-150 0 -286 -77.5t-219 -209t-83 -279.5q0 -101 33 -191t93.5 -158t154 -108t206.5 -40q82 0 159.5 25.5t136.5 68t104 94.5t68.5 107.5t23.5 105.5 q0 111 -71.5 176.5t-170.5 65.5q-88 0 -144 -54t-56 -151q0 -17 -12 -29t-29 -12q-17 2 -29 14t-12 29q1 132 82 208.5t200 76.5q81 0 153.5 -36t121.5 -111.5t49 -176.5q0 -80 -45 -166t-120 -156t-183.5 -115.5t-225.5 -45.5q-175 0 -306.5 81.5t-197 211.5t-65.5 286 q0 116 47 226.5t125.5 195t185 142.5t222.5 75q6 1 10 8t2 13q-42 182 53 346q7 14 -6 22q-100 57 -169.5 93t-160.5 77t-171 61.5t-150 20.5q-98 0 -178 -37t-127 -96t-72 -124t-25 -128q0 -141 83.5 -232t213.5 -91q122 0 204.5 73.5t82.5 169.5q0 84 -56.5 142.5 t-125.5 58.5q-17 0 -29 12t-12 31q0 17 12 28t29 11q104 0 184 -82t80 -201q0 -129 -106.5 -227t-262.5 -98q-164 0 -271 114t-107 291zM1249 1315q262 -150 353 -150q52 0 89.5 37.5t37.5 89.5q0 67 -48.5 109.5t-119.5 42.5q-193 0 -312 -129zM1517 1798.5q6 16.5 21 22.5 q17 8 34 0t23 -27l25 -111q3 -12 -4 -22.5t-19 -13.5q-10 -3 -19.5 2t-12.5 14l-47 104q-7 15 -1 31.5z" />
<glyph unicode="&#xc9;" horiz-adv-x="1705" d="M-20 1163q0 82 32.5 164t91 150t152.5 110.5t207 42.5q78 0 165 -21.5t186.5 -66.5t170.5 -81.5t180 -98.5q10 -7 21 4q71 78 168.5 119t206.5 41q105 0 177 -66t72 -168q0 -86 -61 -147.5t-147 -61.5q-67 0 -157.5 39.5t-232.5 118.5q-11 5 -22 -6q-85 -151 -37 -309 q3 -9 14 -13q64 -3 133 -32q15 -6 21.5 -22.5t-0.5 -33.5q-7 -13 -23.5 -18.5t-29.5 0.5q-69 27 -123 27q-150 0 -286 -77.5t-219 -209t-83 -279.5q0 -101 33 -191t93.5 -158t154 -108t206.5 -40q82 0 159.5 25.5t136.5 68t104 94.5t68.5 107.5t23.5 105.5 q0 111 -71.5 176.5t-170.5 65.5q-88 0 -144 -54t-56 -151q0 -17 -12 -29t-29 -12q-17 2 -29 14t-12 29q1 132 82 208.5t200 76.5q81 0 153.5 -36t121.5 -111.5t49 -176.5q0 -80 -45 -166t-120 -156t-183.5 -115.5t-225.5 -45.5q-175 0 -306.5 81.5t-197 211.5t-65.5 286 q0 116 47 226.5t125.5 195t185 142.5t222.5 75q6 1 10 8t2 13q-42 182 53 346q7 14 -6 22q-100 57 -169.5 93t-160.5 77t-171 61.5t-150 20.5q-98 0 -178 -37t-127 -96t-72 -124t-25 -128q0 -141 83.5 -232t213.5 -91q122 0 204.5 73.5t82.5 169.5q0 84 -56.5 142.5 t-125.5 58.5q-17 0 -29 12t-12 31q0 17 12 28t29 11q104 0 184 -82t80 -201q0 -129 -106.5 -227t-262.5 -98q-164 0 -271 114t-107 291zM1249 1315q262 -150 353 -150q52 0 89.5 37.5t37.5 89.5q0 67 -48.5 109.5t-119.5 42.5q-193 0 -312 -129zM1479 1651q-15 19 2 39 l102 114q12 12 29 12.5t30 -10.5q12 -11 13.5 -28t-10.5 -29q-1 -2 -123 -102q-9 -9 -22 -8t-21 12z" />
<glyph unicode="&#xca;" horiz-adv-x="1705" d="M-20 1163q0 82 32.5 164t91 150t152.5 110.5t207 42.5q78 0 165 -21.5t186.5 -66.5t170.5 -81.5t180 -98.5q10 -7 21 4q71 78 168.5 119t206.5 41q105 0 177 -66t72 -168q0 -86 -61 -147.5t-147 -61.5q-67 0 -157.5 39.5t-232.5 118.5q-11 5 -22 -6q-85 -151 -37 -309 q3 -9 14 -13q64 -3 133 -32q15 -6 21.5 -22.5t-0.5 -33.5q-7 -13 -23.5 -18.5t-29.5 0.5q-69 27 -123 27q-150 0 -286 -77.5t-219 -209t-83 -279.5q0 -101 33 -191t93.5 -158t154 -108t206.5 -40q82 0 159.5 25.5t136.5 68t104 94.5t68.5 107.5t23.5 105.5 q0 111 -71.5 176.5t-170.5 65.5q-88 0 -144 -54t-56 -151q0 -17 -12 -29t-29 -12q-17 2 -29 14t-12 29q1 132 82 208.5t200 76.5q81 0 153.5 -36t121.5 -111.5t49 -176.5q0 -80 -45 -166t-120 -156t-183.5 -115.5t-225.5 -45.5q-175 0 -306.5 81.5t-197 211.5t-65.5 286 q0 116 47 226.5t125.5 195t185 142.5t222.5 75q6 1 10 8t2 13q-42 182 53 346q7 14 -6 22q-100 57 -169.5 93t-160.5 77t-171 61.5t-150 20.5q-98 0 -178 -37t-127 -96t-72 -124t-25 -128q0 -141 83.5 -232t213.5 -91q122 0 204.5 73.5t82.5 169.5q0 84 -56.5 142.5 t-125.5 58.5q-17 0 -29 12t-12 31q0 17 12 28t29 11q104 0 184 -82t80 -201q0 -129 -106.5 -227t-262.5 -98q-164 0 -271 114t-107 291zM1249 1315q262 -150 353 -150q52 0 89.5 37.5t37.5 89.5q0 67 -48.5 109.5t-119.5 42.5q-193 0 -312 -129zM1417.5 1658q-1.5 18 9.5 30 l164 178q16 19 41 12q26 -10 29 -33l31 -178q3 -19 -9 -33t-32 -14q-14 0 -26 10t-13 23l-13 63q-2 9 -11 12t-15 -4l-84 -90q-11 -12 -28 -13t-29 9q-13 10 -14.5 28z" />
<glyph unicode="&#xcb;" horiz-adv-x="1705" d="M-20 1163q0 82 32.5 164t91 150t152.5 110.5t207 42.5q78 0 165 -21.5t186.5 -66.5t170.5 -81.5t180 -98.5q10 -7 21 4q71 78 168.5 119t206.5 41q105 0 177 -66t72 -168q0 -86 -61 -147.5t-147 -61.5q-67 0 -157.5 39.5t-232.5 118.5q-11 5 -22 -6q-85 -151 -37 -309 q3 -9 14 -13q64 -3 133 -32q15 -6 21.5 -22.5t-0.5 -33.5q-7 -13 -23.5 -18.5t-29.5 0.5q-69 27 -123 27q-150 0 -286 -77.5t-219 -209t-83 -279.5q0 -101 33 -191t93.5 -158t154 -108t206.5 -40q82 0 159.5 25.5t136.5 68t104 94.5t68.5 107.5t23.5 105.5 q0 111 -71.5 176.5t-170.5 65.5q-88 0 -144 -54t-56 -151q0 -17 -12 -29t-29 -12q-17 2 -29 14t-12 29q1 132 82 208.5t200 76.5q81 0 153.5 -36t121.5 -111.5t49 -176.5q0 -80 -45 -166t-120 -156t-183.5 -115.5t-225.5 -45.5q-175 0 -306.5 81.5t-197 211.5t-65.5 286 q0 116 47 226.5t125.5 195t185 142.5t222.5 75q6 1 10 8t2 13q-42 182 53 346q7 14 -6 22q-100 57 -169.5 93t-160.5 77t-171 61.5t-150 20.5q-98 0 -178 -37t-127 -96t-72 -124t-25 -128q0 -141 83.5 -232t213.5 -91q122 0 204.5 73.5t82.5 169.5q0 84 -56.5 142.5 t-125.5 58.5q-17 0 -29 12t-12 31q0 17 12 28t29 11q104 0 184 -82t80 -201q0 -129 -106.5 -227t-262.5 -98q-164 0 -271 114t-107 291zM1249 1315q262 -150 353 -150q52 0 89.5 37.5t37.5 89.5q0 67 -48.5 109.5t-119.5 42.5q-193 0 -312 -129zM1421 1659q-12 19 0 45 q7 15 25 19.5t31 -3.5q29 -15 19.5 -47.5t-40.5 -32.5q-23 0 -35 19zM1614 1659q-12 19 0 45q7 15 24.5 19.5t30.5 -3.5q29 -15 20 -47.5t-40 -32.5q-23 0 -35 19z" />
<glyph unicode="&#xcc;" horiz-adv-x="1615" d="M-20 324q0 153 72.5 289t202 220.5t282.5 84.5q72 0 144.5 -18.5t137 -56t114.5 -89t79.5 -122.5t29.5 -151q0 -159 -103.5 -290.5t-289.5 -172.5q-17 -4 -31.5 5t-17.5 26q-5 15 4.5 30t26.5 19q156 34 243 142t87 241q0 106 -64 189t-159.5 124.5t-200.5 41.5 q-130 0 -241 -73t-173 -190.5t-62 -248.5q0 -252 158.5 -407t407.5 -155q81 0 157.5 30t136 69.5t126 121t109 141.5t105 176.5t94 180t94.5 195.5q1 1 1 2q85 179 149 301t132 221q3 6 0.5 14t-9.5 11q-54 24 -130.5 68.5t-130.5 76t-123 56t-128 24.5q-161 0 -249.5 -80.5 t-88.5 -202.5q0 -50 19.5 -99t66 -86.5t109.5 -37.5q94 0 153.5 53t59.5 123q0 53 -23.5 87t-72.5 40q-17 1 -28 14.5t-9 30.5t15 27.5t30 7.5q81 -9 125.5 -66.5t44.5 -140.5q0 -127 -105 -200q-92 -66 -211 -55q-127 12 -197 106q-58 79 -58 196q0 156 112.5 260.5 t306.5 104.5q76 0 160 -31.5t157 -75t146 -86t153.5 -68t153.5 -18.5q17 2 30.5 -8.5t14.5 -27.5q2 -18 -8.5 -31.5t-27.5 -14.5q-76 -6 -158 15q-11 0 -16 -8q-48 -67 -102 -164t-90.5 -170.5t-98.5 -202.5q-146 -304 -217 -428q-192 -334 -399 -454q-132 -78 -281 -78 q-139 0 -258.5 46.5t-205 130t-134.5 204t-49 262.5zM1762.5 1798.5q6.5 16.5 21.5 22.5q17 8 34 0t23 -27l25 -111q3 -12 -4 -22.5t-19 -13.5q-10 -3 -20 2t-13 14l-47 104q-7 15 -0.5 31.5z" />
<glyph unicode="&#xcd;" horiz-adv-x="1615" d="M-20 324q0 153 72.5 289t202 220.5t282.5 84.5q72 0 144.5 -18.5t137 -56t114.5 -89t79.5 -122.5t29.5 -151q0 -159 -103.5 -290.5t-289.5 -172.5q-17 -4 -31.5 5t-17.5 26q-5 15 4.5 30t26.5 19q156 34 243 142t87 241q0 106 -64 189t-159.5 124.5t-200.5 41.5 q-130 0 -241 -73t-173 -190.5t-62 -248.5q0 -252 158.5 -407t407.5 -155q81 0 157.5 30t136 69.5t126 121t109 141.5t105 176.5t94 180t94.5 195.5q1 1 1 2q85 179 149 301t132 221q3 6 0.5 14t-9.5 11q-54 24 -130.5 68.5t-130.5 76t-123 56t-128 24.5q-161 0 -249.5 -80.5 t-88.5 -202.5q0 -50 19.5 -99t66 -86.5t109.5 -37.5q94 0 153.5 53t59.5 123q0 53 -23.5 87t-72.5 40q-17 1 -28 14.5t-9 30.5t15 27.5t30 7.5q81 -9 125.5 -66.5t44.5 -140.5q0 -127 -105 -200q-92 -66 -211 -55q-127 12 -197 106q-58 79 -58 196q0 156 112.5 260.5 t306.5 104.5q76 0 160 -31.5t157 -75t146 -86t153.5 -68t153.5 -18.5q17 2 30.5 -8.5t14.5 -27.5q2 -18 -8.5 -31.5t-27.5 -14.5q-76 -6 -158 15q-11 0 -16 -8q-48 -67 -102 -164t-90.5 -170.5t-98.5 -202.5q-146 -304 -217 -428q-192 -334 -399 -454q-132 -78 -281 -78 q-139 0 -258.5 46.5t-205 130t-134.5 204t-49 262.5zM1821 1651q-15 19 2 39l102 114q12 12 29.5 12.5t30.5 -10.5q12 -11 13 -28t-11 -29q-1 -2 -123 -102q-9 -9 -22 -8t-21 12z" />
<glyph unicode="&#xce;" horiz-adv-x="1615" d="M-20 324q0 153 72.5 289t202 220.5t282.5 84.5q72 0 144.5 -18.5t137 -56t114.5 -89t79.5 -122.5t29.5 -151q0 -159 -103.5 -290.5t-289.5 -172.5q-17 -4 -31.5 5t-17.5 26q-5 15 4.5 30t26.5 19q156 34 243 142t87 241q0 106 -64 189t-159.5 124.5t-200.5 41.5 q-130 0 -241 -73t-173 -190.5t-62 -248.5q0 -252 158.5 -407t407.5 -155q81 0 157.5 30t136 69.5t126 121t109 141.5t105 176.5t94 180t94.5 195.5q1 1 1 2q85 179 149 301t132 221q3 6 0.5 14t-9.5 11q-54 24 -130.5 68.5t-130.5 76t-123 56t-128 24.5q-161 0 -249.5 -80.5 t-88.5 -202.5q0 -50 19.5 -99t66 -86.5t109.5 -37.5q94 0 153.5 53t59.5 123q0 53 -23.5 87t-72.5 40q-17 1 -28 14.5t-9 30.5t15 27.5t30 7.5q81 -9 125.5 -66.5t44.5 -140.5q0 -127 -105 -200q-92 -66 -211 -55q-127 12 -197 106q-58 79 -58 196q0 156 112.5 260.5 t306.5 104.5q76 0 160 -31.5t157 -75t146 -86t153.5 -68t153.5 -18.5q17 2 30.5 -8.5t14.5 -27.5q2 -18 -8.5 -31.5t-27.5 -14.5q-76 -6 -158 15q-11 0 -16 -8q-48 -67 -102 -164t-90.5 -170.5t-98.5 -202.5q-146 -304 -217 -428q-192 -334 -399 -454q-132 -78 -281 -78 q-139 0 -258.5 46.5t-205 130t-134.5 204t-49 262.5zM1706 1658q-1 18 10 30l164 178q16 19 41 12q26 -10 29 -33l30 -178q3 -19 -9 -33t-32 -14q-14 0 -25.5 10t-12.5 23l-13 63q-2 9 -11 12t-15 -4l-84 -90q-11 -12 -28.5 -13t-29.5 9q-13 10 -14 28z" />
<glyph unicode="&#xcf;" horiz-adv-x="1615" d="M-20 324q0 153 72.5 289t202 220.5t282.5 84.5q72 0 144.5 -18.5t137 -56t114.5 -89t79.5 -122.5t29.5 -151q0 -159 -103.5 -290.5t-289.5 -172.5q-17 -4 -31.5 5t-17.5 26q-5 15 4.5 30t26.5 19q156 34 243 142t87 241q0 106 -64 189t-159.5 124.5t-200.5 41.5 q-130 0 -241 -73t-173 -190.5t-62 -248.5q0 -252 158.5 -407t407.5 -155q81 0 157.5 30t136 69.5t126 121t109 141.5t105 176.5t94 180t94.5 195.5q1 1 1 2q85 179 149 301t132 221q3 6 0.5 14t-9.5 11q-54 24 -130.5 68.5t-130.5 76t-123 56t-128 24.5q-161 0 -249.5 -80.5 t-88.5 -202.5q0 -50 19.5 -99t66 -86.5t109.5 -37.5q94 0 153.5 53t59.5 123q0 53 -23.5 87t-72.5 40q-17 1 -28 14.5t-9 30.5t15 27.5t30 7.5q81 -9 125.5 -66.5t44.5 -140.5q0 -127 -105 -200q-92 -66 -211 -55q-127 12 -197 106q-58 79 -58 196q0 156 112.5 260.5 t306.5 104.5q76 0 160 -31.5t157 -75t146 -86t153.5 -68t153.5 -18.5q17 2 30.5 -8.5t14.5 -27.5q2 -18 -8.5 -31.5t-27.5 -14.5q-76 -6 -158 15q-11 0 -16 -8q-48 -67 -102 -164t-90.5 -170.5t-98.5 -202.5q-146 -304 -217 -428q-192 -334 -399 -454q-132 -78 -281 -78 q-139 0 -258.5 46.5t-205 130t-134.5 204t-49 262.5zM1718 1659q-12 19 0 45q7 15 25 19.5t31 -3.5q29 -15 19.5 -47.5t-40.5 -32.5q-23 0 -35 19zM1911 1659q-12 19 0 45q7 15 24.5 19.5t30.5 -3.5q29 -15 20 -47.5t-40 -32.5q-23 0 -35 19z" />
<glyph unicode="&#xd0;" horiz-adv-x="2877" d="M-20 324q0 200 123 366t313 213q4 0 4 6q-12 59 -12 117q0 157 86.5 284.5t230.5 197t313 69.5q78 0 168 -22.5t172.5 -55.5t162 -67.5t162 -63.5t146.5 -37q118 -18 199 37q184 172 342 172q101 0 189 -51t153 -146q125 -188 125 -479q0 -150 -37.5 -298.5t-103 -277.5 t-158.5 -240t-201.5 -190t-234.5 -124t-254 -45q-90 0 -160.5 26.5t-113.5 71t-65 99.5t-22 116q0 126 80 230t185 104q20 0 33 -16.5t7 -36.5q-10 -29 -40 -29q-67 0 -125 -80t-58 -172q0 -100 72.5 -165.5t206.5 -65.5q173 0 340.5 92t291 241.5t199.5 350.5t76 409 q0 268 -113 434q-108 160 -272 160q-103 0 -236 -106q-35 -35 -55 -49q-192 -179 -401 -533q-7 -13 -24.5 -42.5t-26.5 -45.5q-63 -110 -110 -188t-122 -191.5t-141 -196.5t-151 -168t-167 -141q-168 -116 -329 -116q-187 0 -334.5 81t-230 228t-82.5 334zM61 324 q0 -252 158.5 -407t407.5 -155q81 0 167 37.5t160 95.5t153.5 144.5t139.5 166.5t126.5 182t107 169.5t87.5 149.5q6 11 9 16q15 30 51 90q146 245 293 422q3 3 1.5 6.5t-5.5 3.5q-33 -3 -78 4q-68 9 -153 38.5t-164.5 63.5t-160.5 67t-166 55t-157 22q-108 0 -207.5 -34.5 t-175.5 -95t-121 -149t-45 -190.5q0 -50 13 -104q0 -7 6 -7q142 8 276.5 -54t202.5 -177q5 -5 8 -2q92 38 143.5 113t51.5 166q0 34 -14.5 73.5t-40.5 77t-69.5 62t-94.5 24.5q-28 0 -38.5 27t15.5 53q0 2 4 2q60 3 112.5 -16t89.5 -52.5t64.5 -76.5t40.5 -88t13 -86 q0 -117 -65 -211.5t-179 -141.5q-5 -5 -2 -8q16 -59 16 -117q0 -100 -41 -193t-132.5 -168.5t-219.5 -103.5q-17 -4 -31.5 5t-17.5 26q-5 15 4.5 30t26.5 19q156 34 243 142.5t87 242.5q0 45 -13 92q-5 5 -8 5q-60 -13 -119 -13q-123 0 -221.5 68.5t-150.5 185.5q-4 4 -7 4 q-165 -38 -273 -182t-108 -319zM537 825q44 -83 119.5 -129.5t164.5 -46.5q41 0 78 6q3 0 4.5 3.5t-0.5 5.5q-58 80 -157 125t-203 47q-3 0 -5 -4t-1 -7zM1214 592q-5 -17 3.5 -29t25.5 -12h486q17 0 31.5 12t19.5 29q4 17 -5 29t-26 12h-483q-17 0 -32.5 -12t-19.5 -29z " />
<glyph unicode="&#xd1;" horiz-adv-x="2136" d="M-20 326q0 129 54 249t151.5 207t220.5 119q6 2 9.5 7.5t2.5 11.5q-10 44 -10 108q0 156 86.5 282.5t230.5 196.5t313 70q79 0 184 -33t193.5 -75.5t215 -101t216.5 -91.5q24 -7 31 -31q3 -21 -8 -35q-24 -31 -68 -103.5t-73 -135.5q-115 -254 -115 -537q0 -232 22 -377 q2 -12 14 -14t17 10q182 444 395 764q62 94 118 171.5t127 164.5t139 155.5t150.5 134.5t164.5 112.5t178.5 79t195.5 42.5q17 2 31 -9t15 -28q2 -17 -9 -30.5t-28 -14.5q-108 -11 -211 -49.5t-195 -101.5t-173.5 -135.5t-161 -167.5t-142 -180t-131.5 -189 q-77 -118 -152 -256t-125 -244.5t-92.5 -207.5t-59 -144.5t-20.5 -56.5q-10 -27 -39 -27q-18 0 -32 17q-25 38 -43 120q-35 169 -35 461q0 41 4 127q1 13 -12 17t-19 -7q-147 -284 -284 -471q-297 -400 -592 -417q-185 -10 -333.5 71t-232 231.5t-83.5 340.5zM61 326 q0 -255 159.5 -415t404.5 -147q253 12 530 386q92 124 178 274.5t143 268t134.5 259.5t150.5 248q5 6 2 14t-10 11q-78 32 -245.5 112t-276.5 119t-193 39q-144 0 -269 -57.5t-202.5 -166t-77.5 -243.5q0 -53 11 -98q0 -12 16 -12q136 5 266.5 -55.5t200.5 -170.5 q6 -10 21 -6q89 41 137.5 114.5t48.5 162.5q0 46 -23.5 99t-76 95.5t-119.5 42.5q-17 0 -29 12t-12 29t12 29t29 12q136 0 225 -115q35 -44 55.5 -99t20.5 -105q0 -115 -63 -208t-173 -143q-11 -7 -8 -20q14 -49 14 -109q0 -103 -43 -196.5t-134 -167t-216 -101.5 q-18 -3 -32 5.5t-17 25.5q-4 17 5 31.5t26 17.5q156 35 243 143.5t87 241.5q0 35 -11 84q-4 15 -18 11q-64 -11 -111 -11q-121 0 -218.5 67t-149.5 181q-8 11 -21 8q-105 -26 -190.5 -101t-133 -179.5t-47.5 -216.5zM547 811q44 -75 116 -118.5t158 -43.5q24 0 60 4 q9 2 12.5 10.5t-2.5 16.5q-56 69 -146.5 110t-183.5 46q-4 -7 -7 -12.5t-7 -12.5zM2122 1679l3 5q3 5 7 11t11 13.5t15 14t19 10.5t23 4q28 0 68 -24.5t54 -24.5q19 0 43 24q10 9 20.5 1t2.5 -19q-27 -45 -68 -45q-26 0 -67 24.5t-55 24.5q-22 0 -54 -35q-9 -9 -18.5 -2 t-3.5 18z" />
<glyph unicode="&#xd2;" horiz-adv-x="1542" d="M-401 47q4 15 19 23.5t30 5.5q195 -55 375 -6q6 2 9.5 8t0.5 12q-49 134 -49 301q0 136 34.5 277.5t97.5 274.5t159 250.5t212 205.5t263.5 139t306.5 51q17 0 29 -11.5t14 -27.5q0 -19 -12 -31t-29 -12q-148 0 -284.5 -48t-243.5 -130.5t-196 -192t-147 -234t-90 -255.5 t-32 -256q0 -148 45 -272q3 -17 22 -10q90 42 166 90q12 8 6 20q-26 79 -26 187q0 115 33.5 236.5t98 232.5t149.5 199.5t197.5 141t233.5 52.5q127 0 229 -51t166.5 -140t99 -204t34.5 -246q0 -172 -56 -338.5t-159 -296.5q-118 -149 -283 -229t-363 -80q-335 0 -514 211 q-27 31 -65 94q-7 11 -19 8q-209 -64 -434 0q-17 4 -25 19t-3 32zM160 25q-2 -7 2 -13q22 -37 45 -65q158 -183 452 -183q358 0 582 279q95 122 146 276t51 308q0 114 -28 213.5t-81.5 177.5t-140.5 123t-197 45q-106 0 -205.5 -48t-175 -129t-133 -181.5t-87.5 -210 t-30 -211.5q0 -70 15 -132q2 -8 10 -11t14 1q113 73 197 110.5t174 37.5q79 0 143 -22t106 -71t42 -118q0 -102 -94 -182t-244 -80q-256 0 -369 180q-11 11 -22 4q-77 -47 -164 -88q-6 -3 -8 -10zM422 162q95 -142 301 -142q116 0 186 56.5t70 124.5q0 45 -33.5 75.5 t-78.5 42t-97 11.5q-54 0 -116.5 -23t-104.5 -47.5t-121 -75.5q-14 -7 -6 -22zM925 1798.5q6 16.5 21 22.5q17 8 34.5 0t23.5 -27l24 -111q3 -12 -3.5 -22.5t-18.5 -13.5q-10 -3 -20 2t-13 14l-47 104q-7 15 -1 31.5z" />
<glyph unicode="&#xd3;" horiz-adv-x="1542" d="M-401 47q4 15 19 23.5t30 5.5q195 -55 375 -6q6 2 9.5 8t0.5 12q-49 134 -49 301q0 136 34.5 277.5t97.5 274.5t159 250.5t212 205.5t263.5 139t306.5 51q17 0 29 -11.5t14 -27.5q0 -19 -12 -31t-29 -12q-148 0 -284.5 -48t-243.5 -130.5t-196 -192t-147 -234t-90 -255.5 t-32 -256q0 -148 45 -272q3 -17 22 -10q90 42 166 90q12 8 6 20q-26 79 -26 187q0 115 33.5 236.5t98 232.5t149.5 199.5t197.5 141t233.5 52.5q127 0 229 -51t166.5 -140t99 -204t34.5 -246q0 -172 -56 -338.5t-159 -296.5q-118 -149 -283 -229t-363 -80q-335 0 -514 211 q-27 31 -65 94q-7 11 -19 8q-209 -64 -434 0q-17 4 -25 19t-3 32zM160 25q-2 -7 2 -13q22 -37 45 -65q158 -183 452 -183q358 0 582 279q95 122 146 276t51 308q0 114 -28 213.5t-81.5 177.5t-140.5 123t-197 45q-106 0 -205.5 -48t-175 -129t-133 -181.5t-87.5 -210 t-30 -211.5q0 -70 15 -132q2 -8 10 -11t14 1q113 73 197 110.5t174 37.5q79 0 143 -22t106 -71t42 -118q0 -102 -94 -182t-244 -80q-256 0 -369 180q-11 11 -22 4q-77 -47 -164 -88q-6 -3 -8 -10zM422 162q95 -142 301 -142q116 0 186 56.5t70 124.5q0 45 -33.5 75.5 t-78.5 42t-97 11.5q-54 0 -116.5 -23t-104.5 -47.5t-121 -75.5q-14 -7 -6 -22zM942 1651q-15 19 2 39l103 114q12 12 29 12.5t30 -10.5q12 -11 13 -28t-11 -29q-1 -2 -123 -102q-9 -9 -22 -8t-21 12z" />
<glyph unicode="&#xd4;" horiz-adv-x="1542" d="M-401 47q4 15 19 23.5t30 5.5q195 -55 375 -6q6 2 9.5 8t0.5 12q-49 134 -49 301q0 136 34.5 277.5t97.5 274.5t159 250.5t212 205.5t263.5 139t306.5 51q17 0 29 -11.5t14 -27.5q0 -19 -12 -31t-29 -12q-148 0 -284.5 -48t-243.5 -130.5t-196 -192t-147 -234t-90 -255.5 t-32 -256q0 -148 45 -272q3 -17 22 -10q90 42 166 90q12 8 6 20q-26 79 -26 187q0 115 33.5 236.5t98 232.5t149.5 199.5t197.5 141t233.5 52.5q127 0 229 -51t166.5 -140t99 -204t34.5 -246q0 -172 -56 -338.5t-159 -296.5q-118 -149 -283 -229t-363 -80q-335 0 -514 211 q-27 31 -65 94q-7 11 -19 8q-209 -64 -434 0q-17 4 -25 19t-3 32zM160 25q-2 -7 2 -13q22 -37 45 -65q158 -183 452 -183q358 0 582 279q95 122 146 276t51 308q0 114 -28 213.5t-81.5 177.5t-140.5 123t-197 45q-106 0 -205.5 -48t-175 -129t-133 -181.5t-87.5 -210 t-30 -211.5q0 -70 15 -132q2 -8 10 -11t14 1q113 73 197 110.5t174 37.5q79 0 143 -22t106 -71t42 -118q0 -102 -94 -182t-244 -80q-256 0 -369 180q-11 11 -22 4q-77 -47 -164 -88q-6 -3 -8 -10zM422 162q95 -142 301 -142q116 0 186 56.5t70 124.5q0 45 -33.5 75.5 t-78.5 42t-97 11.5q-54 0 -116.5 -23t-104.5 -47.5t-121 -75.5q-14 -7 -6 -22zM864.5 1658q-1.5 18 9.5 30l164 178q16 19 41 12q26 -10 29 -33l31 -178q3 -19 -9 -33t-32 -14q-14 0 -26 10t-13 23l-12 63q-2 9 -11.5 12t-15.5 -4l-84 -90q-11 -12 -28 -13t-29 9 q-13 10 -14.5 28z" />
<glyph unicode="&#xd5;" horiz-adv-x="1542" d="M-401 47q4 15 19 23.5t30 5.5q195 -55 375 -6q6 2 9.5 8t0.5 12q-49 134 -49 301q0 136 34.5 277.5t97.5 274.5t159 250.5t212 205.5t263.5 139t306.5 51q17 0 29 -11.5t14 -27.5q0 -19 -12 -31t-29 -12q-148 0 -284.5 -48t-243.5 -130.5t-196 -192t-147 -234t-90 -255.5 t-32 -256q0 -148 45 -272q3 -17 22 -10q90 42 166 90q12 8 6 20q-26 79 -26 187q0 115 33.5 236.5t98 232.5t149.5 199.5t197.5 141t233.5 52.5q127 0 229 -51t166.5 -140t99 -204t34.5 -246q0 -172 -56 -338.5t-159 -296.5q-118 -149 -283 -229t-363 -80q-335 0 -514 211 q-27 31 -65 94q-7 11 -19 8q-209 -64 -434 0q-17 4 -25 19t-3 32zM160 25q-2 -7 2 -13q22 -37 45 -65q158 -183 452 -183q358 0 582 279q95 122 146 276t51 308q0 114 -28 213.5t-81.5 177.5t-140.5 123t-197 45q-106 0 -205.5 -48t-175 -129t-133 -181.5t-87.5 -210 t-30 -211.5q0 -70 15 -132q2 -8 10 -11t14 1q113 73 197 110.5t174 37.5q79 0 143 -22t106 -71t42 -118q0 -102 -94 -182t-244 -80q-256 0 -369 180q-11 11 -22 4q-77 -47 -164 -88q-6 -3 -8 -10zM422 162q95 -142 301 -142q116 0 186 56.5t70 124.5q0 45 -33.5 75.5 t-78.5 42t-97 11.5q-54 0 -116.5 -23t-104.5 -47.5t-121 -75.5q-14 -7 -6 -22zM809 1679l3 5q3 5 7 11t11 13.5t15 14t19 10.5t23 4q28 0 68.5 -24.5t54.5 -24.5q19 0 43 24q10 9 20 1t2 -19q-27 -45 -67 -45q-26 0 -67 24.5t-56 24.5q-22 0 -54 -35q-9 -9 -18.5 -2t-3.5 18 z" />
<glyph unicode="&#xd6;" horiz-adv-x="1542" d="M-401 47q4 15 19 23.5t30 5.5q195 -55 375 -6q6 2 9.5 8t0.5 12q-49 134 -49 301q0 136 34.5 277.5t97.5 274.5t159 250.5t212 205.5t263.5 139t306.5 51q17 0 29 -11.5t14 -27.5q0 -19 -12 -31t-29 -12q-148 0 -284.5 -48t-243.5 -130.5t-196 -192t-147 -234t-90 -255.5 t-32 -256q0 -148 45 -272q3 -17 22 -10q90 42 166 90q12 8 6 20q-26 79 -26 187q0 115 33.5 236.5t98 232.5t149.5 199.5t197.5 141t233.5 52.5q127 0 229 -51t166.5 -140t99 -204t34.5 -246q0 -172 -56 -338.5t-159 -296.5q-118 -149 -283 -229t-363 -80q-335 0 -514 211 q-27 31 -65 94q-7 11 -19 8q-209 -64 -434 0q-17 4 -25 19t-3 32zM160 25q-2 -7 2 -13q22 -37 45 -65q158 -183 452 -183q358 0 582 279q95 122 146 276t51 308q0 114 -28 213.5t-81.5 177.5t-140.5 123t-197 45q-106 0 -205.5 -48t-175 -129t-133 -181.5t-87.5 -210 t-30 -211.5q0 -70 15 -132q2 -8 10 -11t14 1q113 73 197 110.5t174 37.5q79 0 143 -22t106 -71t42 -118q0 -102 -94 -182t-244 -80q-256 0 -369 180q-11 11 -22 4q-77 -47 -164 -88q-6 -3 -8 -10zM422 162q95 -142 301 -142q116 0 186 56.5t70 124.5q0 45 -33.5 75.5 t-78.5 42t-97 11.5q-54 0 -116.5 -23t-104.5 -47.5t-121 -75.5q-14 -7 -6 -22zM839.5 1659q-11.5 19 0.5 45q7 15 24.5 19.5t30.5 -3.5q29 -15 19.5 -47.5t-40.5 -32.5q-23 0 -34.5 19zM1032 1659q-12 19 0 45q7 15 24.5 19.5t30.5 -3.5q29 -15 20 -47.5t-40 -32.5 q-23 0 -35 19z" />
<glyph unicode="&#xd8;" horiz-adv-x="1542" d="M-401 47q4 15 19 23.5t30 5.5q195 -55 375 -6q6 2 9.5 8t0.5 12q-49 134 -49 301q0 136 34.5 277.5t97.5 274.5t159 250.5t212 205.5t263.5 139t306.5 51q17 0 29 -11.5t14 -27.5q0 -19 -12 -31t-29 -12q-148 0 -284.5 -48t-243.5 -130.5t-196 -192t-147 -234t-90 -255.5 t-32 -256q0 -148 45 -272q3 -17 22 -10q90 42 166 90q12 8 6 20q-26 79 -26 187q0 115 33.5 236.5t98 232.5t149.5 199.5t197.5 141t233.5 52.5q127 0 229 -51t166.5 -140t99 -204t34.5 -246q0 -172 -56 -338.5t-159 -296.5q-118 -149 -283 -229t-363 -80q-335 0 -514 211 q-27 31 -65 94q-7 11 -19 8q-209 -64 -434 0q-17 4 -25 19t-3 32zM160 25q-2 -7 2 -13q22 -37 45 -65q158 -183 452 -183q358 0 582 279q95 122 146 276t51 308q0 114 -28 213.5t-81.5 177.5t-140.5 123t-197 45q-106 0 -205.5 -48t-175 -129t-133 -181.5t-87.5 -210 t-30 -211.5q0 -70 15 -132q2 -8 10 -11t14 1q113 73 197 110.5t174 37.5q79 0 143 -22t106 -71t42 -118q0 -102 -94 -182t-244 -80q-256 0 -369 180q-11 11 -22 4q-77 -47 -164 -88q-6 -3 -8 -10zM222 -331q-4 16 5 30l1170 1776q9 14 26 17.5t31 -5.5t17.5 -25t-5.5 -30 l-1169 -1776q-9 -14 -25.5 -17.5t-31.5 5.5q-14 9 -18 25zM422 162q95 -142 301 -142q116 0 186 56.5t70 124.5q0 45 -33.5 75.5t-78.5 42t-97 11.5q-54 0 -116.5 -23t-104.5 -47.5t-121 -75.5q-14 -7 -6 -22z" />
<glyph unicode="&#xd9;" horiz-adv-x="2258" d="M-20 1042q0 117 51 217.5t137.5 169t201.5 107.5t242 39q105 0 210.5 -31.5t192 -76.5t170.5 -90.5t176.5 -77t178.5 -31.5q22 0 35 -19.5t4 -40.5q-31 -74 -116 -257t-152.5 -343t-110.5 -293q-108 -344 -29 -473q53 -80 195 -80q60 0 117 24.5t102 58t96.5 102.5 t85 121.5t84 154t78 162t80.5 180.5q151 342 240 502q212 381 460 533q28 17 56 32q13 8 29.5 2.5t23.5 -20.5q8 -13 3.5 -29.5t-19.5 -25.5q-246 -126 -456 -487q-97 -169 -250 -515v-1l-1 -1v-1l-1 -1v-1l-1 -1v-1v-1l-1 -1v-1l-1 -1v-1l-1 -1v-1l-1 -1v-2l-1 -1v-1l-1 -1 v-1l-1 -1v-1v-1l-1 -1q-139 -313 -209 -438q-154 -276 -319 -365q-91 -48 -191 -48q-190 0 -262 118q-104 159 18 541q31 97 82.5 224t80 192t106 232t82.5 179q3 8 -1.5 15.5t-13.5 7.5q-82 12 -170.5 48t-165.5 78t-156.5 82.5t-171 67.5t-182.5 27q-145 0 -269.5 -53 t-203 -157.5t-78.5 -240.5q0 -160 95 -277.5t239 -117.5q154 0 261.5 88t107.5 226q0 57 -24.5 113.5t-76.5 97t-120 40.5q-17 0 -29 12t-12 31q0 17 12.5 28t30.5 11q89 0 159.5 -51t106 -126.5t35.5 -155.5q0 -168 -128 -282t-323 -114q-118 0 -214 66t-148.5 175 t-52.5 236zM2033 1798.5q6 16.5 21 22.5q17 8 34 0t23 -27l25 -111q3 -12 -3.5 -22.5t-18.5 -13.5q-10 -3 -20 2t-13 14l-47 104q-7 15 -1 31.5z" />
<glyph unicode="&#xda;" horiz-adv-x="2258" d="M-20 1042q0 117 51 217.5t137.5 169t201.5 107.5t242 39q105 0 210.5 -31.5t192 -76.5t170.5 -90.5t176.5 -77t178.5 -31.5q22 0 35 -19.5t4 -40.5q-31 -74 -116 -257t-152.5 -343t-110.5 -293q-108 -344 -29 -473q53 -80 195 -80q60 0 117 24.5t102 58t96.5 102.5 t85 121.5t84 154t78 162t80.5 180.5q151 342 240 502q212 381 460 533q28 17 56 32q13 8 29.5 2.5t23.5 -20.5q8 -13 3.5 -29.5t-19.5 -25.5q-246 -126 -456 -487q-97 -169 -250 -515v-1l-1 -1v-1l-1 -1v-1l-1 -1v-1v-1l-1 -1v-1l-1 -1v-1l-1 -1v-1l-1 -1v-2l-1 -1v-1l-1 -1 v-1l-1 -1v-1v-1l-1 -1q-139 -313 -209 -438q-154 -276 -319 -365q-91 -48 -191 -48q-190 0 -262 118q-104 159 18 541q31 97 82.5 224t80 192t106 232t82.5 179q3 8 -1.5 15.5t-13.5 7.5q-82 12 -170.5 48t-165.5 78t-156.5 82.5t-171 67.5t-182.5 27q-145 0 -269.5 -53 t-203 -157.5t-78.5 -240.5q0 -160 95 -277.5t239 -117.5q154 0 261.5 88t107.5 226q0 57 -24.5 113.5t-76.5 97t-120 40.5q-17 0 -29 12t-12 31q0 17 12.5 28t30.5 11q89 0 159.5 -51t106 -126.5t35.5 -155.5q0 -168 -128 -282t-323 -114q-118 0 -214 66t-148.5 175 t-52.5 236zM2011 1651q-15 19 2 39l103 114q12 12 29 12.5t30 -10.5q12 -11 13 -28t-11 -29q-1 -2 -123 -102q-9 -9 -22 -8t-21 12z" />
<glyph unicode="&#xdb;" horiz-adv-x="2258" d="M-20 1042q0 117 51 217.5t137.5 169t201.5 107.5t242 39q105 0 210.5 -31.5t192 -76.5t170.5 -90.5t176.5 -77t178.5 -31.5q22 0 35 -19.5t4 -40.5q-31 -74 -116 -257t-152.5 -343t-110.5 -293q-108 -344 -29 -473q53 -80 195 -80q60 0 117 24.5t102 58t96.5 102.5 t85 121.5t84 154t78 162t80.5 180.5q151 342 240 502q212 381 460 533q28 17 56 32q13 8 29.5 2.5t23.5 -20.5q8 -13 3.5 -29.5t-19.5 -25.5q-246 -126 -456 -487q-97 -169 -250 -515v-1l-1 -1v-1l-1 -1v-1l-1 -1v-1v-1l-1 -1v-1l-1 -1v-1l-1 -1v-1l-1 -1v-2l-1 -1v-1l-1 -1 v-1l-1 -1v-1v-1l-1 -1q-139 -313 -209 -438q-154 -276 -319 -365q-91 -48 -191 -48q-190 0 -262 118q-104 159 18 541q31 97 82.5 224t80 192t106 232t82.5 179q3 8 -1.5 15.5t-13.5 7.5q-82 12 -170.5 48t-165.5 78t-156.5 82.5t-171 67.5t-182.5 27q-145 0 -269.5 -53 t-203 -157.5t-78.5 -240.5q0 -160 95 -277.5t239 -117.5q154 0 261.5 88t107.5 226q0 57 -24.5 113.5t-76.5 97t-120 40.5q-17 0 -29 12t-12 31q0 17 12.5 28t30.5 11q89 0 159.5 -51t106 -126.5t35.5 -155.5q0 -168 -128 -282t-323 -114q-118 0 -214 66t-148.5 175 t-52.5 236zM1903 1658q-1 18 10 30l164 178q16 19 41 12q25 -9 28 -33l31 -178q3 -19 -9 -33t-32 -14q-14 0 -26 10t-13 23l-12 63q-2 9 -11.5 12t-15.5 -4l-84 -90q-11 -12 -28 -13t-29 9q-13 10 -14 28z" />
<glyph unicode="&#xdc;" horiz-adv-x="2258" d="M-20 1042q0 117 51 217.5t137.5 169t201.5 107.5t242 39q105 0 210.5 -31.5t192 -76.5t170.5 -90.5t176.5 -77t178.5 -31.5q22 0 35 -19.5t4 -40.5q-31 -74 -116 -257t-152.5 -343t-110.5 -293q-108 -344 -29 -473q53 -80 195 -80q60 0 117 24.5t102 58t96.5 102.5 t85 121.5t84 154t78 162t80.5 180.5q151 342 240 502q212 381 460 533q28 17 56 32q13 8 29.5 2.5t23.5 -20.5q8 -13 3.5 -29.5t-19.5 -25.5q-246 -126 -456 -487q-97 -169 -250 -515v-1l-1 -1v-1l-1 -1v-1l-1 -1v-1v-1l-1 -1v-1l-1 -1v-1l-1 -1v-1l-1 -1v-2l-1 -1v-1l-1 -1 v-1l-1 -1v-1v-1l-1 -1q-139 -313 -209 -438q-154 -276 -319 -365q-91 -48 -191 -48q-190 0 -262 118q-104 159 18 541q31 97 82.5 224t80 192t106 232t82.5 179q3 8 -1.5 15.5t-13.5 7.5q-82 12 -170.5 48t-165.5 78t-156.5 82.5t-171 67.5t-182.5 27q-145 0 -269.5 -53 t-203 -157.5t-78.5 -240.5q0 -160 95 -277.5t239 -117.5q154 0 261.5 88t107.5 226q0 57 -24.5 113.5t-76.5 97t-120 40.5q-17 0 -29 12t-12 31q0 17 12.5 28t30.5 11q89 0 159.5 -51t106 -126.5t35.5 -155.5q0 -168 -128 -282t-323 -114q-118 0 -214 66t-148.5 175 t-52.5 236zM1952 1659q-12 19 0 45q7 15 24.5 19.5t30.5 -3.5q29 -15 20 -47.5t-40 -32.5q-23 0 -35 19zM2144 1659q-12 19 0 45q7 15 25 19.5t31 -3.5q29 -15 19.5 -47.5t-40.5 -32.5q-23 0 -35 19z" />
<glyph unicode="&#xdd;" horiz-adv-x="2213" d="M-18 -897q8 111 44 215t101 193t151.5 154t202 98t244.5 24q130 -9 234 -55.5t169 -117.5t97 -159.5t26 -185.5q-6 -79 -37.5 -148t-83.5 -120t-127.5 -78t-162.5 -21q-18 2 -29 14t-10 29q0 17 13 29t30 10q138 -10 227 74.5t98 216.5q11 168 -108 290.5t-342 139.5 q-139 10 -260 -36t-204 -131t-133 -199.5t-59 -241.5q-9 -119 21 -226t94 -191.5t169.5 -138t240.5 -63.5q102 -7 194.5 13t171.5 61.5t153.5 109.5t137 147t125 184t115 211t109 238.5t105.5 255.5t107 271q1 2 1.5 3.5t0.5 2.5q15 35 17 41q4 13 -7 20.5t-20 -1.5 q-191 -201 -430 -201q-130 0 -202 77t-72 228q0 120 64.5 355t162.5 428q3 6 0 13.5t-10 8.5q-16 5 -136 43t-171.5 52t-149.5 31t-178 17q-184 0 -301 -85.5t-117 -247.5q0 -119 74.5 -193t177.5 -74q104 0 162.5 72t40.5 162q-4 17 4.5 30.5t25.5 18.5q17 3 31 -6.5 t19 -26.5q27 -127 -55.5 -229t-227.5 -102q-136 0 -235 98t-99 250q0 86 31.5 160.5t92.5 132t157.5 90t218.5 32.5q90 0 193.5 -18t168 -36t175.5 -53.5t145 -45.5q11 -3 18 8q147 242 305 242q75 0 124.5 -33.5t49.5 -97.5q0 -85 -92 -159.5t-227 -74.5q-58 0 -113 14 q-13 0 -18 -8q-97 -186 -163 -420.5t-66 -347.5q0 -110 45.5 -166.5t146.5 -56.5q123 0 228.5 61t207.5 189q105 134 250 418h2q166 387 336 663q7 13 24.5 18t30.5 -3q14 -9 19 -25.5t-4 -30.5q-56 -101 -112.5 -212.5t-123 -247.5t-96.5 -197q-85 -192 -244 -602 q-186 -477 -280 -678q-206 -443 -422 -647q-262 -248 -602 -224q-152 11 -272.5 72.5t-194 158t-108 218t-25.5 256.5zM1465.5 997.5q4.5 -9.5 13.5 -10.5q40 -4 57 -4q101 0 169.5 51.5t68.5 100.5t-93 49q-101 0 -215 -170q-5 -7 -0.5 -16.5zM2101 1630q-15 19 2 39 l103 115q12 12 29 12.5t30 -10.5q12 -11 13 -28t-11 -29q-2 -4 -123 -103q-9 -9 -22 -8t-21 12z" />
<glyph unicode="&#xde;" horiz-adv-x="866" d="M23 -12l544 1319q6 17 22.5 23.5t31.5 -1.5q15 -6 21.5 -22t0.5 -31l-176 -430q-4 -7 0.5 -15t13.5 -8h142q103 0 163 -61t60 -156q0 -76 -36.5 -145t-108 -114.5t-160.5 -45.5h-289q-11 0 -14 -10l-140 -334q-6 -15 -21 -22t-32 -1q-15 6 -21.5 22.5t-0.5 31.5zM285 406 q-3 -7 1.5 -15t12.5 -8h242q99 0 161 69.5t62 153.5q0 63 -36.5 99t-104.5 36h-189q-11 0 -14 -10z" />
<glyph unicode="&#xdf;" horiz-adv-x="1632" d="M-60 -143q1 17 13 28q57 50 112.5 125t96.5 144t92 178.5t80 178.5t80 194q130 316 199 446q146 276 308 356q75 37 158 37q169 0 275 -113t106 -276q0 -126 -79.5 -228t-209.5 -177q-10 -6 -8 -17t13 -14q187 -40 299 -185t112 -321q0 -111 -42 -207.5t-122 -171 t-207.5 -117.5t-287.5 -43q-101 0 -186.5 34.5t-140.5 90.5t-85.5 126.5t-30.5 144.5q0 110 59.5 189t149.5 79q17 0 29 -12t14 -29q0 -17 -12 -29t-29 -12q-56 0 -92.5 -56t-36.5 -130q0 -124 100 -219t261 -95q144 0 256.5 37t181 100.5t104 145t35.5 174.5 q0 98 -43.5 188.5t-125.5 156t-200 87t-266 -17.5q-21 -9 -41.5 -6t-27.5 28q-12 44 47 56q75 22 143.5 49.5t141.5 69t125 88.5t86 110.5t34 132.5q0 130 -82.5 218.5t-216.5 88.5q-44 0 -85.5 -15t-76.5 -36.5t-72.5 -63.5t-65.5 -78.5t-63.5 -100t-58.5 -108.5 t-57.5 -124t-54.5 -127t-56 -135q-53 -131 -82 -199.5t-82.5 -182.5t-95.5 -185t-101 -150t-120 -133q-14 -10 -30.5 -9t-28.5 13q-10 12 -9 29z" />
<glyph unicode="&#xe0;" horiz-adv-x="833" d="M-41 166q0 62 16 134t45 145t73.5 140t98 118.5t122 82.5t141.5 31q81 0 148 -38t94 -102.5t-5 -148.5q-39 -95 -106 -198q-2 -2 -2 -6q-1 -2 -3 -7.5t-3 -7.5q-58 -87 -86 -159q-28 -77 -15 -99q7 -10 27 -10q37 0 121 84q71 68 188 219q11 14 28 16t29 -8 q14 -11 16.5 -28t-7.5 -29q-138 -179 -226 -257.5t-149 -78.5q-73 0 -98 53q-15 26 -15 56q0 10 -9.5 14t-16.5 -2q-143 -121 -263 -121q-73 0 -108 59.5t-35 147.5zM41 166q0 -125 61 -125q77 0 179 76.5t193 196t140 241.5q14 50 5.5 84.5t-37.5 55.5t-61.5 30.5 t-65.5 9.5q-71 0 -137 -38.5t-115 -100.5t-86.5 -137.5t-56.5 -152t-19 -140.5zM433.5 1078q6.5 16 21.5 22q17 8 34 0t23 -27l25 -110q3 -12 -4 -23t-19 -14q-10 -3 -20 2t-13 14l-47 105q-7 15 -0.5 31z" />
<glyph unicode="&#xe1;" horiz-adv-x="833" d="M-41 166q0 62 16 134t45 145t73.5 140t98 118.5t122 82.5t141.5 31q81 0 148 -38t94 -102.5t-5 -148.5q-39 -95 -106 -198q-2 -2 -2 -6q-1 -2 -3 -7.5t-3 -7.5q-58 -87 -86 -159q-28 -77 -15 -99q7 -10 27 -10q37 0 121 84q71 68 188 219q11 14 28 16t29 -8 q14 -11 16.5 -28t-7.5 -29q-138 -179 -226 -257.5t-149 -78.5q-73 0 -98 53q-15 26 -15 56q0 10 -9.5 14t-16.5 -2q-143 -121 -263 -121q-73 0 -108 59.5t-35 147.5zM41 166q0 -125 61 -125q77 0 179 76.5t193 196t140 241.5q14 50 5.5 84.5t-37.5 55.5t-61.5 30.5 t-65.5 9.5q-71 0 -137 -38.5t-115 -100.5t-86.5 -137.5t-56.5 -152t-19 -140.5zM440 932q-15 19 2 39l103 114q12 12 29 12.5t30 -10.5q12 -11 13 -28t-11 -29q-1 -2 -123 -102q-9 -9 -22 -8t-21 12z" />
<glyph unicode="&#xe2;" horiz-adv-x="833" d="M-41 166q0 62 16 134t45 145t73.5 140t98 118.5t122 82.5t141.5 31q81 0 148 -38t94 -102.5t-5 -148.5q-39 -95 -106 -198q-2 -2 -2 -6q-1 -2 -3 -7.5t-3 -7.5q-58 -87 -86 -159q-28 -77 -15 -99q7 -10 27 -10q37 0 121 84q71 68 188 219q11 14 28 16t29 -8 q14 -11 16.5 -28t-7.5 -29q-138 -179 -226 -257.5t-149 -78.5q-73 0 -98 53q-15 26 -15 56q0 10 -9.5 14t-16.5 -2q-143 -121 -263 -121q-73 0 -108 59.5t-35 147.5zM41 166q0 -125 61 -125q77 0 179 76.5t193 196t140 241.5q14 50 5.5 84.5t-37.5 55.5t-61.5 30.5 t-65.5 9.5q-71 0 -137 -38.5t-115 -100.5t-86.5 -137.5t-56.5 -152t-19 -140.5zM408 947.5q-1 17.5 10 29.5l164 178q16 19 41 12q25 -9 28 -32l31 -179q3 -19 -9 -33t-32 -14q-14 0 -26 10t-13 23l-12 64q-2 9 -11.5 12t-15.5 -4l-84 -90q-11 -12 -28 -13t-29 9 q-13 10 -14 27.5z" />
<glyph unicode="&#xe3;" horiz-adv-x="833" d="M-41 166q0 62 16 134t45 145t73.5 140t98 118.5t122 82.5t141.5 31q81 0 148 -38t94 -102.5t-5 -148.5q-39 -95 -106 -198q-2 -2 -2 -6q-1 -2 -3 -7.5t-3 -7.5q-58 -87 -86 -159q-28 -77 -15 -99q7 -10 27 -10q37 0 121 84q71 68 188 219q11 14 28 16t29 -8 q14 -11 16.5 -28t-7.5 -29q-138 -179 -226 -257.5t-149 -78.5q-73 0 -98 53q-15 26 -15 56q0 10 -9.5 14t-16.5 -2q-143 -121 -263 -121q-73 0 -108 59.5t-35 147.5zM41 166q0 -125 61 -125q77 0 179 76.5t193 196t140 241.5q14 50 5.5 84.5t-37.5 55.5t-61.5 30.5 t-65.5 9.5q-71 0 -137 -38.5t-115 -100.5t-86.5 -137.5t-56.5 -152t-19 -140.5zM444 979q-18 21 13.5 59.5t74.5 38.5q30 0 72 -24.5t51 -24.5q7 0 23 11.5t24 11.5q12 0 20.5 -9t8.5 -20q0 -18 -24.5 -44t-61.5 -26q-31 0 -72 23.5t-49 23.5q-12 0 -30 -15t-29 -15 q-14 0 -21 10z" />
<glyph unicode="&#xe4;" horiz-adv-x="833" d="M-41 166q0 62 16 134t45 145t73.5 140t98 118.5t122 82.5t141.5 31q81 0 148 -38t94 -102.5t-5 -148.5q-39 -95 -106 -198q-2 -2 -2 -6q-1 -2 -3 -7.5t-3 -7.5q-58 -87 -86 -159q-28 -77 -15 -99q7 -10 27 -10q37 0 121 84q71 68 188 219q11 14 28 16t29 -8 q14 -11 16.5 -28t-7.5 -29q-138 -179 -226 -257.5t-149 -78.5q-73 0 -98 53q-15 26 -15 56q0 10 -9.5 14t-16.5 -2q-143 -121 -263 -121q-73 0 -108 59.5t-35 147.5zM41 166q0 -125 61 -125q77 0 179 76.5t193 196t140 241.5q14 50 5.5 84.5t-37.5 55.5t-61.5 30.5 t-65.5 9.5q-71 0 -137 -38.5t-115 -100.5t-86.5 -137.5t-56.5 -152t-19 -140.5zM467 1002q-12 19 0 45q7 15 24.5 19.5t30.5 -3.5q29 -15 20 -47.5t-40 -32.5q-23 0 -35 19zM659 1002q-12 19 0 45q7 15 25 19.5t31 -3.5q29 -15 19.5 -47.5t-40.5 -32.5q-23 0 -35 19z" />
<glyph unicode="&#xe5;" horiz-adv-x="833" d="M-41 166q0 62 16 134t45 145t73.5 140t98 118.5t122 82.5t141.5 31q81 0 148 -38t94 -102.5t-5 -148.5q-39 -95 -106 -198q-2 -2 -2 -6q-1 -2 -3 -7.5t-3 -7.5q-58 -87 -86 -159q-28 -77 -15 -99q7 -10 27 -10q37 0 121 84q71 68 188 219q11 14 28 16t29 -8 q14 -11 16.5 -28t-7.5 -29q-138 -179 -226 -257.5t-149 -78.5q-73 0 -98 53q-15 26 -15 56q0 10 -9.5 14t-16.5 -2q-143 -121 -263 -121q-73 0 -108 59.5t-35 147.5zM41 166q0 -125 61 -125q77 0 179 76.5t193 196t140 241.5q14 50 5.5 84.5t-37.5 55.5t-61.5 30.5 t-65.5 9.5q-71 0 -137 -38.5t-115 -100.5t-86.5 -137.5t-56.5 -152t-19 -140.5zM500 1044q0 44 33 81.5t77 37.5q36 0 66.5 -25.5t30.5 -66.5q0 -44 -33.5 -81.5t-77.5 -37.5q-35 0 -65.5 25t-30.5 67zM561 1053q0 -17 13 -27t28 -10t29 15t14 32t-13 27t-28 10 q-18 0 -30.5 -14.5t-12.5 -32.5z" />
<glyph unicode="&#xe6;" horiz-adv-x="1273" d="M-41 168q0 75 22 162t66 173.5t102 157t138.5 114.5t167.5 44q77 0 145.5 -37t95.5 -100q4 -11 17 -2q141 156 293 156q82 0 132 -45t50 -117q0 -108 -76 -203.5t-221 -144.5q-125 -42 -289 -45q-8 0 -8 -7q-8 -39 -8 -77q0 -154 135 -154q154 0 283.5 81.5t248.5 223.5 q10 13 28.5 15t31.5 -9q12 -11 13 -28t-9 -29q-134 -158 -278.5 -247t-317.5 -89q-100 0 -158.5 61.5t-58.5 174.5q0 6 -6 8t-11 -2q-86 -100 -188 -171t-195 -71q-73 0 -109 59.5t-36 147.5zM41 168q0 -125 63 -125q99 0 236 126.5t229 293.5l2 2q6 12 21 42.5t20.5 44.5 t12 37t3 41t-15.5 36q-20 32 -63.5 51.5t-93.5 19.5q-70 0 -136 -38.5t-115.5 -100.5t-87 -137.5t-56.5 -152t-19 -140.5zM623 377q-2 -5 1 -8.5t9 -3.5q139 6 233 38q104 35 172 105.5t68 165.5q0 33 -20 52.5t-39.5 23.5t-40.5 4q-114 0 -220.5 -115.5t-162.5 -261.5z" />
<glyph unicode="&#xe7;" horiz-adv-x="727" d="M-41 195q0 75 26.5 163.5t75 171.5t109.5 152t138 110.5t153 41.5q65 0 116 -35.5t65 -92.5t-24 -128q-9 -14 -25.5 -18t-31.5 3q-13 9 -17.5 26t3.5 32q36 58 1.5 94.5t-87.5 36.5q-75 0 -153.5 -57t-135.5 -141t-94 -181.5t-37 -177.5q0 -154 135 -154q154 0 284.5 82 t250.5 225q10 13 27.5 15t29.5 -9q13 -10 15 -27.5t-9 -29.5q-88 -103 -172.5 -173.5t-195.5 -117.5t-230 -47q-100 0 -158.5 61.5t-58.5 174.5zM23 -209q5 15 18.5 23.5t30.5 5.5q80 -21 135 -10q29 4 29 12q1 3 -12.5 7.5t-34 11.5t-31.5 14q-51 26 -45 75q3 40 35 67 t67.5 36t76.5 17.5t50 12.5q10 5 22.5 0.5t16.5 -16.5q10 -21 -14 -39q-15 -9 -85 -33t-83 -41l-1 -1q-5 -4 4 -8q6 -2 31 -9q61 -21 76 -47q26 -36 7 -78.5t-82.5 -63t-184.5 12.5q-15 5 -22.5 19.5t-3.5 31.5zM342 63z" />
<glyph unicode="&#xe8;" horiz-adv-x="727" d="M-41 195q0 75 26.5 163t75 171t109.5 152t138 111t153 42q82 0 132 -45t50 -117q0 -132 -104 -234q-151 -151 -476 -159q-13 0 -16 -13q-6 -38 -6 -71q0 -154 135 -154q154 0 284.5 82t248.5 225q11 12 28 13t31 -9q12 -11 13 -28t-9 -29q-134 -158 -278.5 -247 t-317.5 -89q-100 0 -158.5 61.5t-58.5 174.5zM82 385q-3 -8 2 -15.5t14 -7.5q265 16 383 134q80 80 80 176q0 33 -20 52.5t-39.5 23.5t-40.5 4q-75 0 -152.5 -56.5t-134 -138t-92.5 -172.5zM454 1078q6 16 21 22q17 8 34 0t23 -27l25 -110q3 -12 -3.5 -23t-18.5 -14 q-10 -3 -20 2t-13 14l-47 105q-7 15 -1 31z" />
<glyph unicode="&#xe9;" horiz-adv-x="727" d="M-41 195q0 75 26.5 163t75 171t109.5 152t138 111t153 42q82 0 132 -45t50 -117q0 -132 -104 -234q-151 -151 -476 -159q-13 0 -16 -13q-6 -38 -6 -71q0 -154 135 -154q154 0 284.5 82t248.5 225q11 12 28 13t31 -9q12 -11 13 -28t-9 -29q-134 -158 -278.5 -247 t-317.5 -89q-100 0 -158.5 61.5t-58.5 174.5zM82 385q-3 -8 2 -15.5t14 -7.5q265 16 383 134q80 80 80 176q0 33 -20 52.5t-39.5 23.5t-40.5 4q-75 0 -152.5 -56.5t-134 -138t-92.5 -172.5zM440 932q-15 19 2 39l103 114q12 12 29 12.5t30 -10.5q12 -11 13 -28t-11 -29 q-1 -2 -123 -102q-9 -9 -22 -8t-21 12z" />
<glyph unicode="&#xea;" horiz-adv-x="727" d="M-41 195q0 75 26.5 163t75 171t109.5 152t138 111t153 42q82 0 132 -45t50 -117q0 -132 -104 -234q-151 -151 -476 -159q-13 0 -16 -13q-6 -38 -6 -71q0 -154 135 -154q154 0 284.5 82t248.5 225q11 12 28 13t31 -9q12 -11 13 -28t-9 -29q-134 -158 -278.5 -247 t-317.5 -89q-100 0 -158.5 61.5t-58.5 174.5zM82 385q-3 -8 2 -15.5t14 -7.5q265 16 383 134q80 80 80 176q0 33 -20 52.5t-39.5 23.5t-40.5 4q-75 0 -152.5 -56.5t-134 -138t-92.5 -172.5zM348 947.5q-1 17.5 10 29.5l164 178q16 19 41 12q26 -10 29 -32l31 -179 q3 -19 -9 -33t-32 -14q-14 0 -26 10t-13 23l-13 64q-2 9 -11 12t-15 -4l-84 -90q-11 -12 -28.5 -13t-29.5 9q-13 10 -14 27.5z" />
<glyph unicode="&#xeb;" horiz-adv-x="727" d="M-41 195q0 75 26.5 163t75 171t109.5 152t138 111t153 42q82 0 132 -45t50 -117q0 -132 -104 -234q-151 -151 -476 -159q-13 0 -16 -13q-6 -38 -6 -71q0 -154 135 -154q154 0 284.5 82t248.5 225q11 12 28 13t31 -9q12 -11 13 -28t-9 -29q-134 -158 -278.5 -247 t-317.5 -89q-100 0 -158.5 61.5t-58.5 174.5zM82 385q-3 -8 2 -15.5t14 -7.5q265 16 383 134q80 80 80 176q0 33 -20 52.5t-39.5 23.5t-40.5 4q-75 0 -152.5 -56.5t-134 -138t-92.5 -172.5zM385 1002q-12 19 0 45q7 15 24.5 19.5t30.5 -3.5q29 -15 20 -47.5t-40 -32.5 q-23 0 -35 19zM577.5 1002q-11.5 19 0.5 45q7 15 24.5 19.5t30.5 -3.5q29 -15 19.5 -47.5t-40.5 -32.5q-23 0 -34.5 19z" />
<glyph unicode="&#xec;" horiz-adv-x="331" d="M-115.5 65.5q-0.5 36.5 14 85t35 99t55 121t66.5 131.5t77 149t79 158q7 15 23.5 20.5t31.5 -2.5q14 -8 20 -23t-1 -30q-28 -58 -136 -266t-143 -295q-12 -28 -20 -51t-15.5 -54t-2 -49t25.5 -18q6 0 15.5 3.5t35.5 21t59.5 47.5t89.5 92t123 145q11 12 28.5 14t29.5 -8 q13 -10 15 -27.5t-9 -29.5q-110 -136 -199 -225q-121 -115 -188 -115q-62 0 -94 45q-15 25 -15.5 61.5zM290 1078q6 16 21 22q17 8 34.5 0t23.5 -27l24 -110q3 -12 -3.5 -23t-18.5 -14q-10 -3 -20 2t-13 14l-47 105q-7 15 -1 31z" />
<glyph unicode="&#xed;" horiz-adv-x="331" d="M-115.5 65.5q-0.5 36.5 14 85t35 99t55 121t66.5 131.5t77 149t79 158q7 15 23.5 20.5t31.5 -2.5q14 -8 20 -23t-1 -30q-28 -58 -136 -266t-143 -295q-12 -28 -20 -51t-15.5 -54t-2 -49t25.5 -18q6 0 15.5 3.5t35.5 21t59.5 47.5t89.5 92t123 145q11 12 28.5 14t29.5 -8 q13 -10 15 -27.5t-9 -29.5q-110 -136 -199 -225q-121 -115 -188 -115q-62 0 -94 45q-15 25 -15.5 61.5zM236 932q-15 19 2 39l102 114q12 12 29 12.5t30 -10.5q12 -11 13 -28t-11 -29q-2 -4 -122 -102q-9 -9 -22 -8t-21 12z" />
<glyph unicode="&#xee;" horiz-adv-x="331" d="M-115.5 65.5q-0.5 36.5 14 85t35 99t55 121t66.5 131.5t77 149t79 158q7 15 23.5 20.5t31.5 -2.5q14 -8 20 -23t-1 -30q-28 -58 -136 -266t-143 -295q-12 -28 -20 -51t-15.5 -54t-2 -49t25.5 -18q6 0 15.5 3.5t35.5 21t59.5 47.5t89.5 92t123 145q11 12 28.5 14t29.5 -8 q13 -10 15 -27.5t-9 -29.5q-110 -136 -199 -225q-121 -115 -188 -115q-62 0 -94 45q-15 25 -15.5 61.5zM166 947.5q-1 17.5 10 29.5l164 178q16 19 41 12q26 -10 29 -32l30 -179q3 -19 -9 -33t-32 -14q-14 0 -26 10t-13 23l-12 64q-2 9 -11 12t-15 -4l-84 -90 q-11 -12 -28.5 -13t-29.5 9q-13 10 -14 27.5z" />
<glyph unicode="&#xef;" horiz-adv-x="331" d="M-115.5 65.5q-0.5 36.5 14 85t35 99t55 121t66.5 131.5t77 149t79 158q7 15 23.5 20.5t31.5 -2.5q14 -8 20 -23t-1 -30q-28 -58 -136 -266t-143 -295q-12 -28 -20 -51t-15.5 -54t-2 -49t25.5 -18q6 0 15.5 3.5t35.5 21t59.5 47.5t89.5 92t123 145q11 12 28.5 14t29.5 -8 q13 -10 15 -27.5t-9 -29.5q-110 -136 -199 -225q-121 -115 -188 -115q-62 0 -94 45q-15 25 -15.5 61.5zM201 1002q-12 19 0 45q7 15 24.5 19.5t30.5 -3.5q29 -15 20 -47.5t-40 -32.5q-23 0 -35 19zM393 1002q-12 19 0 45q7 15 25 19.5t31 -3.5q29 -15 19.5 -47.5 t-40.5 -32.5q-23 0 -35 19z" />
<glyph unicode="&#xf1;" horiz-adv-x="817" d="M-182.5 -11.5q-5.5 16.5 2.5 31.5q1 1 94 184.5t189 374t102 205.5q7 15 23.5 21t31.5 0q15 -8 20.5 -24t-1.5 -31q-3 -7 -11 -24.5t-12 -25.5q-6 -12 5 -19.5t20 1.5q165 154 297 154q53 0 84.5 -21t40.5 -58t3.5 -83t-24.5 -101q-26 -73 -102 -226.5t-97 -211.5 q-4 -8 -8.5 -22.5t-9 -31t-4 -28.5t7.5 -12q59 0 141 77.5t203 231.5q11 12 27 14t30 -8q12 -11 14.5 -27t-7.5 -30q-121 -154 -187 -218q-126 -122 -221 -122q-118 0 -80 148q21 81 120 284q73 151 95 211q15 41 20.5 70.5t4.5 45t-9.5 24t-17.5 10.5t-24 2 q-142 0 -345 -244q-162 -192 -339 -526q-7 -15 -25 -21t-31 2q-15 7 -20.5 23.5zM424 979q-18 21 13.5 59.5t74.5 38.5q30 0 72 -24.5t51 -24.5q7 0 23 11.5t24 11.5q12 0 20.5 -9t8.5 -20q0 -18 -24.5 -44t-61.5 -26q-31 0 -72.5 23.5t-48.5 23.5q-12 0 -30 -15t-30 -15 q-13 0 -20 10z" />
<glyph unicode="&#xf2;" d="M-23 217q-3 103 33 219.5t94 192.5q11 14 28.5 16t29.5 -8q14 -11 16 -27t-8 -30q-50 -67 -82 -170t-29 -191q2 -82 35.5 -127.5t106.5 -44.5q72 3 145.5 52.5t136.5 138.5q14 18 33 53q-7 -1 -22 -2t-23 -2q-118 -3 -201.5 69.5t-83.5 192.5q0 132 78.5 214t192.5 85 q95 3 160.5 -64t68.5 -188q3 -83 -29 -188q100 34 188.5 93t141.5 130q10 13 27 15t30 -7q13 -10 15.5 -27.5t-6.5 -29.5q-70 -93 -188.5 -166.5t-246.5 -106.5q-67 -142 -180 -243t-243 -101q-103 0 -159 69t-59 183zM268 549q0 -85 59.5 -133.5t141.5 -46.5q45 3 92 12 q46 117 43 213q-2 79 -40.5 126t-104.5 46q-81 -2 -136 -60.5t-55 -156.5zM433.5 1078q6.5 16 21.5 22q17 8 34 0t23 -27l25 -110q3 -12 -4 -23t-19 -14q-10 -3 -20 2t-13 14l-47 105q-7 15 -0.5 31z" />
<glyph unicode="&#xf3;" d="M-23 217q-3 103 33 219.5t94 192.5q11 14 28.5 16t29.5 -8q14 -11 16 -27t-8 -30q-50 -67 -82 -170t-29 -191q2 -82 35.5 -127.5t106.5 -44.5q72 3 145.5 52.5t136.5 138.5q14 18 33 53q-7 -1 -22 -2t-23 -2q-118 -3 -201.5 69.5t-83.5 192.5q0 132 78.5 214t192.5 85 q95 3 160.5 -64t68.5 -188q3 -83 -29 -188q100 34 188.5 93t141.5 130q10 13 27 15t30 -7q13 -10 15.5 -27.5t-6.5 -29.5q-70 -93 -188.5 -166.5t-246.5 -106.5q-67 -142 -180 -243t-243 -101q-103 0 -159 69t-59 183zM268 549q0 -85 59.5 -133.5t141.5 -46.5q45 3 92 12 q46 117 43 213q-2 79 -40.5 126t-104.5 46q-81 -2 -136 -60.5t-55 -156.5zM442 932q-15 19 2 39l103 114q12 12 29 12.5t30 -10.5q12 -11 13 -28t-11 -29q-1 -2 -123 -102q-9 -9 -22 -8t-21 12z" />
<glyph unicode="&#xf4;" d="M-23 217q-3 103 33 219.5t94 192.5q11 14 28.5 16t29.5 -8q14 -11 16 -27t-8 -30q-50 -67 -82 -170t-29 -191q2 -82 35.5 -127.5t106.5 -44.5q72 3 145.5 52.5t136.5 138.5q14 18 33 53q-7 -1 -22 -2t-23 -2q-118 -3 -201.5 69.5t-83.5 192.5q0 132 78.5 214t192.5 85 q95 3 160.5 -64t68.5 -188q3 -83 -29 -188q100 34 188.5 93t141.5 130q10 13 27 15t30 -7q13 -10 15.5 -27.5t-6.5 -29.5q-70 -93 -188.5 -166.5t-246.5 -106.5q-67 -142 -180 -243t-243 -101q-103 0 -159 69t-59 183zM268 549q0 -85 59.5 -133.5t141.5 -46.5q45 3 92 12 q46 117 43 213q-2 79 -40.5 126t-104.5 46q-81 -2 -136 -60.5t-55 -156.5zM348 947.5q-1 17.5 10 29.5l164 178q16 19 41 12q26 -10 29 -32l31 -179q3 -19 -9 -33t-32 -14q-14 0 -26 10t-13 23l-13 64q-2 9 -11 12t-15 -4l-84 -90q-11 -12 -28.5 -13t-29.5 9 q-13 10 -14 27.5z" />
<glyph unicode="&#xf5;" d="M-23 217q-3 103 33 219.5t94 192.5q11 14 28.5 16t29.5 -8q14 -11 16 -27t-8 -30q-50 -67 -82 -170t-29 -191q2 -82 35.5 -127.5t106.5 -44.5q72 3 145.5 52.5t136.5 138.5q14 18 33 53q-7 -1 -22 -2t-23 -2q-118 -3 -201.5 69.5t-83.5 192.5q0 132 78.5 214t192.5 85 q95 3 160.5 -64t68.5 -188q3 -83 -29 -188q100 34 188.5 93t141.5 130q10 13 27 15t30 -7q13 -10 15.5 -27.5t-6.5 -29.5q-70 -93 -188.5 -166.5t-246.5 -106.5q-67 -142 -180 -243t-243 -101q-103 0 -159 69t-59 183zM268 549q0 -85 59.5 -133.5t141.5 -46.5q45 3 92 12 q46 117 43 213q-2 79 -40.5 126t-104.5 46q-81 -2 -136 -60.5t-55 -156.5zM385 979q-18 21 13.5 59.5t74.5 38.5q30 0 72 -24.5t51 -24.5q7 0 23 11.5t24 11.5q12 0 20.5 -9t8.5 -20q0 -18 -24.5 -44t-61.5 -26q-32 0 -73 23.5t-48 23.5q-11 0 -29 -15t-30 -15q-14 0 -21 10 z" />
<glyph unicode="&#xf6;" d="M-23 217q-3 103 33 219.5t94 192.5q11 14 28.5 16t29.5 -8q14 -11 16 -27t-8 -30q-50 -67 -82 -170t-29 -191q2 -82 35.5 -127.5t106.5 -44.5q72 3 145.5 52.5t136.5 138.5q14 18 33 53q-7 -1 -22 -2t-23 -2q-118 -3 -201.5 69.5t-83.5 192.5q0 132 78.5 214t192.5 85 q95 3 160.5 -64t68.5 -188q3 -83 -29 -188q100 34 188.5 93t141.5 130q10 13 27 15t30 -7q13 -10 15.5 -27.5t-6.5 -29.5q-70 -93 -188.5 -166.5t-246.5 -106.5q-67 -142 -180 -243t-243 -101q-103 0 -159 69t-59 183zM268 549q0 -85 59.5 -133.5t141.5 -46.5q45 3 92 12 q46 117 43 213q-2 79 -40.5 126t-104.5 46q-81 -2 -136 -60.5t-55 -156.5zM385 1002q-12 19 0 45q7 15 24.5 19.5t30.5 -3.5q29 -15 20 -47.5t-40 -32.5q-23 0 -35 19zM577.5 1002q-11.5 19 0.5 45q7 15 24.5 19.5t30.5 -3.5q29 -15 19.5 -47.5t-40.5 -32.5q-23 0 -34.5 19z " />
<glyph unicode="&#xf7;" horiz-adv-x="761" d="M20 459q0 17 12 29t29 12h648q17 0 29 -12t12 -29t-12 -29t-29 -12h-648q-17 0 -29 12t-12 29zM256.5 179.5q-4.5 16.5 3.5 31.5l14 29q9 15 26 19.5t30 -3.5q15 -8 20 -24t-4 -31l-14 -29q-7 -15 -24 -19.5t-32 3.5q-15 7 -19.5 23.5zM420.5 687.5q-4.5 16.5 3.5 31.5 l14 29q9 14 25.5 18.5t30.5 -2.5q15 -9 20 -25t-4 -30l-14 -29q-8 -15 -24.5 -20t-31.5 4q-15 7 -19.5 23.5z" />
<glyph unicode="&#xf8;" d="M-23 217q-3 103 33 219.5t94 192.5q11 14 28.5 16t29.5 -8q14 -11 16 -27t-8 -30q-50 -67 -82 -170t-29 -191q2 -82 35.5 -127.5t106.5 -44.5q72 3 145.5 52.5t136.5 138.5q14 18 33 53q-7 -1 -22 -2t-23 -2q-118 -3 -201.5 69.5t-83.5 192.5q0 132 78.5 214t192.5 85 q95 3 160.5 -64t68.5 -188q3 -83 -29 -188q100 34 188.5 93t141.5 130q10 13 27 15t30 -7q13 -10 15.5 -27.5t-6.5 -29.5q-70 -93 -188.5 -166.5t-246.5 -106.5q-67 -142 -180 -243t-243 -101q-103 0 -159 69t-59 183zM21.5 -81q-3.5 16 5.5 30l575 928q9 14 26 17.5 t31 -5.5t18 -25t-5 -30l-576 -928q-9 -14 -25.5 -17.5t-31.5 5.5q-14 9 -17.5 25zM268 549q0 -85 59.5 -133.5t141.5 -46.5q45 3 92 12q46 117 43 213q-2 79 -40.5 126t-104.5 46q-81 -2 -136 -60.5t-55 -156.5z" />
<glyph unicode="&#xf9;" horiz-adv-x="806" d="M-57 33q-58 94 34 313q42 103 144 286.5t104 188.5q8 15 24.5 20.5t31.5 -1.5t19.5 -25t-3.5 -31q-9 -17 -106.5 -194t-137.5 -275q-76 -182 -41 -241q20 -33 84 -33q63 0 123 37t105.5 91t96.5 140t86.5 160t85.5 176t83 164q7 15 24.5 19.5t30.5 -3.5q15 -8 20.5 -24 t-3.5 -31q-34 -64 -110 -221t-120 -236q0 -2 -2 -4q-29 -51 -48 -94.5t-26.5 -69t-9 -45.5t-0.5 -28t4 -13q12 -18 53 -18q21 0 46 14t55 45t52 55t55.5 70t45.5 63t41 58q10 13 28.5 16t31.5 -6q13 -10 15 -27t-7 -30q-107 -157 -176 -231q-106 -109 -187 -109 q-55 0 -89.5 23.5t-45.5 64.5q-3 9 -11.5 11.5t-14.5 -3.5q-108 -96 -232 -96q-109 0 -153 74zM433.5 1078q6.5 16 21.5 22q17 8 34 0t23 -27l25 -110q3 -12 -4 -23t-19 -14q-10 -3 -20 2t-13 14l-47 105q-7 15 -0.5 31z" />
<glyph unicode="&#xfa;" horiz-adv-x="806" d="M-57 33q-58 94 34 313q42 103 144 286.5t104 188.5q8 15 24.5 20.5t31.5 -1.5t19.5 -25t-3.5 -31q-9 -17 -106.5 -194t-137.5 -275q-76 -182 -41 -241q20 -33 84 -33q63 0 123 37t105.5 91t96.5 140t86.5 160t85.5 176t83 164q7 15 24.5 19.5t30.5 -3.5q15 -8 20.5 -24 t-3.5 -31q-34 -64 -110 -221t-120 -236q0 -2 -2 -4q-29 -51 -48 -94.5t-26.5 -69t-9 -45.5t-0.5 -28t4 -13q12 -18 53 -18q21 0 46 14t55 45t52 55t55.5 70t45.5 63t41 58q10 13 28.5 16t31.5 -6q13 -10 15 -27t-7 -30q-107 -157 -176 -231q-106 -109 -187 -109 q-55 0 -89.5 23.5t-45.5 64.5q-3 9 -11.5 11.5t-14.5 -3.5q-108 -96 -232 -96q-109 0 -153 74zM442 932q-15 19 2 39l103 114q12 12 29 12.5t30 -10.5q12 -11 13 -28t-11 -29q-1 -2 -123 -102q-9 -9 -22 -8t-21 12z" />
<glyph unicode="&#xfb;" horiz-adv-x="806" d="M-57 33q-58 94 34 313q42 103 144 286.5t104 188.5q8 15 24.5 20.5t31.5 -1.5t19.5 -25t-3.5 -31q-9 -17 -106.5 -194t-137.5 -275q-76 -182 -41 -241q20 -33 84 -33q63 0 123 37t105.5 91t96.5 140t86.5 160t85.5 176t83 164q7 15 24.5 19.5t30.5 -3.5q15 -8 20.5 -24 t-3.5 -31q-34 -64 -110 -221t-120 -236q0 -2 -2 -4q-29 -51 -48 -94.5t-26.5 -69t-9 -45.5t-0.5 -28t4 -13q12 -18 53 -18q21 0 46 14t55 45t52 55t55.5 70t45.5 63t41 58q10 13 28.5 16t31.5 -6q13 -10 15 -27t-7 -30q-107 -157 -176 -231q-106 -109 -187 -109 q-55 0 -89.5 23.5t-45.5 64.5q-3 9 -11.5 11.5t-14.5 -3.5q-108 -96 -232 -96q-109 0 -153 74zM410 947.5q-1 17.5 10 29.5l164 178q16 19 41 12q25 -9 28 -32l31 -179q3 -19 -9 -33t-32 -14q-14 0 -26 10t-13 23l-12 64q-2 9 -11.5 12t-15.5 -4l-84 -90q-11 -12 -28 -13 t-29 9q-13 10 -14 27.5z" />
<glyph unicode="&#xfc;" horiz-adv-x="806" d="M-57 33q-58 94 34 313q42 103 144 286.5t104 188.5q8 15 24.5 20.5t31.5 -1.5t19.5 -25t-3.5 -31q-9 -17 -106.5 -194t-137.5 -275q-76 -182 -41 -241q20 -33 84 -33q63 0 123 37t105.5 91t96.5 140t86.5 160t85.5 176t83 164q7 15 24.5 19.5t30.5 -3.5q15 -8 20.5 -24 t-3.5 -31q-34 -64 -110 -221t-120 -236q0 -2 -2 -4q-29 -51 -48 -94.5t-26.5 -69t-9 -45.5t-0.5 -28t4 -13q12 -18 53 -18q21 0 46 14t55 45t52 55t55.5 70t45.5 63t41 58q10 13 28.5 16t31.5 -6q13 -10 15 -27t-7 -30q-107 -157 -176 -231q-106 -109 -187 -109 q-55 0 -89.5 23.5t-45.5 64.5q-3 9 -11.5 11.5t-14.5 -3.5q-108 -96 -232 -96q-109 0 -153 74zM426 1002q-12 19 0 45q7 15 24.5 19.5t30.5 -3.5q29 -15 20 -47.5t-40 -32.5q-23 0 -35 19zM618 1002q-12 19 0 45q7 15 25 19.5t31 -3.5q29 -15 19.5 -47.5t-40.5 -32.5 q-23 0 -35 19z" />
<glyph unicode="&#xfd;" horiz-adv-x="772" d="M-266 -633q0 50 21 96.5t53.5 83.5t91 84t113 85t141 100.5t155.5 115.5q3 0 6 7q5 10 36.5 75t49.5 101q6 13 -5.5 21t-20.5 -3q-168 -174 -303 -174q-47 0 -81 17t-54.5 54t-15.5 105t38 162q34 100 122.5 285t104.5 225q6 17 22.5 23.5t31.5 -1.5q17 -6 23.5 -21 t-1.5 -32q-19 -46 -106 -228.5t-121 -277.5q-17 -49 -25.5 -82t-10.5 -70.5t16 -57t57 -19.5q68 0 159 71.5t195 206.5q90 117 170 251t129 237q8 15 27 22t36 0q15 -8 20.5 -24t-1.5 -31q-95 -199 -305 -639q-6 -12 5 -19.5t21 1.5q120 110 226 233q12 12 28.5 13t30.5 -11 q12 -11 13 -28t-9 -29q-194 -219 -436 -412q-4 -4 -4 -6q-223 -446 -332 -575q-78 -90 -147 -90q-66 0 -115 44.5t-49 110.5zM-184 -633q0 -28 23.5 -51t58.5 -23q31 0 86 62q80 94 215 354q6 12 -4 20.5t-19 0.5q-188 -133 -223 -161q-113 -91 -132 -163q-5 -19 -5 -39z M440 932q-15 19 2 39l103 114q12 12 29 12.5t30 -10.5q12 -11 13 -28t-11 -29q-1 -2 -123 -102q-9 -9 -22 -8t-21 12z" />
<glyph unicode="&#xfe;" horiz-adv-x="913" d="M23 -12l544 1319q6 17 22.5 23.5t31.5 -1.5q15 -6 21.5 -22t0.5 -31l-168 -406q-3 -9 3.5 -16.5t15.5 -5.5q85 18 161 12t131.5 -30.5t84 -81.5t18.5 -140q-15 -137 -89 -215t-190 -90q-81 -7 -165.5 18t-143.5 70q-6 6 -14 4t-11 -10l-178 -428q-6 -15 -21 -22t-32 -1 q-15 6 -21.5 22.5t-0.5 31.5zM324 500q-4 -11 2 -17q34 -43 114.5 -74.5t161.5 -23.5q77 7 135 59.5t72 171.5q7 58 -14.5 95.5t-59.5 52.5t-91.5 16.5t-105 -7t-106.5 -23.5q-6 0 -10 -9z" />
<glyph unicode="&#xff;" horiz-adv-x="772" d="M-266 -633q0 50 21 96.5t53.5 83.5t91 84t113 85t141 100.5t155.5 115.5q3 0 6 7q5 10 36.5 75t49.5 101q6 13 -5.5 21t-20.5 -3q-168 -174 -303 -174q-47 0 -81 17t-54.5 54t-15.5 105t38 162q34 100 122.5 285t104.5 225q6 17 22.5 23.5t31.5 -1.5q17 -6 23.5 -21 t-1.5 -32q-19 -46 -106 -228.5t-121 -277.5q-17 -49 -25.5 -82t-10.5 -70.5t16 -57t57 -19.5q68 0 159 71.5t195 206.5q90 117 170 251t129 237q8 15 27 22t36 0q15 -8 20.5 -24t-1.5 -31q-95 -199 -305 -639q-6 -12 5 -19.5t21 1.5q120 110 226 233q12 12 28.5 13t30.5 -11 q12 -11 13 -28t-9 -29q-194 -219 -436 -412q-4 -4 -4 -6q-223 -446 -332 -575q-78 -90 -147 -90q-66 0 -115 44.5t-49 110.5zM-184 -633q0 -28 23.5 -51t58.5 -23q31 0 86 62q80 94 215 354q6 12 -4 20.5t-19 0.5q-188 -133 -223 -161q-113 -91 -132 -163q-5 -19 -5 -39z M467 1002q-12 19 0 45q7 15 24.5 19.5t30.5 -3.5q29 -15 20 -47.5t-40 -32.5q-23 0 -35 19zM659 1002q-12 19 0 45q7 15 25 19.5t31 -3.5q29 -15 19.5 -47.5t-40.5 -32.5q-23 0 -35 19z" />
<glyph unicode="&#x152;" horiz-adv-x="2220" d="M-365 43q4 17 19.5 25.5t30.5 3.5q178 -49 338 -4q16 3 12 20q-51 131 -51 299q-1 138 33 280.5t97 275.5t158.5 250.5t211 205t261 139t302.5 53.5q84 -1 174.5 -23.5t187.5 -65.5t168 -80.5t174 -96.5q10 -7 21 4q144 156 372 156q106 0 178 -66t72 -168 q0 -85 -61 -146t-146 -61q-69 0 -158.5 40t-230.5 120q-13 6 -22 -6q-80 -136 -60 -266q4 -14 17 -14q70 0 151 -33q15 -8 21.5 -24.5t-0.5 -31.5t-23 -20.5t-31 0.5q-62 27 -122 27q-108 0 -211 -41q-11 -7 -11 -19q34 -214 -30 -439t-213 -388q-4 -5 -4 -12t4 -11 q136 -153 364 -153q82 0 159.5 25.5t136.5 68t104 94.5t68.5 107.5t23.5 105.5q0 111 -71.5 177.5t-170.5 66.5q-88 0 -144.5 -54t-56.5 -151q0 -18 -12 -30t-29 -11q-17 0 -29 13t-12 30q1 131 82.5 208t200.5 77q81 0 153.5 -36.5t121.5 -112.5t49 -177q0 -80 -45 -166 t-120 -156t-183.5 -115.5t-225.5 -45.5q-266 0 -422 178q-10 10 -22 2q-220 -186 -527 -186q-190 0 -338.5 75t-236.5 226q-8 12 -19 8q-192 -58 -399 0q-17 4 -25.5 19t-3.5 30zM66 387q0 -146 45 -270q7 -18 22 -11q72 33 166 95q10 7 6 18q-29 92 -29 189q0 115 34 236.5 t98.5 232.5t150 199.5t198 141t232.5 52.5q182 0 310 -101.5t184 -281.5q2 -6 8 -9.5t12 -0.5q54 19 119 32q6 0 10 5.5t2 11.5q-20 157 70 311q10 14 -4 23q-202 116 -356.5 181t-296.5 68q-147 -1 -282.5 -50.5t-241.5 -132.5t-194 -193.5t-145 -234.5t-88 -255t-30 -256z M161 24q-2 -8 1 -14q155 -243 495 -243q276 0 480 172q12 8 4 20q-82 139 -82 311q0 171 94.5 319.5t247.5 237.5q12 8 8 19q-46 159 -153 250.5t-267 91.5q-105 0 -204 -48t-175 -128t-133.5 -180.5t-88 -210.5t-30.5 -213q0 -64 17 -134q1 -7 9 -10t15 2q87 54 159 83.5 t147 29.5q144 0 226.5 -67t82.5 -158q0 -68 -42 -117.5t-107.5 -72.5t-143.5 -23q-252 0 -369 178q-3 6 -9.5 7.5t-10.5 -1.5q-76 -49 -162 -90q-7 -3 -9 -11zM422 164q94 -141 299 -141q86 0 148.5 34t62.5 97q0 55 -58.5 99t-168.5 44q-64 0 -127 -28t-150 -83 q-14 -10 -6 -22zM1141 270q0 -128 55 -241q3 -8 12 -8.5t15 6.5q121 142 175.5 329.5t33.5 366.5q0 9 -9 13t-16 -1q-121 -80 -193.5 -203.5t-72.5 -261.5zM1851 1292q-15 -16 2 -26q245 -140 334 -140q51 0 88 37t37 88q0 69 -48.5 110.5t-119.5 41.5q-177 0 -293 -111z " />
<glyph unicode="&#x153;" horiz-adv-x="1103" d="M-33.5 225q-0.5 75 21.5 158q43 163 127 244q12 12 29.5 12t27.5 -12q12 -12 12 -29.5t-12 -28.5q-65 -62 -104 -207q-17 -61 -20 -116.5t9 -103t48 -75.5t94 -28q63 0 125 35q12 3 8 18q-29 63 -17 146q8 43 31 88q4 6 1 12t-9 8q-63 18 -100 68.5t-37 124.5 q0 133 81.5 212.5t196.5 79.5q92 0 152 -63q5 -4 11 -4t9 4q60 63 176 63q58 0 109 -44.5t60 -106t-46 -125.5q-73 -79 -196 -37q-9 3 -37 17q-6 3 -13.5 -1t-7.5 -10v-4q-3 -5 2 -10q20 -26 66 -49q14 -8 18.5 -23.5t-2.5 -29.5q-8 -15 -23.5 -20.5t-29.5 1.5 q-29 15 -95 9.5t-120 -31.5q-101 -50 -115 -142q-14 -81 28.5 -133.5t125.5 -52.5q81 0 157 23.5t143 68t124 97.5t115 122q11 12 27 13t30 -9q12 -11 13 -28t-9 -29q-134 -159 -279.5 -249.5t-320.5 -90.5q-92 0 -158 51q-5 6 -16 2q-82 -53 -178 -53q-79 0 -133 36 t-76.5 96.5t-23 135.5zM283 539q0 -41 17 -69.5t44.5 -39.5t60 -9.5t64.5 15.5q59 30 127 39q9 3 12 12v7v8q-3 4 -8 20q-23 66 -4 146v10q-38 72 -117 72q-83 0 -139.5 -56.5t-56.5 -154.5zM686 668l2 -4q10 -17 35.5 -37t56.5 -31q72 -25 113 16q30 34 20.5 65t-36.5 52 t-50 21q-56 0 -87.5 -17.5t-51.5 -54.5q-2 -4 -2 -10z" />
<glyph unicode="&#x178;" horiz-adv-x="2213" d="M-18 -897q8 111 44 215t101 193t151.5 154t202 98t244.5 24q130 -9 234 -55.5t169 -117.5t97 -159.5t26 -185.5q-6 -79 -37.5 -148t-83.5 -120t-127.5 -78t-162.5 -21q-18 2 -29 14t-10 29q0 17 13 29t30 10q138 -10 227 74.5t98 216.5q11 168 -108 290.5t-342 139.5 q-139 10 -260 -36t-204 -131t-133 -199.5t-59 -241.5q-9 -119 21 -226t94 -191.5t169.5 -138t240.5 -63.5q102 -7 194.5 13t171.5 61.5t153.5 109.5t137 147t125 184t115 211t109 238.5t105.5 255.5t107 271q1 2 1.5 3.5t0.5 2.5q15 35 17 41q4 13 -7 20.5t-20 -1.5 q-191 -201 -430 -201q-130 0 -202 77t-72 228q0 120 64.5 355t162.5 428q3 6 0 13.5t-10 8.5q-16 5 -136 43t-171.5 52t-149.5 31t-178 17q-184 0 -301 -85.5t-117 -247.5q0 -119 74.5 -193t177.5 -74q104 0 162.5 72t40.5 162q-4 17 4.5 30.5t25.5 18.5q17 3 31 -6.5 t19 -26.5q27 -127 -55.5 -229t-227.5 -102q-136 0 -235 98t-99 250q0 86 31.5 160.5t92.5 132t157.5 90t218.5 32.5q90 0 193.5 -18t168 -36t175.5 -53.5t145 -45.5q11 -3 18 8q147 242 305 242q75 0 124.5 -33.5t49.5 -97.5q0 -85 -92 -159.5t-227 -74.5q-58 0 -113 14 q-13 0 -18 -8q-97 -186 -163 -420.5t-66 -347.5q0 -110 45.5 -166.5t146.5 -56.5q123 0 228.5 61t207.5 189q105 134 250 418h2q166 387 336 663q7 13 24.5 18t30.5 -3q14 -9 19 -25.5t-4 -30.5q-56 -101 -112.5 -212.5t-123 -247.5t-96.5 -197q-85 -192 -244 -602 q-186 -477 -280 -678q-206 -443 -422 -647q-262 -248 -602 -224q-152 11 -272.5 72.5t-194 158t-108 218t-25.5 256.5zM1465.5 997.5q4.5 -9.5 13.5 -10.5q40 -4 57 -4q101 0 169.5 51.5t68.5 100.5t-93 49q-101 0 -215 -170q-5 -7 -0.5 -16.5zM1931 1475q-12 19 0 45 q7 15 25 19.5t31 -3.5q29 -15 19.5 -47.5t-40.5 -32.5q-23 0 -35 19zM2124 1475q-12 19 0 45q7 15 24.5 19.5t30.5 -3.5q29 -15 20 -47.5t-40 -32.5q-23 0 -35 19z" />
<glyph unicode="&#x2c6;" horiz-adv-x="317" d="M21 947.5q-1 17.5 10 29.5l164 178q16 19 41 12q25 -9 28 -32l31 -179q3 -19 -9 -33t-32 -14q-14 0 -26 10t-13 23l-12 64q-2 9 -11.5 12t-15.5 -4l-84 -90q-11 -12 -28 -13t-29 9q-13 10 -14 27.5z" />
<glyph unicode="&#x2dc;" horiz-adv-x="395" d="M55 979q-18 21 13.5 59.5t74.5 38.5q30 0 72 -24.5t51 -24.5q7 0 23 11.5t24 11.5q12 0 20.5 -9t8.5 -20q0 -18 -24.5 -44t-61.5 -26q-31 0 -72.5 23.5t-48.5 23.5q-11 0 -29 -15t-30 -15q-14 0 -21 10z" />
<glyph unicode="&#x2000;" horiz-adv-x="939" />
<glyph unicode="&#x2001;" horiz-adv-x="1879" />
<glyph unicode="&#x2002;" horiz-adv-x="939" />
<glyph unicode="&#x2003;" horiz-adv-x="1879" />
<glyph unicode="&#x2004;" horiz-adv-x="626" />
<glyph unicode="&#x2005;" horiz-adv-x="469" />
<glyph unicode="&#x2006;" horiz-adv-x="313" />
<glyph unicode="&#x2007;" horiz-adv-x="313" />
<glyph unicode="&#x2008;" horiz-adv-x="234" />
<glyph unicode="&#x2009;" horiz-adv-x="375" />
<glyph unicode="&#x200a;" horiz-adv-x="104" />
<glyph unicode="&#x2010;" horiz-adv-x="643" d="M43 455q5 17 19.5 29t31.5 12h477q17 0 25.5 -12t3.5 -29q-4 -18 -18.5 -29.5t-32.5 -11.5h-477q-17 0 -25 11t-4 30z" />
<glyph unicode="&#x2011;" horiz-adv-x="643" d="M43 455q5 17 19.5 29t31.5 12h477q17 0 25.5 -12t3.5 -29q-4 -18 -18.5 -29.5t-32.5 -11.5h-477q-17 0 -25 11t-4 30z" />
<glyph unicode="&#x2012;" horiz-adv-x="643" d="M43 455q5 17 19.5 29t31.5 12h477q17 0 25.5 -12t3.5 -29q-4 -18 -18.5 -29.5t-32.5 -11.5h-477q-17 0 -25 11t-4 30z" />
<glyph unicode="&#x2013;" horiz-adv-x="651" d="M43 383q5 17 19.5 29t31.5 12h484q17 0 26 -12t4 -29t-19.5 -29t-31.5 -12h-485q-17 0 -25.5 12t-3.5 29z" />
<glyph unicode="&#x2014;" horiz-adv-x="815" d="M43 383q5 17 19.5 29t31.5 12h647q17 0 26 -12t5 -29q-5 -17 -19.5 -29t-31.5 -12h-649q-17 0 -25.5 12t-3.5 29z" />
<glyph unicode="&#x2018;" horiz-adv-x="141" d="M25 967l26 100q3 13 15 20.5t26 4.5q11 -3 17.5 -14t5.5 -23l-11 -103q-1 -17 -14.5 -28t-30.5 -9q-19 2 -29.5 17.5t-4.5 34.5z" />
<glyph unicode="&#x2019;" horiz-adv-x="178" d="M43 954l10 103q3 18 16 28t31 9q17 -1 27 -14t8 -31q0 -5 -29 -107q-3 -13 -14.5 -20t-23.5 -4q-28 11 -25 36z" />
<glyph unicode="&#x201a;" horiz-adv-x="141" d="M27 -4l10 102q3 18 15.5 28t29.5 9t28 -14.5t9 -30.5q0 -4 -29 -106q-3 -13 -15 -20.5t-24 -4.5t-19 14t-5 23z" />
<glyph unicode="&#x201c;" horiz-adv-x="303" d="M43 967l27 100q3 13 15 20.5t26 4.5q10 -3 17 -14t5 -23l-10 -103q-1 -17 -14.5 -28t-30.5 -9q-19 2 -30 17.5t-5 34.5zM170 967l27 100q3 13 15 20.5t26 4.5q10 -3 17 -14t5 -23l-10 -103q-1 -17 -14.5 -28t-30.5 -9q-19 2 -30 17.5t-5 34.5z" />
<glyph unicode="&#x201d;" horiz-adv-x="301" d="M43 954l10 103q3 18 16 28t31 9q17 -1 27 -14t8 -31q0 -5 -29 -107q-3 -13 -14.5 -20t-23.5 -4q-28 11 -25 36zM166 954l10 103q3 18 16 28t31 9q17 -1 27 -14t8 -31q0 -5 -29 -107q-3 -13 -15 -20t-24 -4q-27 10 -24 36z" />
<glyph unicode="&#x201e;" horiz-adv-x="284" d="M27 -4l10 102q3 18 15.5 28t29.5 9t28 -14.5t9 -30.5q0 -4 -29 -106q-3 -13 -15 -20.5t-24 -4.5t-19 14t-5 23zM150 -4l10 102q3 18 15.5 28t29.5 9t28 -14.5t9 -30.5q0 -4 -29 -106q-3 -13 -15 -20.5t-24 -4.5t-19 14t-5 23z" />
<glyph unicode="&#x2022;" horiz-adv-x="346" d="M45.5 327.5q-12.5 50.5 15.5 96.5l7 10q29 47 80.5 62.5t95.5 -9.5q44 -26 56.5 -76.5t-15.5 -97.5l-6 -10q-39 -67 -117 -67q-28 0 -60 16q-44 25 -56.5 75.5z" />
<glyph unicode="&#x2026;" horiz-adv-x="714" d="M188 26.5q-5 16.5 2 30.5l17 29q8 15 24 20t31 -4q15 -7 20 -23.5t-3 -31.5l-15 -29q-9 -14 -25.5 -18.5t-31.5 2.5q-14 8 -19 24.5zM329.5 26.5q-4.5 16.5 2.5 30.5l16 29q8 15 24 20t31 -4q15 -7 20 -23.5t-3 -31.5l-14 -29q-9 -14 -26 -18.5t-32 2.5q-14 8 -18.5 24.5 zM475 26.5q-5 16.5 2 30.5l17 29q8 15 24 20t31 -4q15 -7 19.5 -23.5t-3.5 -31.5l-14 -29q-9 -14 -25.5 -18.5t-31.5 2.5q-14 8 -19 24.5z" />
<glyph unicode="&#x202f;" horiz-adv-x="375" />
<glyph unicode="&#x2039;" horiz-adv-x="724" d="M20 340q9 89 86 141l533 346q14 9 30 5.5t25 -17.5q9 -13 6 -29.5t-18 -25.5l-532 -348q-41 -24 -48 -78q-3 -52 33 -88l232 -215q12 -12 13 -30t-11 -30q-10 -12 -28 -12.5t-30 10.5l-231 217q-32 29 -47.5 70t-12.5 84z" />
<glyph unicode="&#x203a;" horiz-adv-x="743" d="M21.5 8.5q3.5 17.5 17.5 26.5l532 346q44 29 47 80q6 51 -32 86l-232 217q-12 10 -12.5 27.5t10.5 29.5q12 12 29 12.5t29 -10.5l231 -217q68 -62 59 -153q-6 -90 -84 -142l-532 -346q-14 -9 -31 -5.5t-26 17.5t-5.5 31.5z" />
<glyph unicode="&#x205f;" horiz-adv-x="469" />
<glyph unicode="&#x20ac;" horiz-adv-x="1490" d="M20 338q0 15 13 27t28 12h140q16 0 16 16q-11 159 31 318q1 7 -4 13.5t-13 6.5h-92q-19 0 -30.5 12t-10.5 31q0 17 12 28t29 11h127q12 0 15 10q55 149 152 273.5t210.5 204.5t235 123.5t233.5 43.5q163 0 260.5 -90.5t97.5 -249.5q0 -19 -12 -30.5t-31 -10.5 q-15 0 -26.5 12t-11.5 29q0 127 -74.5 192.5t-202.5 65.5q-94 0 -199 -36.5t-205.5 -104t-189.5 -174t-143 -235.5q-3 -8 1 -15.5t13 -7.5h453q19 0 30.5 -12t10.5 -31q0 -15 -12 -27t-29 -12h-492q-13 0 -16 -12q-45 -168 -35 -328q3 -14 16 -14h449q19 0 30.5 -12 t10.5 -31q0 -17 -12 -28t-29 -11h-428q-9 0 -14.5 -7t-2.5 -14q32 -117 107.5 -202t166.5 -124.5t187 -39.5q124 0 203.5 66t79.5 184q0 17 13 29t30 12t28 -12.5t11 -30.5q0 -152 -104 -241t-261 -89q-186 0 -342.5 122.5t-204.5 334.5q-4 12 -16 12h-156q-18 0 -30 12.5 t-11 30.5z" />
<glyph unicode="&#x25fc;" horiz-adv-x="870" d="M0 0v870h870v-870h-870z" />
</font>
</defs>
</svg>
